<svg width="81" height="85" viewBox="0 0 81 85" fill="none" xmlns="http://www.w3.org/2000/svg">
<path d="M55.38 62.7725H25.52C25.42 62.7725 25.33 62.7125 25.3 62.6125L16.07 34.2225C16.04 34.1325 16.07 34.0225 16.15 33.9725L40.3 16.4225C40.38 16.3625 40.49 16.3625 40.57 16.4225L64.72 33.9725C64.8 34.0325 64.83 34.1325 64.8 34.2225L55.57 62.6125C55.57 62.7125 55.48 62.7725 55.38 62.7725ZM25.69 62.3225H55.22L64.34 34.2425L40.45 16.8925L16.56 34.2425L25.69 62.3225Z" fill="white"/>
<path d="M40.45 67.8525C40.36 67.8525 40.26 67.8225 40.18 67.7625L16.03 50.2125C15.87 50.0925 15.8 49.8925 15.87 49.7025L25.1 21.3125C25.16 21.1225 25.34 21.0025 25.53 21.0025H55.39C55.59 21.0025 55.76 21.1325 55.82 21.3125L65.05 49.7025C65.11 49.8925 65.04 50.0925 64.88 50.2125L40.73 67.7625C40.64 67.8225 40.55 67.8525 40.45 67.8525ZM16.83 49.6725L40.45 66.8325L64.07 49.6725L55.05 21.9025H25.86L16.83 49.6725Z" fill="white"/>
<path d="M40.98 84.6925C40.93 84.6925 40.89 84.6825 40.85 84.6725L16.13 76.9825C16.04 76.9525 15.96 76.9025 15.9 76.8225L0.419983 56.0725C0.359983 55.9925 0.330017 55.9025 0.330017 55.8025L0 29.9125C0 29.8125 0.0300171 29.7225 0.0800171 29.6425L15.03 8.50251C15.08 8.42251 15.16 8.36253 15.25 8.33253L39.77 0.0225C39.86 -0.0075 39.96 -0.0075 40.05 0.0225L64.77 7.7125C64.86 7.7425 64.94 7.79251 65 7.87251L80.48 28.6225C80.54 28.7025 80.57 28.7925 80.57 28.8925L80.9 54.7825C80.9 54.8825 80.87 54.9725 80.82 55.0525L65.87 76.1925C65.82 76.2725 65.74 76.3325 65.65 76.3625L41.13 84.6725C41.08 84.6925 41.03 84.6925 40.98 84.6925ZM16.53 76.1625L40.97 83.7625L65.21 75.5425L79.99 54.6425L79.67 29.0525L64.37 8.53251L39.93 0.932504L15.69 9.1525L0.910034 30.0425L1.22998 55.6325L16.53 76.1625Z" fill="white"/>
<path d="M40.98 84.6925C40.73 84.6925 40.53 84.5025 40.52 84.2525L39.99 67.4125C39.98 67.1625 40.18 66.9525 40.43 66.9425C40.66 66.9425 40.89 67.1325 40.9 67.3825L41.43 84.2225C41.44 84.4725 41.24 84.6825 40.99 84.6925L40.98 84.6925Z" fill="white"/>
<path d="M80.45 55.2525C80.41 55.2525 80.36 55.2425 80.31 55.2325L64.4601 50.2825C64.2201 50.2025 64.0901 49.9525 64.1601 49.7125C64.2301 49.4725 64.49 49.3425 64.73 49.4125L80.58 54.3625C80.82 54.4425 80.95 54.6925 80.88 54.9325C80.83 55.1225 80.65 55.2525 80.45 55.2525Z" fill="white"/>
<path d="M0.780056 56.2525C0.600056 56.2525 0.420012 56.1425 0.360012 55.9625C0.270012 55.7225 0.390022 55.4625 0.620022 55.3725L16.14 49.4225C16.37 49.3325 16.64 49.4525 16.73 49.6825C16.82 49.9225 16.7001 50.1825 16.4701 50.2725L0.950039 56.2225C0.890039 56.2425 0.830056 56.2525 0.780056 56.2525Z" fill="white"/>
<path d="M25.52 21.9125C25.39 21.9125 25.25 21.8525 25.16 21.7425L15.04 9.06249C14.88 8.86249 14.91 8.5825 15.11 8.4225C15.31 8.2625 15.59 8.30248 15.75 8.49248L25.87 21.1725C26.03 21.3725 26 21.6525 25.8 21.8125C25.72 21.8725 25.62 21.9125 25.52 21.9125Z" fill="white"/>
<path d="M55.38 21.9125C55.29 21.9125 55.2 21.8825 55.12 21.8325C54.91 21.6925 54.86 21.4025 55.01 21.2025L64.28 7.90251C64.42 7.69251 64.71 7.64252 64.91 7.79252C65.12 7.93252 65.17 8.22252 65.02 8.42252L55.75 21.7225C55.66 21.8425 55.52 21.9125 55.38 21.9125Z" fill="white"/>
<path d="M40.45 16.8325C40.33 16.8325 40.23 16.7325 40.22 16.6125L39.69 0.472504C39.69 0.342504 39.78 0.242513 39.91 0.232513H39.92C40.04 0.232513 40.14 0.332515 40.15 0.452515L40.68 16.5925C40.68 16.7225 40.58 16.8225 40.45 16.8325Z" fill="white"/>
<path d="M16.3 34.3825C16.28 34.3825 16.26 34.3825 16.24 34.3725L0.390044 30.1325C0.270044 30.1025 0.20001 29.9725 0.23001 29.8525C0.26001 29.7325 0.39004 29.6625 0.51004 29.6925L16.36 33.9325C16.48 33.9625 16.5501 34.0925 16.5201 34.2125C16.49 34.3125 16.4 34.3825 16.3 34.3825Z" fill="white"/>
<path d="M64.61 34.3825C64.52 34.3825 64.43 34.3225 64.39 34.2325C64.35 34.1125 64.41 33.9825 64.53 33.9425L80.05 28.6925C80.17 28.6525 80.3 28.7125 80.34 28.8325C80.38 28.9525 80.32 29.0825 80.2 29.1225L64.68 34.3725C64.65 34.3725 64.63 34.3825 64.61 34.3825Z" fill="white"/>
<path d="M65.5 76.1625C65.43 76.1625 65.36 76.1325 65.32 76.0725L55.2 62.6925C55.12 62.5925 55.14 62.4525 55.24 62.3725C55.34 62.3025 55.48 62.3225 55.56 62.4125L65.68 75.7925C65.76 75.8925 65.74 76.0325 65.64 76.1125C65.6 76.1425 65.55 76.1625 65.5 76.1625Z" fill="white"/>
<path d="M16.26 76.7825C16.22 76.7825 16.17 76.7725 16.13 76.7425C16.03 76.6725 16 76.5325 16.07 76.4225L25.34 62.4225C25.41 62.3225 25.55 62.2925 25.66 62.3625C25.76 62.4325 25.79 62.5725 25.72 62.6825L16.45 76.6825C16.41 76.7425 16.33 76.7825 16.26 76.7825Z" fill="white"/>
<path d="M25.55 63.7325C27.01 63.7325 27.02 61.4525 25.55 61.4525C24.08 61.4625 24.08 63.7325 25.55 63.7325Z" fill="white"/>
<path d="M55.3501 63.6525C56.8101 63.6525 56.8201 61.3725 55.3501 61.3725C53.8901 61.3725 53.8901 63.6525 55.3501 63.6525Z" fill="white"/>
<path d="M64.58 35.3325C66.04 35.3325 66.05 33.0525 64.58 33.0525C63.12 33.0625 63.11 35.3325 64.58 35.3325Z" fill="white"/>
<path d="M40.49 17.7425C41.95 17.7425 41.96 15.4625 40.49 15.4625C39.03 15.4725 39.03 17.7425 40.49 17.7425Z" fill="white"/>
<path d="M16.43 35.2525C17.89 35.2525 17.9 32.9725 16.43 32.9725C14.97 32.9725 14.97 35.2525 16.43 35.2525Z" fill="white"/>
</svg>
