<svg width="80" height="87" viewBox="0 0 80 87" fill="none" xmlns="http://www.w3.org/2000/svg">
<path d="M57.2906 36.7963C57.2806 36.7963 57.2706 36.7963 57.2606 36.7963L3.54061 33.4363C3.36061 33.4263 3.2006 33.3063 3.1406 33.1363C3.0806 32.9663 3.1306 32.7663 3.2706 32.6463L39.3306 0.136302C39.4406 0.0363018 39.5806 -0.00368359 39.7206 0.0263164C39.8606 0.0563164 39.9806 0.146316 40.0406 0.276316L57.7006 36.1463C57.7706 36.2963 57.7606 36.4663 57.6706 36.5963C57.5806 36.7163 57.4406 36.7963 57.2906 36.7963ZM4.6706 32.5863L56.5306 35.8363L39.4806 1.20631L4.6706 32.5863Z" fill="white"/>
<path d="M27.9706 82.4963C27.9606 82.4963 27.9506 82.4963 27.9506 82.4963C27.7906 82.4863 27.6406 82.3963 27.5706 82.2463L3.1706 33.1763C3.1106 33.0663 3.11061 32.9263 3.15061 32.8063L7.37061 21.6863C7.40061 21.5963 7.46061 21.5263 7.54061 21.4663L39.3706 0.0762886C39.5206 -0.0237114 39.7206 -0.0236907 39.8706 0.0663093L79.6106 25.5063C79.7506 25.5963 79.8306 25.7563 79.8206 25.9163C79.8106 26.0863 79.7106 26.2263 79.5606 26.2963L57.6006 36.6763L28.3506 82.2663C28.2706 82.4163 28.1206 82.4963 27.9706 82.4963ZM4.0606 32.9563L28.0206 81.1263L56.9106 36.0963C56.9606 36.0263 57.0206 35.9663 57.1006 35.9263L78.4306 25.8463L39.6306 1.01629L8.1606 22.1563L4.0606 32.9563Z" fill="white"/>
<path d="M39.0906 86.1163C39.0406 86.1163 39.0006 86.1063 38.9506 86.0963L27.8306 82.4763C27.8006 82.4663 27.7606 82.4463 27.7306 82.4363L0.220594 65.7063C0.0705939 65.6163 -0.00940736 65.4463 0.000592643 65.2763L3.1006 32.9363C3.1206 32.6863 3.3406 32.5063 3.6006 32.5263C3.8506 32.5463 4.0306 32.7763 4.0106 33.0263L0.930601 65.0763L28.1506 81.6263L39.0806 85.1863L74.7906 73.0863L78.9006 25.8663C78.9206 25.6163 79.1706 25.4463 79.3906 25.4563C79.6406 25.4763 79.8306 25.6963 79.8006 25.9463L75.6606 73.4563C75.6406 73.6363 75.5206 73.7863 75.3506 73.8463L39.2206 86.0963C39.1906 86.1163 39.1406 86.1163 39.0906 86.1163Z" fill="white"/>
<path d="M27.9706 82.4963C27.7606 82.4963 27.5606 82.3463 27.5206 82.1263C27.4706 81.8763 27.6406 81.6463 27.8906 81.5963L74.5606 73.0763L56.8806 36.5363C56.7706 36.3063 56.8706 36.0363 57.0906 35.9263C57.3106 35.8163 57.5906 35.9163 57.7006 36.1363L75.6406 73.2163C75.7006 73.3463 75.7006 73.4963 75.6406 73.6163C75.5806 73.7463 75.4606 73.8363 75.3206 73.8563L28.0606 82.4763C28.0206 82.4963 28.0006 82.4963 27.9706 82.4963Z" fill="white"/>
<path d="M32.5406 49.4163C32.5006 49.4163 32.4606 49.4063 32.4306 49.3863L3.4606 33.1763C3.3706 33.1263 3.3306 33.0263 3.3506 32.9263C3.3706 32.8263 3.46059 32.7563 3.56059 32.7463L35.1106 30.4863L39.4106 0.426288C39.4306 0.306288 39.5406 0.226285 39.6706 0.236285C39.7906 0.256285 39.8806 0.366295 39.8606 0.496295L35.5606 30.5363L57.3506 36.1163C57.4406 36.1363 57.5106 36.2163 57.5206 36.3063C57.5306 36.3963 57.4806 36.4863 57.4006 36.5363L32.6506 49.3863C32.6106 49.4063 32.5806 49.4163 32.5406 49.4163ZM4.3406 33.1463L32.5406 48.9263L56.6506 36.4063L35.2706 30.9263L4.3406 33.1463Z" fill="white"/>
<path d="M27.9706 82.2663C27.9406 82.2663 27.9006 82.2563 27.8706 82.2463C27.7806 82.2063 27.7306 82.1063 27.7406 82.0063L32.3106 49.1563C32.3306 49.0363 32.4306 48.9463 32.5706 48.9663C32.7006 48.9863 32.7806 49.0963 32.7606 49.2263L28.2906 81.3363L48.9206 58.2663C49.0006 58.1763 49.1506 58.1663 49.2406 58.2463C49.3306 58.3263 49.3406 58.4763 49.2606 58.5663L28.1306 82.1963C28.0906 82.2463 28.0306 82.2663 27.9706 82.2663Z" fill="white"/>
<path d="M75.2306 73.6463C75.1906 73.6463 75.1506 73.6363 75.1206 73.6163L48.9906 58.6163C48.8906 58.5563 48.8506 58.4463 48.8906 58.3363L57.0806 36.2563C57.1206 36.1363 57.2506 36.0763 57.3706 36.1263C57.4906 36.1663 57.5506 36.2963 57.5006 36.4163L49.3806 58.3163L75.3406 73.2263C75.4506 73.2863 75.4906 73.4263 75.4206 73.5363C75.3806 73.6063 75.3006 73.6463 75.2306 73.6463Z" fill="white"/>
<path d="M61.5306 45.3363C61.4706 45.3363 61.4206 45.3163 61.3706 45.2763C61.2806 45.1863 61.2706 45.0463 61.3606 44.9563L78.7806 26.2063L53.6106 29.0463C53.4706 29.0663 53.3706 28.9663 53.3606 28.8463C53.3506 28.7163 53.4406 28.6063 53.5606 28.5963L79.3406 25.6863C79.4306 25.6763 79.5306 25.7263 79.5706 25.8063C79.6106 25.8863 79.6006 25.9963 79.5306 26.0663L61.6906 45.2663C61.6506 45.3063 61.5906 45.3363 61.5306 45.3363Z" fill="white"/>
</svg>
