<svg width="85" height="81" viewBox="0 0 85 81" fill="none" xmlns="http://www.w3.org/2000/svg">
<path d="M16.1498 80.44C16.0498 80.44 15.9498 80.41 15.8698 80.34C15.8598 80.33 15.8398 80.32 15.8298 80.3C15.7898 80.26 15.7597 80.22 15.7397 80.17L0.0498047 48.45C0.0198047 48.39 -0.000244141 48.32 -0.000244141 48.25V30.66C-0.000244141 30.61 0.00977539 30.57 0.0197754 30.52C0.0297754 30.5 0.0398047 30.47 0.0498047 30.45L16.2598 0.269989C16.3398 0.119989 16.4898 0.0299988 16.6598 0.0299988H42.4398C42.6398 0.0299988 42.8097 0.160006 42.8698 0.350006C42.9298 0.540006 42.8598 0.740016 42.6998 0.860016L1.34979 30.58L42.6298 49.17C42.7598 49.23 42.8598 49.35 42.8898 49.49C42.9198 49.63 42.8798 49.78 42.7898 49.89L17.1398 79.55H42.4498C42.6998 79.55 42.9098 79.75 42.9098 80.01C42.9098 80.27 42.7098 80.47 42.4498 80.47H16.1498C16.1498 80.44 16.1498 80.44 16.1498 80.44ZM0.90979 48.14L16.2498 79.16L41.6998 49.73L0.89978 31.36V48.14H0.90979ZM16.9398 0.929993L1.78979 29.14L41.0398 0.929993H16.9398Z" fill="white"/>
<path d="M68.7498 80.44H42.4498C42.1998 80.44 41.9897 80.24 41.9897 79.98C41.9897 79.72 42.1898 79.52 42.4498 79.52H67.7598L42.1098 49.86C42.0198 49.75 41.9798 49.6 42.0098 49.46C42.0398 49.32 42.1398 49.2 42.2698 49.14L83.5498 30.55L42.1998 0.829987C42.0398 0.709987 41.9698 0.510007 42.0298 0.320007C42.0898 0.130007 42.2698 0 42.4598 0H68.2397C68.4097 0 68.5598 0.0899902 68.6398 0.23999L84.8498 30.42C84.8898 30.49 84.9098 30.56 84.9098 30.64V48.23C84.9098 48.3 84.8898 48.37 84.8598 48.43L69.1698 80.15C69.1498 80.2 69.1098 80.25 69.0698 80.29C69.0598 80.3 69.0598 80.3 69.0498 80.31C68.9598 80.4 68.8598 80.44 68.7498 80.44ZM43.1998 49.74L68.6498 79.17L83.9897 48.15V31.37L43.1998 49.74ZM43.8698 0.929993L83.1198 29.14L67.9698 0.929993H43.8698Z" fill="white"/>
<path d="M42.4498 31.51C43.9098 31.51 43.9198 29.23 42.4498 29.23C40.9898 29.23 40.9898 31.51 42.4498 31.51Z" fill="white"/>
<path d="M58.3198 13.08C59.7798 13.08 59.7898 10.8 58.3198 10.8C56.8498 10.81 56.8498 13.08 58.3198 13.08Z" fill="white"/>
<path d="M26.4598 13C27.9198 13 27.9298 10.72 26.4598 10.72C24.9898 10.72 24.9898 13 26.4598 13Z" fill="white"/>
<path d="M58.3598 69.11C59.8198 69.11 59.8298 66.83 58.3598 66.83C56.8998 66.83 56.8998 69.11 58.3598 69.11Z" fill="white"/>
<path d="M26.5598 69.08C28.0198 69.08 28.0298 66.8 26.5598 66.8C25.0898 66.8 25.0898 69.08 26.5598 69.08Z" fill="white"/>
<path d="M84.4498 48.48C84.3598 48.48 84.2698 48.42 84.2298 48.33L68.1498 0.929997L42.6298 30.58C42.5398 30.68 42.3698 30.68 42.2798 30.58L16.7598 0.929997L0.679759 48.33C0.639759 48.45 0.509781 48.51 0.389781 48.47C0.269781 48.43 0.209766 48.3 0.249766 48.18L16.4598 0.410008C16.4898 0.330008 16.5498 0.280014 16.6298 0.260014C16.7098 0.250014 16.7898 0.270001 16.8498 0.340001L42.4598 30.09L68.0698 0.340001C68.1198 0.280001 68.2098 0.250014 68.2898 0.260014C68.3698 0.280014 68.4398 0.330008 68.4598 0.410008L84.6698 48.18C84.7098 48.3 84.6498 48.43 84.5298 48.47C84.4998 48.47 84.4698 48.48 84.4498 48.48Z" fill="white"/>
<path d="M42.4498 80.21C42.3998 80.21 42.3497 80.19 42.3097 80.16L0.319748 48.43C0.249748 48.38 0.219782 48.3 0.229782 48.22C0.239782 48.14 0.289735 48.07 0.369735 48.04L42.2298 30.28V0.480011C42.2298 0.350011 42.3298 0.25 42.4598 0.25C42.5898 0.25 42.6897 0.350011 42.6897 0.480011V30.28L84.5498 48.04C84.6298 48.07 84.6797 48.14 84.6897 48.22C84.6997 48.3 84.6698 48.38 84.5998 48.43L42.6098 80.16L42.5998 80.17C42.5398 80.2 42.4998 80.21 42.4498 80.21ZM42.6797 30.77V79.52L83.9997 48.3L42.6797 30.77ZM0.909774 48.3L42.2298 79.52V30.77L0.909774 48.3Z" fill="white"/>
<path d="M16.1498 80.21C16.0498 80.21 15.9598 80.15 15.9298 80.05L0.239752 30.73C0.199752 30.61 0.269776 30.48 0.389776 30.44C0.509776 30.4 0.639754 30.47 0.679754 30.59L16.3698 79.91C16.4098 80.03 16.3398 80.16 16.2198 80.2C16.1998 80.21 16.1698 80.21 16.1498 80.21Z" fill="white"/>
<path d="M68.7498 80.21C68.7298 80.21 68.6998 80.21 68.6798 80.2C68.5598 80.16 68.4898 80.03 68.5298 79.91L84.2198 30.59C84.2598 30.47 84.3798 30.4 84.5098 30.44C84.6298 30.48 84.6998 30.61 84.6598 30.73L68.9698 80.05C68.9398 80.15 68.8498 80.21 68.7498 80.21Z" fill="white"/>
</svg>
