<svg width="83" height="89" viewBox="0 0 83 89" fill="none" xmlns="http://www.w3.org/2000/svg">
<path d="M30.4123 65.217C30.2936 65.217 30.1651 65.167 30.086 65.077C29.9673 64.947 29.9277 64.757 29.9969 64.597L44.3277 29.587C44.3673 29.497 44.4266 29.427 44.5057 29.377L64.2068 16.617C64.3453 16.527 64.5233 16.517 64.6717 16.607C64.82 16.687 64.909 16.847 64.8991 17.017L64.0486 53.577C64.0486 53.767 63.92 53.937 63.742 53.997L30.5706 65.207C30.5112 65.217 30.4618 65.217 30.4123 65.217ZM45.0991 30.057L31.2035 64.017L63.1486 53.227L63.9695 17.837L45.0991 30.057Z" fill="white"/>
<path d="M29.7299 88.707H29.72C29.4728 88.697 29.275 88.487 29.2849 88.237L29.9574 64.957L12.8772 48.537C12.798 48.457 12.7486 48.357 12.7387 48.247L9.75189 13.847C9.742 13.687 9.81123 13.527 9.9398 13.437C10.0684 13.347 10.2365 13.327 10.3849 13.397L44.9211 29.347C45.1486 29.447 45.2475 29.727 45.1387 29.947C45.0398 30.177 44.7629 30.277 44.5453 30.167L10.7211 14.537L13.6189 47.997L30.7189 64.437C30.8079 64.527 30.8673 64.647 30.8574 64.777L30.175 88.257C30.175 88.507 29.9772 88.707 29.7299 88.707Z" fill="white"/>
<path d="M62.5354 84.737C62.5354 84.737 62.5255 84.737 62.5156 84.737C62.2684 84.727 62.0706 84.517 62.0805 84.267L63.1288 53.537C63.1387 53.347 63.2574 53.187 63.4255 53.127L82.2761 46.257C82.5134 46.167 82.7706 46.297 82.8497 46.527C82.9387 46.767 82.8101 47.027 82.5827 47.107L64.0189 53.867L62.9805 84.287C62.9805 84.547 62.7826 84.737 62.5354 84.737Z" fill="white"/>
<path d="M69.6958 8.85703C69.6958 8.85703 69.686 8.85703 69.6761 8.85703L42.9233 7.87704C42.8739 7.87704 42.8145 7.86704 42.7651 7.83704L26.4761 0.877033C26.2486 0.777033 26.1398 0.517034 26.2387 0.277034C26.3376 0.0470342 26.6046 -0.0629674 26.8321 0.0370325L43.042 6.95703L69.7057 7.92703C69.953 7.93703 70.1508 8.14703 70.1409 8.39703C70.1409 8.65703 69.9431 8.85703 69.6958 8.85703Z" fill="white"/>
<path d="M72.9398 36.617C72.7717 36.617 72.6035 36.517 72.5343 36.347L64.1079 17.337L42.9035 7.89703L10.286 14.247C10.0783 14.277 9.86068 14.167 9.78156 13.967L7.1409 7.24703C7.05189 7.01703 7.16068 6.74703 7.38815 6.65703C7.61563 6.56703 7.88266 6.67703 7.97167 6.90703L10.4838 13.287L42.864 6.97703C42.953 6.95703 43.042 6.96703 43.131 7.00703L64.6222 16.577C64.7211 16.617 64.8101 16.707 64.8497 16.807L73.3453 35.977C73.4442 36.207 73.3453 36.477 73.1178 36.577C73.0684 36.607 72.9991 36.617 72.9398 36.617Z" fill="white"/>
<path d="M29.7299 88.707C29.5914 88.707 29.4629 88.647 29.3739 88.527L10.9585 64.337L3.39255 63.667C3.17497 63.647 3.00684 63.477 2.98706 63.267L0.000244141 36.047C0.000244141 36.037 0.000244141 36.027 0.000244141 36.017C0.000244141 35.977 0.000248367 35.937 0.0200286 35.887L7.12113 6.97704C7.16069 6.82704 7.26947 6.70704 7.40793 6.65704L26.5156 0.0470367C26.575 0.0270367 26.6343 0.0170362 26.6936 0.0270362L48.1849 1.51703L69.8343 7.97704C70.0024 8.02704 70.131 8.17703 70.1508 8.35703L73.375 35.977L82.7706 46.387C82.8497 46.477 82.8893 46.587 82.8893 46.707L82.3156 67.687C82.3156 67.817 82.2563 67.937 82.1574 68.017L62.8222 84.627C62.753 84.687 62.6739 84.717 62.5849 84.737L29.7794 88.707C29.7695 88.707 29.7497 88.707 29.7299 88.707ZM11.6706 63.777L29.9376 87.767L62.3574 83.847L81.4354 67.457L81.9892 46.857L72.6134 36.477C72.5541 36.407 72.5145 36.317 72.4948 36.227L69.2904 8.75704L48.0266 2.40703L26.7233 0.927034L7.93212 7.42703L0.949694 35.847L13.4904 47.877C13.5991 47.977 13.6486 48.117 13.6288 48.267L11.6706 63.777ZM3.83761 62.797L10.8002 63.417L12.709 48.387L1.02882 37.187L3.83761 62.797Z" fill="white"/>
<path d="M30.0662 76.897C29.9871 76.897 29.9178 76.857 29.8684 76.787L12.986 48.327C12.9266 48.227 12.9563 48.087 13.0552 48.017C13.1541 47.947 13.2827 47.967 13.3618 48.067L30.4123 70.837C30.4915 70.937 30.4717 71.077 30.3728 71.157C30.2739 71.237 30.1354 71.217 30.0563 71.117L15.5277 51.707L30.264 76.547C30.3233 76.657 30.2937 76.797 30.1849 76.857C30.1453 76.887 30.1057 76.897 30.0662 76.897Z" fill="white"/>
<path d="M25.2497 82.597C25.1607 82.597 25.0717 82.537 25.042 82.447L12.9761 48.287C12.9365 48.177 12.986 48.047 13.0948 47.997C13.2035 47.947 13.3321 47.997 13.3816 48.107L30.1156 81.817C30.175 81.927 30.1255 82.067 30.0167 82.117C29.9079 82.177 29.7695 82.127 29.7101 82.017L14.6376 51.647L25.4673 82.297C25.5068 82.417 25.4475 82.547 25.3288 82.587C25.309 82.597 25.2794 82.597 25.2497 82.597Z" fill="white"/>
<path d="M19.2167 74.667C19.1178 74.667 19.0189 74.597 18.9991 74.487L13.5398 50.747L14.4101 67.807C14.42 67.937 14.3211 68.037 14.1926 68.047C14.064 68.037 13.9651 67.957 13.9552 67.827L12.9563 48.207C12.9464 48.087 13.0354 47.987 13.1541 47.967C13.253 47.957 13.3816 48.027 13.4013 48.137L19.4343 74.367C19.464 74.487 19.3849 74.617 19.2662 74.637C19.2563 74.667 19.2365 74.667 19.2167 74.667Z" fill="white"/>
<path d="M30.4123 64.997C30.3431 64.997 30.2838 64.967 30.2343 64.917C30.1552 64.827 30.1651 64.687 30.2541 64.607L63.8805 34.077C63.9695 33.997 64.1178 33.997 64.197 34.097C64.2761 34.187 64.2761 34.337 64.1772 34.417L33.6761 62.117L63.7519 40.197C63.8508 40.117 63.9893 40.147 64.0684 40.247C64.1376 40.347 64.1178 40.487 64.0189 40.567L30.531 64.967C30.5013 64.977 30.4618 64.997 30.4123 64.997Z" fill="white"/>
<path d="M30.9266 64.737C30.8475 64.737 30.7684 64.687 30.7288 64.607C30.6794 64.497 30.7189 64.367 30.8178 64.307L63.6629 45.597C63.7717 45.537 63.9101 45.577 63.9695 45.687C64.0288 45.797 63.9893 45.937 63.8805 45.997L35.5057 62.167L63.5937 49.297C63.7123 49.247 63.8409 49.297 63.8904 49.407C63.9398 49.517 63.8904 49.657 63.7816 49.707L31.0255 64.717C30.986 64.727 30.9563 64.737 30.9266 64.737Z" fill="white"/>
<path d="M53.0508 44.447C53.0211 44.447 52.9915 44.437 52.9618 44.427C52.8431 44.377 52.7936 44.247 52.8431 44.127L64.2365 16.907C64.286 16.797 64.4046 16.747 64.5134 16.777C64.6222 16.817 64.6915 16.937 64.6618 17.047L58.975 39.087C58.9453 39.207 58.8266 39.287 58.698 39.247C58.5794 39.217 58.5101 39.087 58.5398 38.967L63.4453 19.957L53.2585 44.297C53.2189 44.387 53.1398 44.447 53.0508 44.447Z" fill="white"/>
<path d="M37.8101 58.277C37.7706 58.277 37.7211 58.267 37.6816 58.237C37.5827 58.167 37.553 58.027 37.6123 57.917L64.2365 16.867C64.3057 16.767 64.4343 16.737 64.5431 16.797C64.6519 16.857 64.6816 16.997 64.6222 17.097L47.0772 49.907C47.0178 50.017 46.8794 50.057 46.7706 49.997C46.6618 49.937 46.6222 49.797 46.6816 49.687L61.7046 21.597L37.9882 58.167C37.9585 58.237 37.8893 58.277 37.8101 58.277Z" fill="white"/>
<path d="M30.4123 64.997C30.3728 64.997 30.3332 64.987 30.2937 64.967C30.1849 64.897 30.1552 64.757 30.2244 64.657L54.475 25.307L38.364 45.947C38.2849 46.047 38.1464 46.067 38.0475 45.987C37.9486 45.907 37.9288 45.767 38.0079 45.667L56.631 21.817C56.7101 21.717 56.8387 21.707 56.9376 21.767C57.0365 21.837 57.0662 21.967 56.997 22.077L30.6101 64.897C30.5607 64.957 30.4915 64.997 30.4123 64.997Z" fill="white"/>
<path d="M53.0508 34.787C53.031 34.787 53.0112 34.787 52.9816 34.777C52.8629 34.737 52.7936 34.617 52.8332 34.497L56.5816 21.877C56.6112 21.777 56.7101 21.697 56.8189 21.717C56.9277 21.727 57.0068 21.817 57.0167 21.927L57.5211 27.977C57.531 28.107 57.442 28.217 57.3134 28.227C57.175 28.247 57.0761 28.147 57.0662 28.017L56.6706 23.147L53.2585 34.617C53.2387 34.727 53.1398 34.787 53.0508 34.787Z" fill="white"/>
<path d="M60.1222 23.877C60.0827 23.877 60.053 23.867 60.0233 23.857L56.7002 22.147C56.6211 22.107 56.5717 22.017 56.5816 21.927C56.5915 21.837 56.6508 21.757 56.7398 21.727L62.3079 19.977C62.4266 19.937 62.5552 20.007 62.5849 20.127C62.6244 20.247 62.5552 20.377 62.4365 20.407L57.4024 21.997L60.231 23.457C60.3398 23.517 60.3893 23.647 60.3299 23.767C60.2805 23.837 60.2013 23.877 60.1222 23.877Z" fill="white"/>
<path d="M41.9739 36.737C41.9145 36.737 41.8552 36.717 41.8156 36.667C41.7266 36.577 41.7266 36.437 41.8156 36.347L56.6409 21.777C56.7299 21.687 56.8684 21.687 56.9574 21.777C57.0464 21.867 57.0464 22.007 56.9574 22.097L42.1321 36.667C42.0926 36.717 42.0332 36.737 41.9739 36.737Z" fill="white"/>
<path d="M81.8706 67.897C81.7915 67.897 81.7025 67.847 81.6728 67.767L73.0981 50.117C73.0387 50.007 73.0882 49.867 73.1969 49.817C73.3057 49.767 73.4442 49.807 73.4937 49.917L81.2376 65.847L77.4002 48.487C77.3706 48.367 77.4497 48.247 77.5684 48.217C77.6871 48.187 77.8057 48.267 77.8354 48.387L82.0882 67.617C82.1178 67.727 82.0486 67.847 81.9398 67.877C81.92 67.897 81.8904 67.897 81.8706 67.897Z" fill="white"/>
<path d="M81.8706 67.897C81.8211 67.897 81.7717 67.877 81.7321 67.847L64.3058 53.427C64.2068 53.347 64.197 53.207 64.2761 53.107C64.3552 53.007 64.4937 52.997 64.5926 53.077L80.3277 66.107L68.8651 51.717C68.786 51.617 68.8057 51.477 68.8948 51.397C68.9937 51.317 69.1321 51.337 69.2112 51.427L82.0387 67.527C82.1079 67.617 82.1079 67.747 82.0189 67.827C81.9794 67.877 81.9299 67.897 81.8706 67.897Z" fill="white"/>
<path d="M81.8706 67.897C81.8508 67.897 81.831 67.897 81.8112 67.887L63.2178 63.077C63.0991 63.047 63.02 62.917 63.0596 62.797C63.0892 62.677 63.2079 62.597 63.3365 62.637L80.0112 66.947L63.3365 58.257C63.2277 58.197 63.1783 58.067 63.2376 57.947C63.2969 57.837 63.4354 57.787 63.5442 57.847L81.9794 67.457C82.0783 67.507 82.1277 67.627 82.0882 67.737C82.0486 67.837 81.9596 67.897 81.8706 67.897Z" fill="white"/>
<path d="M62.9508 72.437C62.8519 72.437 62.753 72.367 62.7332 72.267C62.7035 72.147 62.7827 72.017 62.9013 71.997L80.1101 67.867L63.1189 67.507C62.9904 67.507 62.8915 67.397 62.9013 67.277C62.9013 67.147 63.0299 67.037 63.1288 67.057L81.8805 67.457C81.9893 67.457 82.0881 67.547 82.098 67.657C82.1079 67.767 82.0387 67.877 81.9299 67.907L63.0101 72.447C62.9805 72.437 62.9706 72.437 62.9508 72.437Z" fill="white"/>
<path d="M62.7728 77.557C62.6937 77.557 62.6145 77.507 62.575 77.427C62.5156 77.317 62.5651 77.177 62.6739 77.127L81.7717 67.467C81.8805 67.407 82.0189 67.457 82.0684 67.567C82.1277 67.677 82.0783 67.817 81.9695 67.867L62.8717 77.527C62.842 77.547 62.8123 77.557 62.7728 77.557Z" fill="white"/>
<path d="M70.8035 17.187C70.5662 17.187 68.5387 16.487 42.8838 7.63703C42.775 7.59703 42.7057 7.47703 42.7354 7.35703C42.7651 7.23703 42.8739 7.16704 42.9926 7.19704L70.2695 12.717C70.3882 12.737 70.4673 12.857 70.4475 12.987C70.4277 13.107 70.309 13.197 70.1805 13.167L46.2563 8.32704C53.5453 10.837 70.5761 16.717 70.764 16.777L70.6947 16.987L70.8233 17.177C70.8233 17.187 70.8233 17.187 70.8035 17.187Z" fill="white"/>
<path d="M71.2783 22.167C71.2387 22.167 71.1991 22.157 71.1695 22.137L64.9387 18.567C64.8299 18.507 64.7904 18.367 64.8497 18.257C64.909 18.147 65.0475 18.107 65.1563 18.167L71.3871 21.737C71.4958 21.797 71.5354 21.937 71.4761 22.047C71.4365 22.127 71.3574 22.167 71.2783 22.167Z" fill="white"/>
<path d="M71.9607 27.977C71.9013 27.977 71.8519 27.957 71.8024 27.917L66.9365 23.137C66.8475 23.047 66.8475 22.907 66.9365 22.817C67.0255 22.727 67.164 22.727 67.253 22.817L72.1189 27.597C72.2079 27.687 72.2079 27.827 72.1189 27.917C72.0794 27.957 72.02 27.977 71.9607 27.977Z" fill="white"/>
</svg>
