<svg width="87" height="84" viewBox="0 0 87 84" fill="none" xmlns="http://www.w3.org/2000/svg">
<path d="M36.5039 83.1741C36.3939 83.1741 36.2839 83.1341 36.1939 83.0541L22.6639 70.7241L5.8939 67.8141C5.7139 67.7841 5.57389 67.6441 5.53389 67.4741L0.0139057 44.2441C0.00390574 44.1841 -0.00610403 44.1241 0.00389597 44.0641L4.7139 17.3941C4.7339 17.2541 4.82389 17.1341 4.95389 17.0741L37.0339 0.0540961C37.1339 0.00409609 37.2439 -0.0159048 37.3539 0.0140952L72.4839 8.3541C72.5339 8.3641 72.5739 8.38409 72.6139 8.40409L80.3139 13.1141C80.3939 13.1641 80.4539 13.2341 80.4939 13.3141L86.3539 26.4841C86.3839 26.5541 86.3939 26.6241 86.3939 26.6941L83.6939 70.5541C83.6839 70.6741 83.6339 70.7841 83.5339 70.8641C83.4439 70.9441 83.3339 70.9941 83.2039 70.9741L60.1239 69.2641L36.7339 83.1041C36.6639 83.1541 36.5839 83.1741 36.5039 83.1741ZM6.34389 66.9741L22.9539 69.8541C23.0339 69.8641 23.1139 69.9041 23.1839 69.9641L36.5639 82.1541L59.7839 68.4141C59.8639 68.3641 59.9439 68.3441 60.0539 68.3541L82.8239 70.0441L85.4939 26.7541L79.7339 13.8241L72.2139 9.22409L37.3239 0.944095L5.59389 17.7741L0.933904 44.1341L6.34389 66.9741Z" fill="white"/>
<path d="M36.5039 83.1741C36.4739 83.1741 36.4439 83.1741 36.4139 83.1641C36.1639 83.1141 36.0039 82.8741 36.0539 82.6341L43.2439 45.2941C43.2639 45.1941 43.3139 45.1041 43.3939 45.0341L55.1239 34.8541C55.2539 34.7441 55.4239 34.7141 55.5839 34.7741C55.7439 34.8341 55.8539 34.9741 55.8739 35.1341L60.4739 68.7341C60.5039 68.9841 60.3339 69.2141 60.0839 69.2441C59.8339 69.2741 59.6039 69.1041 59.5739 68.8541L55.0839 36.0841L44.1139 45.6041L36.9539 82.7841C36.9039 83.0241 36.7139 83.1741 36.5039 83.1741Z" fill="white"/>
<path d="M5.16389 17.9241C4.93389 17.9241 4.73389 17.7441 4.71389 17.5041C4.69389 17.2541 4.88389 17.0341 5.13389 17.0141L15.3239 16.2241L36.9739 0.0940985C37.1739 -0.0559015 37.4639 -0.0159014 37.6139 0.184099C37.7639 0.384099 37.7239 0.674094 37.5239 0.824094L15.7639 17.0241C15.6939 17.0741 15.6139 17.1041 15.5239 17.1141L5.20388 17.9141C5.19388 17.9241 5.18389 17.9241 5.16389 17.9241Z" fill="white"/>
<path d="M43.6839 45.8341C43.6639 45.8341 43.6539 45.8341 43.6339 45.8341L15.9539 42.8941C15.7239 42.8741 15.5539 42.6841 15.5439 42.4541L15.0239 16.6841C15.0239 16.5041 15.1239 16.3441 15.2839 16.2641C15.4439 16.1841 15.6439 16.2141 15.7739 16.3341L28.6239 27.4541L44.0139 45.0941C44.1339 45.2341 44.1639 45.4341 44.0739 45.6041C44.0139 45.7441 43.8539 45.8341 43.6839 45.8341ZM16.4539 42.0241L42.5839 44.8041L27.9939 28.0841L15.9639 17.6741L16.4539 42.0241Z" fill="white"/>
<path d="M22.8739 70.5241C22.7739 70.5241 22.6739 70.4541 22.6539 70.3541L15.8339 42.6841L0.483898 44.3741C0.363898 44.3941 0.243898 44.2941 0.233898 44.1741C0.223898 44.0441 0.313895 43.9341 0.433895 43.9241L15.9839 42.2141C16.0939 42.1941 16.2039 42.2741 16.2339 42.3841L23.1039 70.2441C23.1339 70.3641 23.0639 70.4941 22.9339 70.5241C22.9139 70.5241 22.8939 70.5241 22.8739 70.5241Z" fill="white"/>
<path d="M55.4139 35.6541C55.2739 35.6541 55.1339 35.5841 55.0439 35.4741C54.9339 35.3241 54.9239 35.1141 55.0239 34.9541L71.1739 9.79409L28.5039 28.2041C28.2739 28.3041 28.0039 28.1941 27.9039 27.9641C27.8039 27.7341 27.9139 27.4641 28.1439 27.3641L72.1839 8.36409C72.3739 8.28409 72.5839 8.33409 72.7139 8.48409C72.8439 8.63409 72.8539 8.85409 72.7539 9.02409L56.4439 34.4341L85.8139 26.2241C86.0639 26.1541 86.3039 26.3041 86.3739 26.5441C86.4439 26.7841 86.3039 27.0341 86.0539 27.1041L55.5239 35.6441C55.4939 35.6541 55.4539 35.6541 55.4139 35.6541Z" fill="white"/>
<path d="M49.8139 75.0641C49.8039 75.0641 49.7939 75.0641 49.7839 75.0641C49.6639 75.0441 49.5739 74.9341 49.5939 74.8041L55.1939 35.1641C55.2139 35.0441 55.3039 34.9441 55.4439 34.9741C55.5639 34.9841 55.6539 35.0841 55.6539 35.2041L54.6139 72.1441C54.6139 72.2641 54.5139 72.3641 54.3839 72.3641C54.3839 72.3641 54.3839 72.3641 54.3739 72.3641C54.2439 72.3641 54.1539 72.2541 54.1539 72.1341L55.0839 39.2441L50.0539 74.8641C50.0239 74.9841 49.9239 75.0641 49.8139 75.0641Z" fill="white"/>
<path d="M37.8339 82.1541C37.8039 82.1541 37.7839 82.1541 37.7539 82.1441C37.6339 82.1041 37.5739 81.9641 37.6239 81.8541L55.2039 35.1341C55.2439 35.0241 55.3739 34.9641 55.4839 34.9941C55.6039 35.0341 55.6639 35.1541 55.6339 35.2641L45.0539 77.8441C45.0239 77.9641 44.9039 78.0441 44.7739 78.0141C44.6539 77.9841 44.5739 77.8641 44.6039 77.7341L54.2439 38.9441L38.0439 82.0141C38.0139 82.0941 37.9239 82.1541 37.8339 82.1541Z" fill="white"/>
<path d="M39.4639 67.5641C39.4339 67.5641 39.3939 67.5541 39.3639 67.5441C39.2539 67.4841 39.2039 67.3541 39.2639 67.2341L54.0939 37.3741L42.4339 53.0341C42.3539 53.1341 42.2139 53.1541 42.1139 53.0841C42.0139 53.0041 41.9939 52.8641 42.0639 52.7641L55.2339 35.0841C55.3039 34.9841 55.4339 34.9641 55.5339 35.0241C55.6339 35.0841 55.6739 35.2141 55.6139 35.3241L39.6639 67.4341C39.6239 67.5141 39.5439 67.5641 39.4639 67.5641Z" fill="white"/>
<path d="M62.0639 33.5741C62.0339 33.5741 62.0039 33.5641 61.9739 33.5541C61.8539 33.5041 61.8039 33.3741 61.8539 33.2541L72.1639 8.69409C72.2039 8.58409 72.3339 8.5241 72.4439 8.5641C72.5539 8.6041 72.6239 8.71409 72.5939 8.83409L67.1639 32.0241C67.1339 32.1441 67.0139 32.2241 66.8939 32.1941C66.7739 32.1641 66.6939 32.0441 66.7239 31.9241L71.5339 11.3741L62.2739 33.4341C62.2339 33.5141 62.1539 33.5741 62.0639 33.5741Z" fill="white"/>
<path d="M71.7839 30.8541C71.6539 30.8541 71.5539 30.7441 71.5539 30.6241L72.1439 8.7841C72.1439 8.6641 72.2339 8.5741 72.3539 8.5641C72.4839 8.5541 72.5739 8.6341 72.5939 8.7441L77.2539 29.1141C77.2839 29.2341 77.2039 29.3541 77.0839 29.3841C76.9539 29.4141 76.8439 29.3341 76.8139 29.2141L72.5639 10.5941L72.0239 30.6341C72.0039 30.7541 71.9039 30.8541 71.7839 30.8541Z" fill="white"/>
<path d="M81.2239 28.2141C81.1339 28.2141 81.0539 28.1641 81.0139 28.0841L72.1539 8.88409C72.1039 8.78409 72.1439 8.65409 72.2339 8.59409C72.3239 8.53409 72.4539 8.55409 72.5339 8.64409L84.3939 22.6941C84.4739 22.7941 84.4639 22.9341 84.3639 23.0141C84.2739 23.0941 84.1239 23.0841 84.0439 22.9841L73.2639 10.2141L81.4139 27.8841C81.4639 27.9941 81.4139 28.1341 81.3039 28.1841C81.2939 28.2041 81.2639 28.2141 81.2239 28.2141Z" fill="white"/>
</svg>
