<svg width="87" height="85" viewBox="0 0 87 85" fill="none" xmlns="http://www.w3.org/2000/svg">
<path d="M35.8689 84.4266C35.7689 84.4266 35.6789 84.3966 35.5989 84.3366L4.09892 60.8066C3.98892 60.7266 3.92893 60.6066 3.91893 60.4766L0.00892261 8.04657C-0.0110774 7.80657 0.158927 7.59657 0.388927 7.56657L47.0689 0.00656917C47.1289 -0.00343083 47.1889 -0.00343251 47.2489 0.0165675L85.9989 9.06657C86.1289 9.09657 86.2489 9.18657 86.3089 9.31657C86.3689 9.44657 86.3689 9.58657 86.3089 9.70657L74.0889 35.2166L84.4689 58.0666C84.5389 58.2166 84.5189 58.3966 84.4189 58.5266L69.8189 77.7266C69.7489 77.8166 69.6489 77.8766 69.5389 77.8966L35.9689 84.4166C35.9289 84.4266 35.8989 84.4266 35.8689 84.4266ZM4.80891 60.2066L35.9889 83.4966L69.1989 77.0566L83.5289 58.2066L73.1789 35.4066C73.1189 35.2866 73.1289 35.1466 73.1789 35.0266L85.2389 9.83657L47.1289 0.936569L0.948925 8.40657L4.80891 60.2066Z" fill="white"/>
<path d="M68.2889 20.4366C68.2689 20.4366 68.2489 20.4366 68.2189 20.4366L39.9389 16.1966L0.368884 8.46657C0.118884 8.41657 -0.0411014 8.17657 0.0088986 7.93657C0.0588986 7.68657 0.298897 7.52657 0.538897 7.57657L40.0889 15.2966L68.1889 19.5166L85.6389 9.12657C85.8489 8.99657 86.1389 9.06657 86.2589 9.28657C86.3889 9.50657 86.3189 9.78657 86.0989 9.90657L68.5089 20.3766C68.4589 20.4166 68.3789 20.4366 68.2889 20.4366Z" fill="white"/>
<path d="M35.8689 84.4266C35.6589 84.4266 35.4689 84.2766 35.4189 84.0566L28.2889 47.7666C28.2689 47.6866 28.2789 47.6066 28.3089 47.5266L39.5789 15.5766C39.6589 15.3366 39.9189 15.2166 40.1589 15.2966C40.3989 15.3766 40.5189 15.6366 40.4389 15.8766L29.2089 47.7066L36.3089 83.8766C36.3589 84.1266 36.1989 84.3666 35.9489 84.4066C35.9289 84.4266 35.8989 84.4266 35.8689 84.4266Z" fill="white"/>
<path d="M69.4489 77.9166C69.3089 77.9166 69.1789 77.8566 69.0889 77.7366L54.4889 58.8766C54.3989 58.7566 54.3689 58.5966 54.4189 58.4466L67.8689 19.8266C67.9489 19.5866 68.2189 19.4566 68.4489 19.5466C68.6889 19.6266 68.8089 19.8866 68.7289 20.1266L55.3589 58.5166L69.8089 77.1766C69.9589 77.3766 69.9289 77.6566 69.7289 77.8166C69.6389 77.8866 69.5389 77.9166 69.4489 77.9166Z" fill="white"/>
<path d="M54.8389 59.0566C54.7789 59.0566 54.7189 59.0466 54.6589 59.0166L28.5589 48.0966C28.3289 47.9966 28.2189 47.7366 28.3189 47.4966C28.4189 47.2666 28.6789 47.1566 28.9189 47.2566L54.6989 58.0466L73.2289 34.9266C73.3889 34.7266 73.6789 34.6966 73.8689 34.8566C74.0689 35.0166 74.0989 35.2966 73.9389 35.4966L55.1989 58.8866C55.1089 58.9966 54.9789 59.0566 54.8389 59.0566Z" fill="white"/>
<path d="M54.8389 58.8266C54.7989 58.8266 54.7689 58.8166 54.7289 58.7966C54.6189 58.7366 54.5789 58.6066 54.6289 58.4966L75.2089 15.6266C75.2589 15.5166 75.3989 15.4666 75.5089 15.5166C75.6189 15.5666 75.6689 15.7066 75.6189 15.8166L57.7589 53.0166L81.2289 12.0266C81.2889 11.9166 81.4289 11.8766 81.5389 11.9466C81.6489 12.0066 81.6889 12.1466 81.6189 12.2566L55.0189 58.7066C54.9989 58.7866 54.9189 58.8266 54.8389 58.8266Z" fill="white"/>
<path d="M54.8389 58.8266C54.7989 58.8266 54.7489 58.8166 54.7089 58.7866C54.6089 58.7166 54.5789 58.5766 54.6489 58.4666L80.6789 19.8466C80.7489 19.7366 80.8889 19.7166 80.9989 19.7866C81.0989 19.8566 81.1289 19.9966 81.0589 20.1066L55.0289 58.7266C54.9889 58.7966 54.9189 58.8266 54.8389 58.8266Z" fill="white"/>
<path d="M84.0489 58.4866C83.9989 58.4866 83.9489 58.4666 83.8989 58.4366L66.6489 43.8566C66.5489 43.7766 66.5389 43.6366 66.6189 43.5366C66.6989 43.4366 66.8489 43.4266 66.9389 43.5066L82.5989 56.7466L69.7589 39.8966C69.6789 39.7966 69.6989 39.6566 69.7989 39.5766C69.8989 39.4966 70.0389 39.5166 70.1189 39.6166L84.2189 58.1266C84.2889 58.2166 84.2789 58.3466 84.1989 58.4266C84.1589 58.4666 84.0989 58.4866 84.0489 58.4866Z" fill="white"/>
<path d="M84.0489 58.4866C84.0289 58.4866 84.0089 58.4866 83.9789 58.4766L60.7689 51.3466C60.6489 51.3066 60.5789 51.1866 60.6189 51.0666C60.6589 50.9466 60.7889 50.8766 60.8989 50.9166L81.8989 57.3766L63.7289 47.5866C63.6189 47.5266 63.5789 47.3866 63.6389 47.2766C63.6989 47.1666 63.8389 47.1266 63.9489 47.1866L84.1589 58.0766C84.2589 58.1366 84.3089 58.2566 84.2589 58.3666C84.2189 58.4366 84.1389 58.4866 84.0489 58.4866Z" fill="white"/>
<path d="M55.5289 59.7266C55.4089 59.7266 55.3089 59.6266 55.2989 59.5066C55.2989 59.3766 55.3889 59.2766 55.5189 59.2666L81.5089 58.1366L57.9489 54.9066C57.8289 54.8866 57.7389 54.7766 57.7589 54.6466C57.7789 54.5266 57.8789 54.4366 58.0189 54.4566L84.0889 58.0266C84.2089 58.0466 84.2889 58.1466 84.2889 58.2666C84.2789 58.3866 84.1889 58.4766 84.0689 58.4866L55.5289 59.7266C55.5389 59.7266 55.5389 59.7266 55.5289 59.7266Z" fill="white"/>
<path d="M67.4289 75.0766C67.3689 75.0766 67.3089 75.0566 67.2689 75.0066C67.1789 74.9166 67.1789 74.7766 67.2689 74.6866L82.2289 59.7466L64.7889 71.4566C64.6889 71.5266 64.5389 71.4966 64.4689 71.3966C64.3989 71.2966 64.4289 71.1466 64.5289 71.0766L83.9189 58.0566C84.0189 57.9866 84.1489 58.0066 84.2189 58.0966C84.2889 58.1866 84.2889 58.3166 84.2089 58.4066L67.5889 74.9966C67.5389 75.0566 67.4789 75.0766 67.4289 75.0766Z" fill="white"/>
<path d="M59.0989 79.6966C59.0389 79.6966 58.9789 79.6766 58.9289 79.6266L28.5789 47.8366C28.4989 47.7466 28.4989 47.6066 28.5789 47.5266C28.6589 47.4366 28.7989 47.4266 28.8889 47.5066L65.1289 78.1466C65.2289 78.2266 65.2389 78.3666 65.1589 78.4666C65.0789 78.5666 64.9289 78.5766 64.8389 78.4966L31.8589 50.6066L59.2689 79.3066C59.3589 79.3966 59.3489 79.5466 59.2589 79.6266C59.2089 79.6766 59.1489 79.6966 59.0989 79.6966Z" fill="white"/>
<path d="M66.0289 73.2766C65.9889 73.2766 65.9389 73.2666 65.8989 73.2366L28.6089 47.8666C28.5089 47.7966 28.4789 47.6666 28.5389 47.5566C28.5989 47.4566 28.7289 47.4166 28.8389 47.4766L58.8389 63.4966L83.9889 58.0366C84.0989 58.0166 84.2189 58.0766 84.2489 58.1866C84.2889 58.2966 84.2289 58.4166 84.1289 58.4666L62.2289 68.2366C62.1189 68.2866 61.9789 68.2366 61.9289 68.1166C61.8789 67.9966 61.9289 67.8666 62.0489 67.8166L81.9389 58.9366L58.8589 63.9466C58.8089 63.9566 58.7489 63.9466 58.6989 63.9266L32.3689 49.8666L66.1489 72.8466C66.2489 72.9166 66.2789 73.0566 66.2089 73.1666C66.1789 73.2466 66.0989 73.2766 66.0289 73.2766Z" fill="white"/>
<path d="M46.8589 82.0666C46.7789 82.0666 46.6989 82.0266 46.6589 81.9466L28.5389 47.7866C28.4789 47.6766 28.5189 47.5466 28.6189 47.4866C28.7189 47.4266 28.8489 47.4466 28.9189 47.5466L53.1489 80.5266C53.2189 80.6266 53.1989 80.7666 53.0989 80.8466C52.9989 80.9166 52.8589 80.8966 52.7789 80.7966L30.3889 50.3266L47.0489 81.7366C47.1089 81.8466 47.0689 81.9866 46.9589 82.0466C46.9389 82.0566 46.8989 82.0666 46.8589 82.0666Z" fill="white"/>
<path d="M41.5989 83.0966C41.5089 83.0966 41.4189 83.0366 41.3889 82.9466L28.5289 47.7666C28.4889 47.6466 28.5489 47.5166 28.6689 47.4766C28.7789 47.4366 28.9189 47.4966 28.9589 47.6166L41.8189 82.7966C41.8589 82.9166 41.7989 83.0466 41.6789 83.0866C41.6489 83.0866 41.6289 83.0966 41.5989 83.0966Z" fill="white"/>
</svg>
