<svg width="85" height="71" viewBox="0 0 85 71" fill="none" xmlns="http://www.w3.org/2000/svg">
<path d="M51.151 70.4303C51.031 70.4303 50.911 70.3803 50.821 70.2903L43.821 62.7803L2.851 53.3203C2.641 53.2703 2.491 53.0703 2.501 52.8503L4.05101 21.7803L0.0110064 2.18034C-0.0189936 2.05034 0.0110028 1.91034 0.101003 1.81034C0.181003 1.70034 0.310999 1.64034 0.440999 1.64034L20.621 1.04034L45.711 0.000343323L45.941 0.0103455L53.761 0.370346H75.871L83.831 0.820343C84.001 0.830343 84.151 0.930345 84.221 1.08035C84.291 1.23035 84.271 1.41035 84.171 1.55035L69.891 20.2303V47.7803C69.891 47.8403 69.881 47.9003 69.851 47.9603L64.731 59.8103C64.701 59.8803 64.651 59.9403 64.591 59.9903L51.421 70.3303C51.351 70.4003 51.251 70.4303 51.151 70.4303ZM51.201 69.3603L63.951 59.3503L68.981 47.7003V20.0803C68.981 19.9803 69.011 19.8803 69.071 19.8003L82.921 1.67034L75.841 1.27034H53.731L46.101 0.920341L16.981 32.6703L51.201 69.3603ZM3.42101 52.5203L42.711 61.5903L16.041 32.9803C15.881 32.8103 15.881 32.5403 16.041 32.3603L44.871 0.940346L20.651 1.94035L1.01101 2.52034L4.95101 21.6503C4.96101 21.6903 4.96102 21.7303 4.96102 21.7603L3.42101 52.5203Z" fill="white"/>
<path d="M51.151 70.4303C50.921 70.4303 50.731 70.2603 50.701 70.0303L45.871 32.3203L45.461 0.460342C45.461 0.210342 45.661 0.000343057 45.911 0.000343057C46.111 -0.00965694 46.371 0.20034 46.371 0.45034L46.771 32.2603L51.591 69.9203C51.621 70.1703 51.451 70.4003 51.201 70.4303C51.191 70.4303 51.171 70.4303 51.151 70.4303Z" fill="white"/>
<path d="M20.661 28.4503C20.611 28.4503 20.551 28.4403 20.501 28.4203L4.34103 22.1703C4.11103 22.0803 3.99102 21.8203 4.08102 21.5803C4.17102 21.3503 4.44102 21.2303 4.67102 21.3203L20.831 27.5703C21.061 27.6603 21.181 27.9203 21.091 28.1603C21.011 28.3403 20.841 28.4503 20.661 28.4503Z" fill="white"/>
<path d="M22.451 57.8303C22.241 57.8303 22.061 57.6903 22.011 57.4803L15.931 32.7703C15.871 32.5303 16.021 32.2803 16.261 32.2203C16.501 32.1603 16.751 32.3103 16.811 32.5503L22.891 57.2603C22.951 57.5003 22.801 57.7503 22.561 57.8103C22.521 57.8303 22.491 57.8303 22.451 57.8303Z" fill="white"/>
<path d="M31.101 17.0603C30.951 17.0603 30.811 16.9903 30.721 16.8503L20.841 1.70034C20.701 1.49034 20.761 1.21034 20.971 1.07034C21.181 0.930344 21.461 0.990341 21.601 1.20034L31.481 16.3503C31.621 16.5603 31.561 16.8403 31.351 16.9803C31.271 17.0403 31.181 17.0603 31.101 17.0603Z" fill="white"/>
<path d="M46.321 32.7203C46.121 32.7203 45.931 32.5903 45.881 32.3803C45.811 32.1403 45.961 31.8903 46.201 31.8203L59.381 28.3103L69.131 19.7303C69.321 19.5603 69.611 19.5803 69.771 19.7703C69.941 19.9603 69.921 20.2503 69.731 20.4103L59.901 29.0603C59.851 29.1103 59.781 29.1403 59.721 29.1603L46.441 32.7003C46.401 32.7203 46.361 32.7203 46.321 32.7203Z" fill="white"/>
<path d="M64.311 60.0903C64.091 60.0903 63.891 59.9303 63.861 59.7003L59.151 28.8003C59.141 28.7203 59.151 28.6303 59.181 28.5603L63.101 19.2003L57.961 20.2403C57.721 20.2803 57.471 20.1303 57.421 19.8803C57.371 19.6303 57.531 19.3903 57.781 19.3403L63.761 18.1303C63.921 18.0903 64.091 18.1603 64.201 18.2903C64.311 18.4203 64.331 18.6003 64.271 18.7503L60.061 28.7803L64.761 59.5603C64.801 59.8103 64.631 60.0403 64.381 60.0803C64.361 60.0903 64.341 60.0903 64.311 60.0903Z" fill="white"/>
<path d="M53.621 30.7803C53.561 30.7803 53.511 30.7703 53.451 30.7503C53.221 30.6603 53.101 30.3904 53.201 30.1604L57.261 20.1103L46.001 17.0603C45.761 16.9903 45.611 16.7403 45.681 16.5003C45.751 16.2603 45.991 16.1103 46.241 16.1803L57.991 19.3603C58.121 19.3903 58.221 19.4803 58.281 19.6003C58.341 19.7203 58.341 19.8503 58.291 19.9703L54.041 30.5003C53.971 30.6703 53.801 30.7803 53.621 30.7803Z" fill="white"/>
<path d="M57.881 20.2503C57.671 20.2503 57.481 20.1003 57.441 19.8903L53.301 0.920339C53.251 0.670339 53.401 0.430338 53.651 0.380338C53.901 0.320338 54.141 0.480344 54.191 0.730344L58.331 19.7003C58.381 19.9503 58.231 20.1903 57.981 20.2403C57.941 20.2403 57.911 20.2503 57.881 20.2503Z" fill="white"/>
<path d="M63.851 19.0403C63.761 19.0403 63.681 19.0203 63.601 18.9603C63.391 18.8203 63.331 18.5403 63.471 18.3303L75.201 0.560342C75.341 0.350342 75.621 0.290345 75.831 0.430345C76.041 0.570345 76.101 0.850342 75.961 1.06034L64.231 18.8303C64.151 18.9703 64.001 19.0403 63.851 19.0403Z" fill="white"/>
<path d="M42.291 62.1903C42.241 62.1903 42.201 62.1803 42.161 62.1503L19.461 45.9503C19.361 45.8803 19.331 45.7303 19.411 45.6303C19.481 45.5303 19.621 45.5003 19.731 45.5803L39.561 59.7303L17.881 39.5803C17.791 39.4903 17.781 39.3503 17.871 39.2603C17.961 39.1703 18.101 39.1703 18.191 39.2503L42.461 61.8003C42.551 61.8803 42.561 62.0203 42.481 62.1103C42.431 62.1603 42.361 62.1903 42.291 62.1903Z" fill="white"/>
<path d="M42.021 61.9903C41.991 61.9903 41.961 61.9903 41.941 61.9703L21.471 53.9003C21.351 53.8503 21.301 53.7203 21.341 53.6103C21.391 53.4903 21.521 53.4303 21.631 53.4803L38.721 60.2104L20.551 50.2803C20.441 50.2203 20.401 50.0803 20.461 49.9703C20.521 49.8603 20.661 49.8203 20.771 49.8803L42.131 61.5503C42.241 61.6103 42.281 61.7403 42.231 61.8503C42.191 61.9403 42.101 61.9903 42.021 61.9903Z" fill="white"/>
<path d="M59.411 63.7103C59.311 63.7103 59.221 63.6403 59.191 63.5403L50.931 31.0303C50.901 30.9103 50.971 30.7903 51.081 30.7603C51.191 30.7203 51.321 30.7803 51.361 30.9003L62.691 60.9903C62.731 61.1103 62.681 61.2403 62.561 61.2803C62.441 61.3203 62.311 61.2703 62.271 61.1503L52.381 34.8803L59.631 63.4203C59.661 63.5403 59.591 63.6703 59.461 63.7003C59.451 63.7103 59.431 63.7103 59.411 63.7103Z" fill="white"/>
<path d="M55.361 66.8903C55.251 66.8903 55.151 66.8003 55.131 66.6903L51.221 33.6203L49.871 58.3003C49.861 58.4203 49.761 58.5103 49.641 58.5103H49.631C49.501 58.5003 49.411 58.4003 49.421 58.2703L50.921 30.9503C50.931 30.8303 51.021 30.7403 51.141 30.7403C51.141 30.7403 51.141 30.7403 51.151 30.7403C51.271 30.7403 51.361 30.8303 51.381 30.9403L55.591 66.6303C55.611 66.7504 55.521 66.8703 55.391 66.8803C55.381 66.8904 55.371 66.8903 55.361 66.8903Z" fill="white"/>
<path d="M47.991 45.5203C47.971 45.5203 47.961 45.5203 47.941 45.5203C47.821 45.4903 47.741 45.3703 47.771 45.2503L50.611 32.4103L47.281 38.2603C47.221 38.3703 47.081 38.4103 46.971 38.3403C46.861 38.2803 46.821 38.1403 46.891 38.0303L50.971 30.8803C51.021 30.7803 51.141 30.7403 51.251 30.7803C51.351 30.8203 51.411 30.9303 51.391 31.0403L48.231 45.3503C48.191 45.4503 48.091 45.5203 47.991 45.5203Z" fill="white"/>
<path d="M63.291 53.1303C63.201 53.1303 63.111 53.0703 63.081 52.9803C62.851 52.4803 55.061 38.4603 50.951 31.0903C50.891 30.9903 50.921 30.8603 51.021 30.7903C51.111 30.7203 51.251 30.7403 51.321 30.8303L62.021 43.3103C62.101 43.4103 62.091 43.5503 62.001 43.6303C61.901 43.7103 61.761 43.7003 61.681 43.6103L52.451 32.8403C63.491 52.6903 63.511 52.8103 63.521 52.8603C63.541 52.9803 63.451 53.1003 63.331 53.1203C63.311 53.1303 63.301 53.1303 63.291 53.1303Z" fill="white"/>
<path d="M60.801 36.8103C60.761 36.8103 60.721 36.8003 60.691 36.7803L51.041 31.1803C50.941 31.1203 50.901 31.0103 50.941 30.9003C50.981 30.8003 51.081 30.7303 51.191 30.7603L60.241 32.4503C60.361 32.4703 60.451 32.5903 60.421 32.7203C60.401 32.8403 60.291 32.9303 60.151 32.9003L52.391 31.4603L60.901 36.4003C61.011 36.4604 61.051 36.6003 60.981 36.7103C60.951 36.7703 60.881 36.8103 60.801 36.8103Z" fill="white"/>
<path d="M64.751 24.4203C64.711 24.4203 64.661 24.4103 64.631 24.3803C64.591 24.3503 64.551 24.3303 64.561 24.1903H64.521L64.481 17.2703C64.481 17.1403 64.581 17.0403 64.711 17.0403C64.841 17.0403 64.941 17.1403 64.941 17.2703L64.971 22.5703C65.471 20.8803 66.531 17.5403 68.651 10.9103C68.691 10.7903 68.811 10.7303 68.941 10.7603C69.061 10.8003 69.131 10.9303 69.091 11.0503C67.501 16.0203 65.121 23.5203 64.981 24.1703V24.1903C64.981 24.2603 64.951 24.3203 64.901 24.3603C64.861 24.4003 64.811 24.4203 64.751 24.4203Z" fill="white"/>
<path d="M64.751 24.4203C64.701 24.4203 64.651 24.4003 64.611 24.3703L62.181 22.4203C62.081 22.3403 62.071 22.2003 62.141 22.1003C62.221 22.0003 62.361 21.9903 62.461 22.0603L64.681 23.8403L77.471 0.800345C77.531 0.690345 77.671 0.650341 77.781 0.710341C77.891 0.770341 77.931 0.910339 77.871 1.02034L64.951 24.3003C64.921 24.3603 64.861 24.4003 64.791 24.4103C64.781 24.4203 64.771 24.4203 64.751 24.4203Z" fill="white"/>
<path d="M61.201 25.1403C61.091 25.1403 61.001 25.0703 60.981 24.9603C60.951 24.8403 61.031 24.7203 61.161 24.6903L64.631 23.9903L81.461 1.01034C81.541 0.910343 81.6811 0.89034 81.7811 0.96034C81.8811 1.03034 81.901 1.18034 81.831 1.28034L64.951 24.3303C64.921 24.3703 64.871 24.4103 64.8111 24.4203L61.261 25.1403C61.231 25.1403 61.211 25.1403 61.201 25.1403Z" fill="white"/>
</svg>
