<svg width="84" height="77" viewBox="0 0 84 77" fill="none" xmlns="http://www.w3.org/2000/svg">
<path d="M51.4201 76.6614C51.3801 76.6614 51.3401 76.6614 51.3101 76.6514L23.3701 69.4914L0.340064 63.4514C0.210064 63.4114 0.100076 63.3214 0.040076 63.2014C-0.019924 63.0714 -0.00994473 62.9314 0.0500553 62.8114L13.6601 36.4414L3.46006 13.3014C3.41006 13.1814 3.41007 13.0414 3.47007 12.9214C3.53007 12.8014 3.64006 12.7114 3.77006 12.6814L24.3501 7.51139L52.8601 0.0413868C52.9101 0.0313868 52.9601 0.0213771 53.0101 0.0313771L83.48 2.56138C83.72 2.58138 83.9101 2.79139 83.9001 3.04139L81.1401 59.7814C81.1301 59.9414 81.05 60.0814 80.91 60.1514L51.6501 76.6214C51.5801 76.6414 51.5001 76.6614 51.4201 76.6614ZM1.13007 62.7114L23.6001 68.6014L51.3601 75.7114L80.2401 59.4514L82.97 3.40139L53.0201 0.911382L24.5801 8.36138L4.52006 13.4014L14.5901 36.2514C14.6501 36.3814 14.6401 36.5214 14.5801 36.6414L1.13007 62.7114Z" fill="white"/>
<path d="M51.4201 76.6614C51.18 76.6614 50.9801 76.4714 50.9701 76.2314L49.6801 54.8414L52.5301 0.431388C52.5401 0.181388 52.7701 -0.01862 53.0101 0.00137999C53.2601 0.01138 53.4501 0.231391 53.4401 0.481391L50.5901 54.8414L51.8801 76.1714C51.9001 76.4214 51.7 76.6414 51.45 76.6514C51.44 76.6614 51.43 76.6614 51.4201 76.6614Z" fill="white"/>
<path d="M23.49 69.5014C23.47 69.5014 23.4601 69.5014 23.4401 69.5014C23.1901 69.4714 23.01 69.2514 23.0301 69.0014L25.1901 48.3014L24.0101 7.95137C24.0001 7.70137 24.2 7.49138 24.45 7.48138H24.46C24.71 7.48138 24.91 7.68137 24.92 7.92137L26.1001 48.3314L23.9401 69.0914C23.9101 69.3214 23.71 69.5014 23.49 69.5014Z" fill="white"/>
<path d="M50.1301 55.2714C50.0901 55.2714 50.0501 55.2714 50.0101 55.2614L25.52 48.7914C25.44 48.7714 25.37 48.7314 25.31 48.6614L13.84 36.7614C13.67 36.5814 13.6701 36.2914 13.8501 36.1214C14.0301 35.9514 14.32 35.9514 14.49 36.1314L25.87 47.9414L50.24 54.3714C50.48 54.4314 50.63 54.6814 50.56 54.9314C50.52 55.1414 50.3301 55.2714 50.1301 55.2714Z" fill="white"/>
<path d="M15.7001 67.2314C15.6001 67.2314 15.5001 67.1614 15.4801 67.0614C15.4501 66.9414 15.5301 66.8114 15.6501 66.7814L23.6401 64.8514L20.0701 42.8414C20.0501 42.7214 20.1301 42.6014 20.2601 42.5814C20.3801 42.5614 20.5001 42.6414 20.5201 42.7714L24.1201 64.9914C24.1401 65.1114 24.0601 65.2214 23.9501 65.2514L15.7501 67.2314C15.7401 67.2314 15.7201 67.2314 15.7001 67.2314Z" fill="white"/>
<path d="M23.9001 65.2514C23.8201 65.2514 23.7401 65.2114 23.7001 65.1314L11.2401 41.8314C11.1801 41.7214 11.2201 41.5814 11.3301 41.5214C11.4401 41.4614 11.5801 41.5014 11.6401 41.6114L23.0101 62.8714L15.4801 38.0914C15.4401 37.9714 15.5101 37.8414 15.6301 37.8114C15.7601 37.7714 15.8801 37.8414 15.9101 37.9614L24.1101 64.9514C24.1401 65.0614 24.09 65.1814 23.9801 65.2314C23.9601 65.2514 23.9301 65.2514 23.9001 65.2514Z" fill="white"/>
<path d="M23.9001 65.2514C23.8601 65.2514 23.8101 65.2414 23.7701 65.2114L5.73004 52.7314C5.63004 52.6614 5.60005 52.5214 5.67005 52.4114C5.74005 52.3114 5.88005 52.2814 5.99005 52.3514L22.6501 63.8714L8.58005 47.0714C8.50005 46.9714 8.51005 46.8314 8.61005 46.7514C8.71005 46.6714 8.85006 46.6814 8.93006 46.7814L24.0701 64.8714C24.1401 64.9614 24.1401 65.0914 24.0601 65.1714C24.0301 65.2314 23.9701 65.2514 23.9001 65.2514Z" fill="white"/>
<path d="M23.9001 65.2514L5.85008 64.6514C5.72008 64.6514 5.63008 64.5414 5.63008 64.4114C5.63008 64.2814 5.74007 64.1814 5.87007 64.1914L22.3701 64.7414L2.99006 58.1714C2.87006 58.1314 2.81008 58.0014 2.85008 57.8814C2.89008 57.7614 3.02006 57.7014 3.14006 57.7414L23.9801 64.8014C24.0901 64.8414 24.1501 64.9514 24.1301 65.0614C24.1101 65.1814 24.0101 65.2514 23.9001 65.2514Z" fill="white"/>
</svg>
