<svg width="87" height="78" viewBox="0 0 87 78" fill="none" xmlns="http://www.w3.org/2000/svg">
<path d="M43.6912 77.4895C43.6812 77.4895 43.6812 77.4895 43.6712 77.4895L0.431208 75.4195C0.301208 75.4095 0.171182 75.3495 0.0911815 75.2395C0.0111815 75.1295 -0.0188356 74.9895 0.0111644 74.8595L14.6112 11.1595C14.6312 11.0695 14.6812 10.9895 14.7412 10.9295L26.2412 0.119527C26.3812 -0.0104726 26.6012 -0.0404778 26.7812 0.0595222L79.6712 29.8395C79.7912 29.9095 79.8712 30.0195 79.8912 30.1595L86.5611 67.1795C86.6012 67.4195 86.4512 67.6495 86.2112 67.6995L43.8012 77.4695C43.7512 77.4895 43.7212 77.4895 43.6912 77.4895ZM1.01116 74.5395L43.6512 76.5795L85.5812 66.9195L79.0312 30.5295L26.6212 1.01953L15.4712 11.4995L1.01116 74.5395Z" fill="white"/>
<path d="M43.6912 77.4895C43.6312 77.4895 43.5712 77.4795 43.5112 77.4495C43.2812 77.3495 43.1712 77.0795 43.2712 76.8495L61.4812 34.8195L14.8412 11.6795C14.6112 11.5695 14.5212 11.2995 14.6312 11.0695C14.7412 10.8395 15.0212 10.7495 15.2412 10.8595L62.2712 34.1995C62.4912 34.3095 62.5812 34.5695 62.4912 34.7895L44.1112 77.2195C44.0312 77.3895 43.8612 77.4895 43.6912 77.4895Z" fill="white"/>
<path d="M62.0712 35.0695C61.8712 35.0695 61.6811 34.9295 61.6311 34.7295C61.5711 34.4895 61.7212 34.2395 61.9612 34.1795L79.3212 29.8095C79.5611 29.7495 79.8112 29.8995 79.8712 30.1395C79.9312 30.3795 79.7812 30.6295 79.5412 30.6895L62.1812 35.0595C62.1512 35.0595 62.1112 35.0695 62.0712 35.0695Z" fill="white"/>
<path d="M0.441166 75.1995C0.371166 75.1995 0.291163 75.1595 0.251163 75.0995C0.181163 74.9995 0.211161 74.8495 0.311161 74.7795L49.3512 42.1295L26.3412 0.569528C26.2812 0.459528 26.3212 0.31953 26.4312 0.25953C26.5412 0.19953 26.6812 0.239526 26.7412 0.349526L49.8512 42.0895C49.9112 42.1895 49.8812 42.3195 49.7812 42.3895L0.57117 75.1595C0.53117 75.1795 0.491166 75.1995 0.441166 75.1995Z" fill="white"/>
<path d="M86.1012 67.4895C86.0612 67.4895 86.0112 67.4795 85.9712 67.4495L49.5212 42.3895C49.4212 42.3195 49.3912 42.1795 49.4612 42.0695C49.5312 41.9695 49.6712 41.9395 49.7812 42.0095L86.2312 67.0695C86.3312 67.1395 86.3612 67.2795 86.2912 67.3895C86.2412 67.4595 86.1712 67.4895 86.1012 67.4895Z" fill="white"/>
<path d="M44.5812 45.7995C44.4912 45.7995 44.4012 45.7495 44.3712 45.6595L26.3312 0.549529C26.2812 0.429529 26.3412 0.299526 26.4612 0.249526C26.5812 0.199526 26.7112 0.259523 26.7612 0.379523L44.8012 45.4895C44.8512 45.6095 44.7912 45.7395 44.6712 45.7895C44.6412 45.7995 44.6112 45.7995 44.5812 45.7995Z" fill="white"/>
<path d="M36.3612 51.2795C36.2512 51.2795 36.1612 51.1995 36.1412 51.0995L26.3312 0.509533C26.3112 0.389533 26.3912 0.269528 26.5112 0.239528C26.6412 0.219528 26.7512 0.299529 26.7812 0.419529L36.5912 51.0095C36.6112 51.1295 36.5312 51.2495 36.4112 51.2795C36.3812 51.2795 36.3712 51.2795 36.3612 51.2795Z" fill="white"/>
<path d="M9.90116 68.8995C9.88116 68.8995 9.86118 68.8995 9.85118 68.8895C9.73118 68.8595 9.65119 68.7395 9.68119 68.6195L26.3211 0.409533C26.3511 0.289533 26.4612 0.219528 26.5812 0.239528C26.7012 0.259528 26.7812 0.369533 26.7712 0.479533L21.6412 61.0195C21.6312 61.1395 21.5412 61.2395 21.3912 61.2295C21.2612 61.2195 21.1712 61.1095 21.1812 60.9795L26.0611 3.35953L10.1112 68.7195C10.0912 68.8295 10.0012 68.8995 9.90116 68.8995Z" fill="white"/>
<path d="M7.04122 46.4195C7.01122 46.4195 6.98119 46.4095 6.95119 46.3995C6.83119 46.3495 6.7812 46.2195 6.8312 46.0995L25.2612 2.88953L12.6712 22.6095C12.6012 22.7195 12.4612 22.7495 12.3612 22.6795C12.2512 22.6095 12.2212 22.4695 12.2912 22.3695L26.3612 0.339532C26.4212 0.239532 26.5512 0.20953 26.6612 0.25953C26.7612 0.31953 26.8112 0.439531 26.7612 0.549531L7.26119 46.2795C7.21119 46.3695 7.13122 46.4195 7.04122 46.4195Z" fill="white"/>
</svg>
