<svg width="87" height="61" viewBox="0 0 87 61" fill="none" xmlns="http://www.w3.org/2000/svg">
<path d="M36.3435 60.0186C36.2335 60.0186 36.1335 59.9786 36.0535 59.9186L0.173479 30.1386C-0.016521 29.9886 -0.0465381 29.7086 0.0934619 29.5186L18.0435 5.13857C18.1135 5.03857 18.2235 4.96857 18.3435 4.95857L54.3335 0.0185665C54.3834 0.00856645 54.4335 0.0185665 54.4835 0.0185665L79.4334 4.84857C79.6234 4.88857 79.7735 5.03857 79.7935 5.22857L86.8035 52.4886C86.8435 52.7186 86.6834 52.9486 86.4534 52.9986L65.0634 58.0586L36.3635 60.0286C36.3635 60.0186 36.3535 60.0186 36.3435 60.0186ZM1.07344 29.7086L36.4835 59.0986L64.9334 57.1586L85.8435 52.2086L78.9334 5.68856L54.3734 0.938565L18.6535 5.84857L1.07344 29.7086Z" fill="white"/>
<path d="M0.453442 30.2486C0.293442 30.2486 0.133479 30.1586 0.0534787 30.0086C-0.0665213 29.7886 0.0234201 29.5086 0.24342 29.3886L46.0134 5.00857C46.0834 4.96857 46.1535 4.95857 46.2235 4.95857L79.3335 4.83857C79.5835 4.83857 79.7835 5.03857 79.7935 5.28857C79.7935 5.53857 79.5935 5.74857 79.3435 5.74857L46.3435 5.86857L0.673474 30.1886C0.603474 30.2286 0.533442 30.2486 0.453442 30.2486Z" fill="white"/>
<path d="M64.9634 58.0686C64.7534 58.0686 64.5534 57.9186 64.5134 57.6986L54.0535 1.19857L46.4534 5.79857C46.3834 5.83857 46.3034 5.86857 46.2134 5.86857H18.3934C18.1434 5.86857 17.9334 5.66857 17.9334 5.40857C17.9334 5.15857 18.1334 4.94857 18.3934 4.94857H46.0934L54.1434 0.0685707C54.2734 -0.0114293 54.4334 -0.0214281 54.5634 0.0385719C54.7034 0.0985719 54.7934 0.228566 54.8234 0.368566L65.4034 57.5086C65.4534 57.7586 65.2835 57.9886 65.0435 58.0386C65.0235 58.0686 64.9934 58.0686 64.9634 58.0686Z" fill="white"/>
<path d="M36.3434 59.7986C36.3034 59.7986 36.2634 59.7886 36.2234 59.7686C36.1134 59.6986 36.0834 59.5586 36.1534 59.4586L51.2134 35.1986C51.2734 35.0986 51.4034 35.0686 51.5034 35.1186L86.4534 52.3686C86.5634 52.4286 86.6135 52.5586 86.5535 52.6686C86.4935 52.7786 86.3634 52.8286 86.2534 52.7686L51.4835 35.6086L36.5334 59.6886C36.4934 59.7586 36.4134 59.7986 36.3434 59.7986Z" fill="white"/>
<path d="M51.4034 35.5386C51.3534 35.5386 51.2934 35.5186 51.2534 35.4786L18.2534 5.58857C18.1634 5.50857 18.1535 5.35857 18.2335 5.26857C18.3235 5.17857 18.4635 5.16858 18.5535 5.24858L51.5535 35.1386C51.6435 35.2186 51.6534 35.3686 51.5734 35.4586C51.5234 35.5086 51.4634 35.5386 51.4034 35.5386Z" fill="white"/>
<path d="M31.9534 56.1586C31.8934 56.1586 31.8435 56.1386 31.7935 56.0986C31.7035 56.0086 31.6934 55.8686 31.7834 55.7786L49.5634 36.9286L27.9235 52.6586C27.8235 52.7286 27.6835 52.7086 27.6035 52.6086C27.5335 52.5086 27.5534 52.3686 27.6534 52.2886L51.2734 35.1286C51.3634 35.0586 51.5034 35.0786 51.5734 35.1586C51.6534 35.2486 51.6534 35.3786 51.5734 35.4686L32.1234 56.0886C32.0734 56.1286 32.0134 56.1586 31.9534 56.1586Z" fill="white"/>
<path d="M23.2735 48.9586C23.1835 48.9586 23.1034 48.9086 23.0634 48.8286C23.0134 48.7186 23.0535 48.5786 23.1735 48.5286L48.8635 36.2686L18.4635 44.9086C18.3335 44.9486 18.2134 44.8686 18.1834 44.7486C18.1534 44.6286 18.2235 44.4986 18.3435 44.4686L51.3435 35.0886C51.4635 35.0586 51.5734 35.1186 51.6234 35.2286C51.6634 35.3386 51.6134 35.4586 51.5034 35.5186L23.3734 48.9386C23.3434 48.9486 23.3135 48.9586 23.2735 48.9586Z" fill="white"/>
<path d="M13.8134 41.1086C13.7034 41.1086 13.6034 41.0286 13.5834 40.9186C13.5634 40.7986 13.6534 40.6786 13.7734 40.6586L47.4235 35.6686L8.78345 36.9386H8.77344C8.65344 36.9386 8.55346 36.8386 8.54346 36.7186C8.54346 36.5886 8.63343 36.4886 8.76343 36.4786L51.3734 35.0786C51.5134 35.0686 51.5935 35.1686 51.6035 35.2886C51.6135 35.4086 51.5335 35.5186 51.4135 35.5386L13.8334 41.1086C13.8434 41.0986 13.8234 41.1086 13.8134 41.1086Z" fill="white"/>
<path d="M51.4034 35.5386L51.3934 35.5386L4.02342 32.9886C3.89342 32.9786 3.8034 32.8786 3.8134 32.7486C3.8234 32.6286 3.92344 32.5386 4.04344 32.5386H4.05345L47.0535 34.8586L2.13341 27.7086C2.01341 27.6886 1.9234 27.5686 1.9434 27.4486C1.9634 27.3286 2.07341 27.2486 2.20341 27.2586L51.4434 35.0986C51.5634 35.1186 51.6434 35.2286 51.6334 35.3486C51.6134 35.4486 51.5134 35.5386 51.4034 35.5386Z" fill="white"/>
<path d="M51.4034 35.5386C51.3834 35.5386 51.3635 35.5386 51.3435 35.5286L5.28348 23.3786C5.16348 23.3486 5.09344 23.2186 5.12344 23.0986C5.15344 22.9786 5.28347 22.8986 5.40347 22.9386L48.3935 34.2786L9.39346 17.7586C9.27346 17.7086 9.22347 17.5786 9.27347 17.4586C9.32347 17.3386 9.45345 17.2886 9.57345 17.3386L51.5034 35.0986C51.6134 35.1486 51.6635 35.2686 51.6335 35.3786C51.5835 35.4786 51.4934 35.5386 51.4034 35.5386Z" fill="white"/>
<path d="M51.4034 35.5386C51.3634 35.5386 51.3234 35.5286 51.2934 35.5086L12.4234 13.5986C12.3134 13.5386 12.2734 13.3986 12.3334 13.2886C12.3934 13.1786 12.5334 13.1386 12.6434 13.1986L48.1534 33.2186L15.5034 9.35857C15.4034 9.28857 15.3834 9.13857 15.4534 9.03857C15.5234 8.93857 15.6734 8.91857 15.7734 8.98857L51.5434 35.1286C51.6434 35.1986 51.6634 35.3386 51.6034 35.4386C51.5534 35.4986 51.4734 35.5386 51.4034 35.5386Z" fill="white"/>
</svg>
