<svg width="88" height="85" viewBox="0 0 88 85" fill="none" xmlns="http://www.w3.org/2000/svg">
<path d="M52.78 84.2839C52.69 84.2839 52.59 84.2539 52.51 84.1939L28.36 66.4539L9.29999 65.7639C9.04999 65.7539 8.84999 65.5439 8.85999 65.2939L9.65997 40.6539L0.0300293 11.7639C0.0100293 11.7139 0 11.6639 0 11.6039C0 11.5939 0 11.5939 0 11.5839C0.01 11.3839 0.150017 11.2239 0.330017 11.1739L24.58 3.70394L39.6 1.73394L61.25 3.07394L74.05 0.0139379C74.13 -0.00606214 74.21 -0.00606 74.29 0.02394L87.17 4.04394C87.29 4.08394 87.38 4.16394 87.44 4.27394C87.5 4.38394 87.51 4.50394 87.47 4.62394L79.13 30.3439L87.92 53.6539C87.96 53.7639 87.96 53.8839 87.91 53.9939L81.59 68.8239C81.55 68.9139 81.48 68.9939 81.39 69.0439L52.99 84.2239C52.93 84.2739 52.85 84.2839 52.78 84.2839ZM9.78998 64.8839L28.54 65.5539C28.63 65.5539 28.72 65.5839 28.79 65.6439L52.82 83.2939L80.83 68.3239L87.02 53.8039L78.23 30.5139C78.19 30.4139 78.19 30.3139 78.22 30.2139L86.47 4.78393L74.15 0.943938L61.42 3.98394C61.41 3.98394 61.41 3.98394 61.4 3.98394L46.81 7.46393L33.51 11.7539L63.31 8.64394C63.44 8.63393 63.56 8.67394 63.65 8.75394C63.75 8.83394 63.8 8.95394 63.81 9.08394L65.76 53.9239C65.77 54.1039 65.67 54.2739 65.5 54.3539C65.34 54.4339 65.14 54.4039 65 54.2839L43.67 35.7739C43.64 35.7439 43.61 35.7139 43.59 35.6739L28.95 13.1039L1.09998 12.1039L10.55 40.4539C10.57 40.5039 10.58 40.5539 10.57 40.6139L9.78998 64.8839ZM44.33 35.1239L64.81 52.8939L62.93 9.59394L30 13.0339L44.33 35.1239ZM3.16998 11.2739L29.15 12.2039L46.57 6.59394L58.24 3.81394L39.65 2.65394L24.79 4.60394L3.16998 11.2739Z" fill="white"/>
<path d="M28.52 66.4639C28.45 66.4639 28.38 66.4439 28.31 66.4139C28.09 66.3039 28 66.0239 28.11 65.8039L43.18 36.0039L10.19 41.0439C9.95997 41.0739 9.70996 40.9139 9.66996 40.6639C9.62996 40.4139 9.79996 40.1839 10.05 40.1439L43.9099 34.9739C44.0799 34.9539 44.25 35.0139 44.3499 35.1539C44.4499 35.2939 44.47 35.4739 44.39 35.6239L28.93 66.2039C28.84 66.3739 28.68 66.4639 28.52 66.4639Z" fill="white"/>
<path d="M52.78 84.2839C52.72 84.2839 52.66 84.2739 52.6 84.2439C52.37 84.1439 52.26 83.8839 52.36 83.6439L64.89 53.7439L71.18 41.9239L78.03 30.2939C78.16 30.0739 78.44 30.0039 78.65 30.1339C78.87 30.2639 78.94 30.5439 78.81 30.7539L71.97 42.3639L65.71 54.1339L53.2 83.9939C53.13 84.1839 52.96 84.2839 52.78 84.2839Z" fill="white"/>
<path d="M81.18 69.1139C80.99 69.1139 80.82 68.9939 80.75 68.8139L71.15 42.3139C71.13 42.2539 71.12 42.1939 71.12 42.1339L73.64 1.47394L63.63 9.45394C63.43 9.61394 63.15 9.58394 62.99 9.38394C62.83 9.18394 62.86 8.90394 63.06 8.74394L73.87 0.12394C74.01 0.0139395 74.2 -0.00605972 74.36 0.0739403C74.52 0.15394 74.62 0.323941 74.6 0.503941L72.02 42.0839L81.59 68.4939C81.68 68.7339 81.55 68.9939 81.32 69.0739C81.28 69.1039 81.23 69.1139 81.18 69.1139Z" fill="white"/>
<path d="M46.7 7.48394C46.68 7.48394 46.66 7.48394 46.64 7.48394L24.66 4.60394C24.41 4.57395 24.23 4.34394 24.27 4.09394C24.3 3.84394 24.54 3.67394 24.78 3.70394L46.76 6.58394C47.01 6.61394 47.19 6.84394 47.15 7.09394C47.12 7.31394 46.93 7.48394 46.7 7.48394Z" fill="white"/>
<path d="M59.08 80.6939C59.06 80.6939 59.03 80.6939 59.01 80.6839C58.89 80.6439 58.83 80.5139 58.86 80.3939L71.36 42.0839C71.4 41.9639 71.53 41.9039 71.65 41.9339C71.77 41.9739 71.83 42.1039 71.8 42.2239L59.3 80.5339C59.26 80.6339 59.17 80.6939 59.08 80.6939Z" fill="white"/>
<path d="M66.51 76.7239C66.5 76.7239 66.49 76.7239 66.48 76.7239C66.36 76.7039 66.27 76.5939 66.29 76.4639L71.36 42.1239C71.38 42.0039 71.49 41.9239 71.62 41.9339C71.74 41.9539 71.83 42.0639 71.81 42.1939L66.74 76.5339C66.71 76.6439 66.62 76.7239 66.51 76.7239Z" fill="white"/>
<path d="M72.27 73.6439C72.15 73.6439 72.05 73.5439 72.04 73.4239L71.35 42.1639C71.35 42.0339 71.45 41.9339 71.57 41.9339C71.69 41.9539 71.8 42.0339 71.8 42.1539L72.49 73.4139C72.5 73.5439 72.4 73.6439 72.27 73.6439Z" fill="white"/>
<path d="M76.78 71.2339C76.67 71.2339 76.58 71.1539 76.56 71.0439L71.35 42.1939C71.33 42.0739 71.41 41.9539 71.53 41.9339C71.67 41.9139 71.77 41.9939 71.79 42.1139L77 70.9639C77.02 71.0839 76.94 71.2039 76.82 71.2239C76.81 71.2339 76.8 71.2339 76.78 71.2339Z" fill="white"/>
<path d="M71.58 42.3839C71.57 42.3839 71.56 42.3839 71.54 42.3839C71.41 42.3639 71.33 42.2439 71.35 42.1239L77.77 1.64394C77.79 1.52394 77.91 1.44394 78.03 1.45394C78.16 1.47394 78.24 1.59394 78.22 1.71394L71.8 42.1939C71.78 42.3039 71.69 42.3839 71.58 42.3839Z" fill="white"/>
<path d="M71.58 42.3839C71.56 42.3839 71.54 42.3839 71.52 42.3739C71.4 42.3339 71.33 42.2139 71.37 42.0939L82.84 3.19394C82.88 3.07394 83 3.00394 83.12 3.04394C83.24 3.08394 83.31 3.20394 83.27 3.32394L71.8 42.2239C71.77 42.3139 71.68 42.3839 71.58 42.3839Z" fill="white"/>
<path d="M43.98 35.6539C43.92 35.6539 43.86 35.6339 43.81 35.5839L22.68 12.5939C22.6 12.5039 22.6 12.3539 22.69 12.2739C22.78 12.1939 22.93 12.1939 23.01 12.2839L44.14 35.2739C44.22 35.3639 44.22 35.5139 44.13 35.5939C44.09 35.6339 44.04 35.6539 43.98 35.6539Z" fill="white"/>
<path d="M43.71 35.3639C43.66 35.3639 43.61 35.3439 43.57 35.3139L15.38 12.3439C15.28 12.2639 15.27 12.1239 15.35 12.0239C15.43 11.9239 15.57 11.9139 15.67 11.9939L43.86 34.9539C43.96 35.0339 43.97 35.1739 43.89 35.2739C43.84 35.3339 43.78 35.3639 43.71 35.3639Z" fill="white"/>
<path d="M43.98 35.6539C43.94 35.6539 43.9 35.6439 43.86 35.6139L7.35998 12.0639C7.24998 11.9939 7.21997 11.8539 7.28997 11.7539C7.35997 11.6439 7.49997 11.6239 7.59997 11.6839L44.1 35.2339C44.21 35.3039 44.24 35.4439 44.17 35.5439C44.13 35.6139 44.06 35.6539 43.98 35.6539Z" fill="white"/>
<path d="M43.71 35.3639C43.68 35.3639 43.64 35.3539 43.61 35.3439L1.04996 13.8939C0.939965 13.8339 0.889989 13.7039 0.949989 13.5839C1.00999 13.4739 1.13999 13.4239 1.25999 13.4839L43.82 34.9339C43.93 34.9939 43.98 35.1239 43.92 35.2439C43.87 35.3139 43.79 35.3639 43.71 35.3639Z" fill="white"/>
<path d="M43.71 35.3639C43.69 35.3639 43.6699 35.3639 43.66 35.3539L5.09 25.8739C4.97 25.8439 4.88996 25.7239 4.91996 25.5939C4.94996 25.4739 5.06999 25.3939 5.19999 25.4239L43.77 34.9039C43.89 34.9339 43.97 35.0539 43.94 35.1839C43.91 35.2939 43.81 35.3639 43.71 35.3639Z" fill="white"/>
<path d="M71.64 42.1539C71.61 42.1539 71.58 42.1439 71.55 42.1339C71.43 42.0839 71.38 41.9539 71.43 41.8339L84.83 10.5439C84.88 10.4239 85.01 10.3739 85.13 10.4239C85.25 10.4739 85.3 10.6039 85.25 10.7239L71.85 42.0139C71.82 42.1039 71.73 42.1539 71.64 42.1539Z" fill="white"/>
<path d="M43.98 35.6539C43.97 35.6539 43.96 35.6539 43.95 35.6539L6.73997 30.7639C6.60997 30.7439 6.52996 30.6339 6.53996 30.5139C6.55996 30.3839 6.67996 30.2939 6.78996 30.3139L42.04 34.9439L3.24998 20.4339C3.12998 20.3939 3.06998 20.2639 3.11998 20.1439C3.15998 20.0239 3.28996 19.9639 3.40996 20.0139L44.07 35.2239C44.18 35.2639 44.24 35.3839 44.21 35.4939C44.18 35.5839 44.09 35.6539 43.98 35.6539Z" fill="white"/>
<path d="M43.98 35.6539H8.40002C8.27002 35.6539 8.16998 35.5539 8.16998 35.4239C8.16998 35.2939 8.27002 35.1939 8.40002 35.1939H43.98C44.11 35.1939 44.21 35.2939 44.21 35.4239C44.21 35.5539 44.11 35.6539 43.98 35.6539Z" fill="white"/>
</svg>
