<svg width="87" height="78" viewBox="0 0 87 78" fill="none" xmlns="http://www.w3.org/2000/svg">
<path d="M44.1998 77.35C44.1698 77.35 44.1398 77.35 44.1098 77.34L5.45975 69.71C5.25976 69.67 5.10975 69.5 5.08975 69.29L3.87975 49.2L0.009758 32.29C-0.000242004 32.25 -0.000244141 32.2 -0.000244141 32.16L1.54976 6.55C1.55976 6.34 1.70975 6.17 1.90975 6.13L31.7498 0.00999451C31.7898 -5.49294e-06 31.8198 0 31.8598 0L64.0198 1.03C64.2398 1.04 64.4298 1.2 64.4598 1.42C64.4898 1.64 64.3597 1.85 64.1497 1.92L61.9098 2.63L78.1797 3.45C78.4197 3.46 78.6098 3.65999 78.6098 3.89999V22.92L81.3598 19.97C81.4698 19.85 81.6398 19.8 81.8098 19.84C81.9698 19.88 82.0998 20.01 82.1398 20.17L86.6497 38.47C86.6697 38.55 86.6698 38.63 86.6398 38.71L81.5098 55.5C81.4997 55.53 81.4898 55.56 81.4698 55.59L72.7398 70.92C72.6498 71.09 72.4598 71.18 72.2698 71.14L52.3298 67.76L44.5598 77.17C44.4598 77.29 44.3298 77.35 44.1998 77.35ZM5.96976 68.88L44.0098 76.39L51.7698 66.98C51.8698 66.85 52.0398 66.8 52.1998 66.82L72.0798 70.19L80.6298 55.18L85.7098 38.55L81.4398 21.19L78.4798 24.37C78.3498 24.51 78.1598 24.55 77.9798 24.48C77.8098 24.41 77.6898 24.24 77.6898 24.06V4.31L59.3198 3.38C59.0998 3.37 58.9198 3.2 58.8898 2.98C58.8598 2.76 58.9898 2.55001 59.1998 2.49001L61.3098 1.83L31.8698 0.880005L2.42976 6.92L0.899757 32.12L4.76975 49.04L5.96976 68.88Z" fill="white"/>
<path d="M44.1998 77.35C43.9498 77.35 43.7398 77.15 43.7398 76.89V55.03C43.7398 54.9 43.7998 54.77 43.8998 54.69C43.9998 54.6 44.1298 54.56 44.2598 54.58L66.3098 57.7V34.51L67.4297 16.98C67.4297 16.92 67.4498 16.85 67.4798 16.8L73.0798 6.02C73.1198 5.93 73.1898 5.87 73.2798 5.82L77.9398 3.49C78.1698 3.38 78.4398 3.47 78.5498 3.69C78.6598 3.91 78.5698 4.19 78.3498 4.3L73.8298 6.55999L68.3398 17.12L67.2198 34.53V58.21C67.2198 58.34 67.1598 58.47 67.0598 58.55C66.9598 58.64 66.8298 58.68 66.6998 58.66L44.6498 55.54V76.88C44.6498 77.14 44.4498 77.35 44.1998 77.35Z" fill="white"/>
<path d="M67.8898 17.46C67.8398 17.46 67.7898 17.45 67.7398 17.43L43.2398 8.83L21.3898 7.8L1.98975 7.02C1.73975 7.01 1.53976 6.8 1.54976 6.55C1.55976 6.31 1.75976 6.11 2.00976 6.11C2.01976 6.11 2.01976 6.11 2.02976 6.11L21.4298 6.89L43.3498 7.93001C43.3898 7.93001 43.4398 7.94001 43.4798 7.96001L68.0498 16.58C68.2898 16.66 68.4098 16.92 68.3298 17.16C68.2498 17.34 68.0798 17.46 67.8898 17.46Z" fill="white"/>
<path d="M72.3298 71.16C72.0697 71.16 71.8697 70.95 71.8697 70.7L72.0697 51.78L67.1298 58.49C66.9798 58.69 66.6998 58.74 66.4898 58.59C66.2898 58.44 66.2397 58.16 66.3897 57.95L72.1697 50.1C72.2897 49.94 72.4897 49.87 72.6797 49.94C72.8697 50 72.9898 50.18 72.9898 50.38L72.7698 70.71C72.7798 70.96 72.5798 71.16 72.3298 71.16Z" fill="white"/>
<path d="M44.1998 55.26C44.0798 55.26 43.9698 55.16 43.9698 55.04L43.0998 8.39C43.0998 8.29 43.1598 8.2 43.2498 8.17L58.0598 3.14999L23.6398 2.36C23.5098 2.36 23.4098 2.25 23.4198 2.13C23.4198 2.01 23.5198 1.91 23.6498 1.91L59.3498 2.73C59.4598 2.73 59.5498 2.81 59.5698 2.92C59.5898 3.03 59.5198 3.13 59.4198 3.17L43.5498 8.55L44.4198 55.04C44.4298 55.15 44.3298 55.26 44.1998 55.26Z" fill="white"/>
<path d="M23.6498 73.06C23.5298 73.06 23.4298 72.96 23.4198 72.84L22.8598 51.93L19.3097 34.32C19.3097 34.3 19.2997 34.28 19.3097 34.25L21.7898 7.34C21.7998 7.24 21.8698 7.16 21.9598 7.14L46.9198 0.699998C47.0397 0.669998 47.1697 0.740002 47.1997 0.860002C47.2298 0.980002 47.1598 1.11 47.0398 1.14L22.2397 7.53999L19.7798 34.25L23.3198 51.87L23.8797 72.82C23.8797 72.95 23.7798 73.06 23.6498 73.06Z" fill="white"/>
<path d="M72.5498 50.6C72.5098 50.6 72.4698 50.59 72.4398 50.57C72.3698 50.53 72.3197 50.45 72.3197 50.37L73.2598 6.44L14.1998 4.28999C14.0698 4.28999 13.9798 4.18 13.9798 4.05C13.9798 3.93 14.0898 3.83 14.2098 3.83H14.2198L73.4998 5.99001C73.6298 5.99001 73.7198 6.1 73.7198 6.22L72.7798 49.95L82.4998 43.76L85.9998 38.45C86.0698 38.35 86.2097 38.32 86.3197 38.38C86.4297 38.45 86.4498 38.59 86.3898 38.7L82.8598 44.05C82.8398 44.08 82.8197 44.1 82.7897 44.12L72.6698 50.56C72.6298 50.59 72.5898 50.6 72.5498 50.6Z" fill="white"/>
<path d="M52.1298 67.51C52.1198 67.51 52.1098 67.51 52.0998 67.51C52.0398 67.5 51.9798 67.46 51.9398 67.41L44.0598 55.25L4.29976 49.4C4.17976 49.38 4.08975 49.27 4.10975 49.14C4.12975 49.01 4.23976 48.93 4.36976 48.95L44.2298 54.81C44.2898 54.82 44.3498 54.86 44.3898 54.91L52.1798 66.94L63.3698 57.59C63.4598 57.51 63.6098 57.52 63.6898 57.62C63.7698 57.72 63.7598 57.86 63.6598 57.94L52.2698 67.45C52.2298 67.49 52.1798 67.51 52.1298 67.51Z" fill="white"/>
<path d="M76.9998 62.73C76.9798 62.73 76.9597 62.73 76.9297 62.72C76.8097 62.68 76.7398 62.56 76.7798 62.44L82.4198 43.94L78.0098 24.52L66.9198 34.69C66.8698 34.73 66.7998 34.75 66.7398 34.75L43.7397 32.42L19.5498 34.52L0.419752 32.42C0.289752 32.41 0.199755 32.29 0.219755 32.17C0.229755 32.04 0.349755 31.95 0.469755 31.97L19.5598 34.07L43.7397 31.97L66.6797 34.29L77.9898 23.92C78.0498 23.87 78.1298 23.84 78.2098 23.87C78.2898 23.89 78.3498 23.96 78.3598 24.04L82.8698 43.9C82.8798 43.94 82.8798 43.98 82.8698 44.02L77.2098 62.58C77.1898 62.66 77.0998 62.73 76.9998 62.73Z" fill="white"/>
<path d="M68.7698 55.73C68.7598 55.73 68.7498 55.73 68.7298 55.73C68.5998 55.71 68.5198 55.59 68.5398 55.47L72.2598 32.02L66.6598 50.45C66.6198 50.57 66.4998 50.63 66.3798 50.6C66.2598 50.56 66.1898 50.44 66.2298 50.32L72.7898 28.73C72.8198 28.62 72.9398 28.54 73.0598 28.57C73.1798 28.6 73.2498 28.71 73.2298 28.83L68.9998 55.54C68.9798 55.65 68.8898 55.73 68.7698 55.73Z" fill="white"/>
<path d="M66.7698 40.62C66.7298 40.62 66.6998 40.61 66.6598 40.59C66.5498 40.53 66.5098 40.39 66.5698 40.28L72.8098 28.67C72.8698 28.56 73.0098 28.52 73.1198 28.58C73.2298 28.64 73.2698 28.78 73.2098 28.89L66.9698 40.5C66.9298 40.58 66.8498 40.62 66.7698 40.62Z" fill="white"/>
<path d="M52.1298 67.51C52.1098 67.51 52.0798 67.51 52.0598 67.5L44.1298 64.91C44.0098 64.87 43.9498 64.74 43.9798 64.62C44.0198 64.5 44.1498 64.44 44.2698 64.47L51.2698 66.75L44.0398 59.73C43.9498 59.64 43.9498 59.5 44.0398 59.41C44.1298 59.32 44.2698 59.32 44.3598 59.41L52.2898 67.11C52.3698 67.18 52.3798 67.3 52.3298 67.39C52.2798 67.47 52.2098 67.51 52.1298 67.51Z" fill="white"/>
<path d="M17.8898 51.39C17.8798 51.39 17.8798 51.39 17.8698 51.39C17.7398 51.38 17.6498 51.27 17.6698 51.14L19.1898 35.7L12.7698 50.47C12.7198 50.59 12.5798 50.64 12.4698 50.59C12.3498 50.54 12.2998 50.41 12.3498 50.29L19.3498 34.19C19.3998 34.09 19.5098 34.04 19.6198 34.06C19.7298 34.09 19.7998 34.19 19.7898 34.3L18.1298 51.18C18.0998 51.3 17.9998 51.39 17.8898 51.39Z" fill="white"/>
<path d="M7.16976 49.81C7.11976 49.81 7.06976 49.79 7.02976 49.76C6.92976 49.68 6.91976 49.54 6.99976 49.44L18.3598 35.39L3.63976 45.69C3.53976 45.76 3.38976 45.74 3.31976 45.63C3.24976 45.53 3.26975 45.38 3.37975 45.31L19.4198 34.09C19.5198 34.03 19.6398 34.04 19.7198 34.12C19.7998 34.2 19.7998 34.33 19.7298 34.42L7.35976 49.73C7.29976 49.78 7.23976 49.81 7.16976 49.81Z" fill="white"/>
<path d="M2.22975 40.18C2.12975 40.18 2.04975 40.12 2.00975 40.02C1.96975 39.9 2.03975 39.77 2.14975 39.73L17.7697 34.61L1.18975 35.64C1.05975 35.63 0.959749 35.55 0.949749 35.43C0.939749 35.3 1.03975 35.2 1.15975 35.19L19.5098 34.06C19.5998 34.06 19.7298 34.13 19.7498 34.24C19.7698 34.35 19.7098 34.46 19.5998 34.5L2.28975 40.17C2.27975 40.17 2.24975 40.18 2.22975 40.18Z" fill="white"/>
<path d="M44.1998 71.53C44.1198 71.53 44.0398 71.48 43.9998 71.4C43.9398 71.29 43.9898 71.15 44.0998 71.09L52.0298 67.07C52.1398 67.01 52.2798 67.06 52.3398 67.17C52.3998 67.28 52.3498 67.42 52.2398 67.48L44.3098 71.5C44.2698 71.52 44.2298 71.53 44.1998 71.53Z" fill="white"/>
</svg>
