<svg width="86" height="70" viewBox="0 0 86 70" fill="none" xmlns="http://www.w3.org/2000/svg">
<path d="M68.6698 69.47C68.6398 69.47 68.6198 69.47 68.5898 69.46L12.4498 59.8C12.2998 59.77 12.1798 59.68 12.1098 59.54L0.0397571 33.24C-0.0402429 33.06 -0.000247762 32.84 0.159752 32.71L37.5798 0.109985C37.6598 0.0399854 37.7698 0 37.8798 0H84.7898C84.9298 0 85.0698 0.0699927 85.1498 0.179993C85.2398 0.289993 85.2598 0.439987 85.2197 0.579987L74.2497 39.42L82.6398 50.1C82.7698 50.26 82.7698 50.49 82.6498 50.65L76.7898 58.58L69.0298 69.27C68.9498 69.4 68.8098 69.47 68.6698 69.47ZM12.8398 58.95L68.4598 68.52L76.0498 58.06L81.7098 50.4L73.3898 39.81C73.2998 39.7 73.2698 39.55 73.3098 39.4L84.1798 0.919998H38.0398L0.999749 33.18L12.8398 58.95Z" fill="white"/>
<path d="M76.4298 58.78C76.3098 58.78 76.1898 58.73 76.0998 58.64L62.3898 44.67C62.2798 44.56 62.2398 44.4 62.2698 44.25L71.2398 5.95999C71.2698 5.81999 71.3698 5.7 71.4998 5.64L84.6098 0.0399921C84.8398 -0.0600079 85.1098 0.0499976 85.2098 0.279998C85.3098 0.509998 85.1998 0.779988 84.9698 0.879988L72.0698 6.39L63.2098 44.21L76.7498 58C76.9298 58.18 76.9198 58.47 76.7398 58.64C76.6598 58.74 76.5398 58.78 76.4298 58.78Z" fill="white"/>
<path d="M68.6698 69.47C68.5798 69.47 68.4898 69.44 68.4098 69.39L31.4998 43.61C31.3998 43.54 31.3298 43.43 31.3098 43.31C31.2898 43.19 31.3198 43.07 31.3898 42.97L52.7798 13.13C52.8298 13.06 52.8998 13 52.9798 12.97L71.5198 5.64C71.7498 5.54 72.0198 5.65999 72.1098 5.89999C72.1998 6.12999 72.0898 6.39999 71.8498 6.48999L53.4298 13.77L32.3898 43.12L68.9198 68.64C69.1298 68.78 69.1798 69.07 69.0298 69.27C68.9498 69.41 68.8098 69.47 68.6698 69.47Z" fill="white"/>
<path d="M62.7197 44.81C62.7097 44.81 62.7098 44.81 62.6998 44.81L31.7398 43.69C31.4898 43.68 31.2898 43.47 31.2998 43.22C31.3098 42.97 31.4698 42.77 31.7698 42.78L62.6198 43.9L73.5598 39.11C73.7898 39.01 74.0598 39.11 74.1598 39.34C74.2598 39.57 74.1598 39.84 73.9298 39.94L62.8898 44.77C62.8398 44.8 62.7797 44.81 62.7197 44.81Z" fill="white"/>
<path d="M0.459784 33.51C0.279784 33.51 0.0997913 33.4 0.0297913 33.21C-0.0602087 32.97 0.0597803 32.71 0.29978 32.62L52.9898 12.96C53.2298 12.87 53.4898 12.99 53.5798 13.23C53.6698 13.47 53.5498 13.73 53.3098 13.82L0.619788 33.48C0.559788 33.51 0.509784 33.51 0.459784 33.51Z" fill="white"/>
<path d="M52.3098 44.21C52.2298 44.21 52.1498 44.17 52.1098 44.09C52.0598 43.99 52.0898 43.87 52.1798 43.8L64.8398 34.58C64.9398 34.51 65.0798 34.53 65.1598 34.63C65.2298 34.73 65.2098 34.87 65.1098 34.95L53.6898 43.27L63.6698 39.79C63.7898 39.75 63.9198 39.81 63.9598 39.93C63.9998 40.05 63.9398 40.18 63.8198 40.22L52.3898 44.2C52.3598 44.2 52.3298 44.21 52.3098 44.21Z" fill="white"/>
<path d="M52.3098 44.21C52.2698 44.21 52.2198 44.2 52.1798 44.17C52.0798 44.1 52.0498 43.97 52.1098 43.87L70.0098 12.25C70.0698 12.14 70.2098 12.1 70.3198 12.16C70.4298 12.22 70.4697 12.36 70.4098 12.47L53.7398 41.91L66.7098 26.39C66.7898 26.29 66.9298 26.28 67.0298 26.36C67.1298 26.44 67.1398 26.58 67.0598 26.68L52.4798 44.12C52.4398 44.18 52.3698 44.21 52.3098 44.21Z" fill="white"/>
<path d="M52.3098 44.21C52.2898 44.21 52.2598 44.21 52.2398 44.2C52.1298 44.16 52.0598 44.05 52.0898 43.93L59.5998 10.71C59.6298 10.59 59.7498 10.51 59.8698 10.54C59.9898 10.57 60.0698 10.69 60.0398 10.81L53.1198 41.44L67.1198 7.7C67.1698 7.58 67.2998 7.52999 67.4198 7.57999C67.5398 7.62999 67.5898 7.75999 67.5398 7.87999L52.5198 44.07C52.4798 44.15 52.3998 44.21 52.3098 44.21Z" fill="white"/>
<path d="M52.3098 44.21C52.1898 44.21 52.0898 44.11 52.0798 44L50.4997 16.78C50.4897 16.65 50.5898 16.55 50.7098 16.54C50.8398 16.54 50.9398 16.63 50.9498 16.75L52.3698 41.25L55.5298 12.34C55.5398 12.21 55.6598 12.12 55.7798 12.14C55.9098 12.15 55.9998 12.27 55.9798 12.39L52.5198 44.01C52.5198 44.12 52.4298 44.21 52.3098 44.21Z" fill="white"/>
<path d="M52.3098 44.21C52.2298 44.21 52.1498 44.17 52.1098 44.09L42.9798 27.4C42.9198 27.29 42.9598 27.15 43.0698 27.09C43.1798 27.03 43.3198 27.07 43.3798 27.18L51.6198 42.25L46.4698 22.44C46.4398 22.32 46.5098 22.19 46.6298 22.16C46.7598 22.13 46.8798 22.2 46.9098 22.32L52.5198 43.91C52.5498 44.02 52.4898 44.14 52.3798 44.18C52.3698 44.2 52.3398 44.21 52.3098 44.21Z" fill="white"/>
<path d="M52.3098 44.21C52.2698 44.21 52.2298 44.2 52.1998 44.18L37.2798 35.58C37.1698 35.52 37.1298 35.38 37.1998 35.27C37.2598 35.16 37.4098 35.12 37.5098 35.19L50.9998 42.97L39.9898 31.71C39.8998 31.62 39.8998 31.48 39.9898 31.39C40.0798 31.3 40.2198 31.3 40.3098 31.39L52.4798 43.83C52.5598 43.91 52.5698 44.04 52.4998 44.13C52.4398 44.18 52.3798 44.21 52.3098 44.21Z" fill="white"/>
<path d="M52.3098 44.21C52.2898 44.21 52.2698 44.21 52.2498 44.2L34.7498 39.2C34.6298 39.17 34.5598 39.04 34.5898 38.92C34.6198 38.8 34.7498 38.73 34.8698 38.76L52.3698 43.76C52.4898 43.79 52.5598 43.92 52.5298 44.04C52.4998 44.14 52.4098 44.21 52.3098 44.21Z" fill="white"/>
<path d="M78.8098 46.19C78.7998 46.19 78.7998 46.19 78.7898 46.19L62.6898 44.58C62.5698 44.57 62.4898 44.47 62.4798 44.35C62.4798 44.23 62.5698 44.14 62.6798 44.12L76.3198 42.61C76.4598 42.6 76.5598 42.69 76.5698 42.81C76.5798 42.94 76.4898 43.05 76.3698 43.06L64.8698 44.33L78.8198 45.73C78.9498 45.74 79.0398 45.85 79.0198 45.98C79.0298 46.1 78.9298 46.19 78.8098 46.19Z" fill="white"/>
<path d="M80.2498 53.38C80.2198 53.38 80.1798 53.37 80.1498 53.36L62.6198 44.56C62.5198 44.51 62.4698 44.39 62.5098 44.28C62.5498 44.17 62.6598 44.11 62.7798 44.14L81.1998 48.71C81.3198 48.74 81.3998 48.86 81.3698 48.99C81.3398 49.11 81.2198 49.19 81.0898 49.16L64.6498 45.08L80.3598 52.96C80.4698 53.02 80.5198 53.15 80.4598 53.26C80.4098 53.33 80.3298 53.38 80.2498 53.38Z" fill="white"/>
<path d="M78.8098 56.02C78.7598 56.02 78.7198 56.01 78.6798 55.98L62.5798 44.54C62.4798 44.47 62.4498 44.33 62.5298 44.22C62.5998 44.12 62.7398 44.09 62.8498 44.17L78.9498 55.61C79.0498 55.68 79.0798 55.82 78.9998 55.93C78.9498 55.99 78.8798 56.02 78.8098 56.02Z" fill="white"/>
</svg>
