<svg width="85" height="81" viewBox="0 0 85 81" fill="none" xmlns="http://www.w3.org/2000/svg">
<path d="M15.9773 25.51C15.7973 25.51 15.6373 25.41 15.5673 25.24L5.90726 4.19998C5.84726 4.05998 5.85725 3.91 5.92725 3.78C6.00725 3.65 6.13727 3.57 6.28727 3.56L59.8673 0C59.9673 0 60.0773 0.0199866 60.1673 0.0799866L84.6573 17.79C84.8073 17.9 84.8772 18.09 84.8272 18.28C84.7772 18.46 84.6172 18.6 84.4372 18.61L16.0273 25.51C16.0073 25.51 15.9873 25.51 15.9773 25.51ZM7.00727 4.41998L16.2573 24.56L83.1573 17.81L59.7672 0.899994L7.00727 4.41998Z" fill="white"/>
<path d="M55.1772 80.93C55.1472 80.93 55.1072 80.93 55.0772 80.92C55.0672 80.92 55.0473 80.91 55.0373 80.91L0.317253 62.52C0.307253 62.52 0.297255 62.51 0.287255 62.51C0.267255 62.5 0.247236 62.49 0.237236 62.49C0.157236 62.44 0.0872339 62.37 0.0472339 62.29C0.0272339 62.25 0.0172559 62.21 0.00725586 62.17C-0.00274414 62.12 -0.00274414 62.08 0.00725586 62.03L5.86724 3.97997C5.89724 3.72997 6.11724 3.54997 6.36724 3.56997C6.61724 3.59997 6.79725 3.81997 6.77725 4.06997L1.21725 59.1L15.5572 24.89C15.6172 24.74 15.7672 24.63 15.9272 24.61C16.0872 24.59 16.2573 24.66 16.3473 24.8L55.1072 79.58L83.9773 17.97C84.0773 17.76 84.3072 17.66 84.5272 17.73C84.7472 17.8 84.8772 18.02 84.8372 18.24L79.2072 51.81C79.1972 51.89 79.1573 51.96 79.1073 52.02L55.5373 80.76C55.5273 80.77 55.5172 80.78 55.5172 80.79C55.4772 80.83 55.4273 80.87 55.3673 80.89C55.3373 80.9 55.2972 80.91 55.2672 80.92C55.2372 80.93 55.2072 80.93 55.1772 80.93ZM1.06725 61.8L54.0073 79.6L16.0772 25.99L1.06725 61.8ZM83.3872 21.36L57.1372 77.37L78.3172 51.54L83.3872 21.36Z" fill="white"/>
<path d="M55.1772 80.7C55.1172 80.7 55.0672 80.68 55.0272 80.64L9.97725 39.17C9.88725 39.09 9.87724 38.94 9.96724 38.85C10.0472 38.76 10.1973 38.75 10.2873 38.84L51.8872 77.13L12.4972 33.11C12.4172 33.02 12.4172 32.87 12.5172 32.79C12.6072 32.71 12.7572 32.71 12.8372 32.81L55.3573 80.33C55.4373 80.42 55.4372 80.56 55.3472 80.64C55.2972 80.68 55.2372 80.7 55.1772 80.7Z" fill="white"/>
<path d="M55.1772 80.7C55.1372 80.7 55.0973 80.69 55.0573 80.67L4.90727 51.35C4.79727 51.29 4.76725 51.15 4.82725 51.04C4.88725 50.93 5.02725 50.89 5.13725 50.96L51.5573 78.1L7.31727 45.55C7.21727 45.47 7.19725 45.33 7.26725 45.23C7.33725 45.13 7.48726 45.11 7.58726 45.18L55.3073 80.29C55.4073 80.36 55.4273 80.5 55.3673 80.6C55.3273 80.66 55.2572 80.7 55.1772 80.7Z" fill="white"/>
<path d="M55.1772 80.7C55.1472 80.7 55.1172 80.69 55.0772 80.68L2.76723 56.51C2.65723 56.46 2.60725 56.32 2.65725 56.21C2.70725 56.1 2.84723 56.05 2.95723 56.1L55.2672 80.27C55.3772 80.32 55.4272 80.46 55.3772 80.57C55.3472 80.65 55.2672 80.7 55.1772 80.7Z" fill="white"/>
</svg>
