<svg width="87" height="82" viewBox="0 0 87 82" fill="none" xmlns="http://www.w3.org/2000/svg">
<path d="M43.4813 81.455C43.3413 81.455 43.2013 81.395 43.1113 81.265L34.9213 70.145C34.8613 70.065 34.8313 69.965 34.8313 69.865L35.7813 8.89499C35.7813 8.785 35.8313 8.67499 35.9013 8.59499L43.8313 0.144995C44.0013 -0.0350054 44.2913 -0.0449944 44.4713 0.125006C44.6513 0.295006 44.6613 0.585005 44.4913 0.765005L36.6813 9.085L35.7413 69.725L43.8413 80.725C43.9913 80.925 43.9513 81.215 43.7413 81.365C43.6713 81.425 43.5813 81.455 43.4813 81.455Z" fill="white"/>
<path d="M43.5213 81.445L8.08129 77.905C7.96129 77.895 7.8513 77.835 7.7713 77.745L0.101253 68.435C0.0312528 68.355 -0.0087228 68.245 0.0012772 68.135L1.12127 17.945C1.12127 17.825 1.17128 17.715 1.25128 17.635L9.01129 9.875C9.07129 9.825 9.1313 9.78499 9.2113 9.75499L44.0513 0.015C44.1413 -0.005 44.2213 -0.005 44.3113 0.015L78.3713 10.625C78.4413 10.645 78.5013 10.685 78.5613 10.735L86.2313 18.405C86.3113 18.495 86.3613 18.605 86.3613 18.725V69.255C86.3613 69.365 86.3213 69.465 86.2513 69.555L78.5813 78.435C78.5013 78.525 78.3913 78.585 78.2713 78.595L43.5213 81.445ZM8.36126 77.025L43.5313 80.545L78.0113 77.715L85.4513 69.105V18.935L77.9913 11.475L44.1613 0.944993L9.57128 10.625L2.0213 18.175L0.91125 68.015L8.36126 77.025Z" fill="white"/>
<path d="M43.4813 81.455C43.3913 81.455 43.2913 81.425 43.2113 81.365C43.0113 81.215 42.9713 80.925 43.1213 80.725L51.1712 69.925L51.8313 9.125L43.8512 0.774992C43.6812 0.594992 43.6813 0.304992 43.8613 0.134992C44.0413 -0.0350078 44.3313 -0.0350133 44.5013 0.144987L52.6113 8.625C52.6913 8.715 52.7413 8.82499 52.7413 8.94499L52.0813 70.085C52.0813 70.185 52.0513 70.275 51.9913 70.355L43.8613 81.275C43.7613 81.385 43.6213 81.455 43.4813 81.455Z" fill="white"/>
<path d="M51.6313 70.525L35.2913 70.325L0.441295 68.595C0.191295 68.585 0.00130252 68.365 0.0113025 68.115C0.0213025 67.865 0.221283 67.635 0.491283 67.685L35.3313 69.405L51.6413 69.605L85.9113 68.805C86.1513 68.835 86.3713 68.995 86.3813 69.245C86.3913 69.495 86.1913 69.705 85.9413 69.715L51.6313 70.525Z" fill="white"/>
<path d="M85.9113 19.195C85.8713 19.195 85.8213 19.185 85.7813 19.175L52.2113 9.39499L36.2913 9.36499L1.6813 18.405C1.4313 18.465 1.1913 18.325 1.1213 18.075C1.0613 17.835 1.20132 17.585 1.45132 17.515L36.1113 8.465C36.1513 8.455 36.1913 8.45499 36.2313 8.45499L52.2713 8.485C52.3113 8.485 52.3513 8.49499 52.4013 8.50499L86.0313 18.305C86.2713 18.375 86.4113 18.625 86.3413 18.865C86.2913 19.065 86.1113 19.195 85.9113 19.195Z" fill="white"/>
<path d="M39.0413 80.775C38.9513 80.775 38.8613 80.715 38.8313 80.625L35.4813 71.075L35.1313 80.145C35.1313 80.275 35.0013 80.375 34.8913 80.365C34.7613 80.365 34.6713 80.255 34.6713 80.125L35.0613 69.855C35.0613 69.745 35.1513 69.655 35.2513 69.635C35.3713 69.615 35.4613 69.685 35.5013 69.785L39.2513 80.465C39.2913 80.585 39.2313 80.715 39.1113 80.755C39.0913 80.775 39.0713 80.775 39.0413 80.775Z" fill="white"/>
<path d="M30.0813 79.885C30.0413 79.885 30.0112 79.875 29.9712 79.855C29.8612 79.795 29.8213 79.655 29.8813 79.545L34.5213 70.845L24.8012 79.275C24.7112 79.355 24.5612 79.345 24.4812 79.255C24.4012 79.155 24.4113 79.015 24.5013 78.935L35.1513 69.695C35.2313 69.625 35.3613 69.625 35.4413 69.685C35.5313 69.755 35.5513 69.875 35.5013 69.975L30.2813 79.755C30.2413 79.835 30.1613 79.885 30.0813 79.885Z" fill="white"/>
<path d="M19.5413 78.825C19.4613 78.825 19.3813 78.785 19.3413 78.705C19.2813 78.595 19.3213 78.455 19.4313 78.395L32.9513 70.895L11.9513 78.035C11.8313 78.075 11.7013 78.015 11.6613 77.895C11.6213 77.775 11.6813 77.645 11.8013 77.605L35.2213 69.645C35.3313 69.605 35.4513 69.665 35.5013 69.765C35.5513 69.875 35.5013 69.995 35.4013 70.055L19.6513 78.785C19.6213 78.825 19.5813 78.825 19.5413 78.825Z" fill="white"/>
<path d="M6.43129 75.625C6.32129 75.625 6.23132 75.545 6.21132 75.445C6.19132 75.325 6.27132 75.205 6.39132 75.175L31.5713 70.345L3.66127 72.245C3.51127 72.255 3.43128 72.155 3.42128 72.035C3.41128 71.905 3.51131 71.805 3.63131 71.795L35.2713 69.645C35.4013 69.615 35.5013 69.725 35.5113 69.845C35.5313 69.965 35.4513 70.075 35.3313 70.095L6.47127 75.625C6.46127 75.625 6.45129 75.625 6.43129 75.625Z" fill="white"/>
<path d="M84.6213 18.585C84.5913 18.585 84.5712 18.585 84.5512 18.575C84.4912 18.555 84.3913 18.525 73.7613 9.885C73.6613 9.805 73.6512 9.66499 73.7312 9.56499C73.8112 9.46499 73.9512 9.45499 74.0512 9.53499C76.9212 11.865 84.4312 17.965 84.7312 18.165C84.8512 18.205 84.8912 18.315 84.8612 18.435C84.8312 18.535 84.7313 18.585 84.6213 18.585Z" fill="white"/>
<path d="M83.8113 18.355C83.7713 18.355 83.7413 18.345 83.7013 18.325L58.8113 5.24499C58.7013 5.18499 58.6613 5.04499 58.7113 4.93499C58.7713 4.82499 58.9113 4.78499 59.0213 4.83499L78.7713 15.215L66.9613 7.77499C66.8513 7.70499 66.8213 7.56499 66.8913 7.46499C66.9613 7.35499 67.1013 7.32499 67.2013 7.39499L83.9212 17.925C84.0212 17.995 84.0613 18.125 84.0013 18.235C83.9713 18.315 83.8913 18.355 83.8113 18.355Z" fill="white"/>
<path d="M81.4712 17.665C81.4412 17.665 81.4213 17.665 81.3913 17.655L48.2013 4.97499C48.0813 4.93499 48.0213 4.795 48.0713 4.685C48.1213 4.565 48.2512 4.515 48.3612 4.555L76.2513 15.205L48.9613 2.185C48.8513 2.135 48.8012 1.995 48.8512 1.885C48.9012 1.775 49.0413 1.725 49.1513 1.775L81.5713 17.245C81.6813 17.295 81.7313 17.425 81.6813 17.535C81.6413 17.615 81.5612 17.665 81.4712 17.665Z" fill="white"/>
</svg>
