<svg width="86" height="90" viewBox="0 0 86 90" fill="none" xmlns="http://www.w3.org/2000/svg">
<path d="M46.8573 89.4775H39.9173C39.8573 89.4775 39.7873 89.4675 39.7373 89.4375L31.4573 85.8175C31.4173 85.7975 31.3773 85.7775 31.3473 85.7475L10.7373 68.5875C10.6973 68.5575 10.6573 68.5175 10.6373 68.4675L8.17724 64.2875L4.30724 58.3075C4.27724 58.2575 4.2573 58.2075 4.2373 58.1475L0.00725586 35.8175C-0.00274414 35.7675 -0.00274414 35.7275 0.00725586 35.6775L1.04729 27.3575L1.91729 22.6375C1.93729 22.5375 1.98724 22.4475 2.05724 22.3775L11.3672 14.0075C11.3972 13.9875 11.4273 13.9675 11.4573 13.9475L35.3473 1.1375C35.3873 1.1175 35.4373 1.0975 35.4873 1.0875L41.8672 0.0075C41.9172 -0.0025 41.9572 -0.0025 41.9972 0.0075L48.7673 0.867501C48.8173 0.877501 48.8673 0.887494 48.9173 0.907494L73.2773 13.1975C73.3073 13.2175 73.3372 13.2375 73.3672 13.2575L80.9573 19.6375L83.1273 21.6375C83.1872 21.6875 83.2273 21.7575 83.2573 21.8375L84.5973 26.1075L85.4773 34.9075C85.4773 34.9575 85.4773 34.9975 85.4673 35.0475L80.8973 57.2075C80.8873 57.2575 80.8673 57.3075 80.8373 57.3575L74.3672 67.6175C74.3472 67.6475 74.3173 67.6875 74.2873 67.7075L55.3173 85.2075C55.2873 85.2375 55.2473 85.2575 55.2173 85.2775L47.0673 89.4175C46.9973 89.4575 46.9273 89.4775 46.8573 89.4775ZM40.0073 88.5675H46.7472L54.7472 84.5075L73.6273 67.0875L80.0173 56.9475L84.5572 34.9375L83.6973 26.2975L82.4173 22.2375L80.3473 20.3375L72.8173 14.0075L48.5773 1.7775L41.9473 0.937493L35.7073 1.9875L11.9372 14.7275L2.77728 22.9475L1.94726 27.4975L0.927239 35.7175L5.12725 57.8975L8.95727 63.8175L11.3873 67.9475L31.8873 85.0175L40.0073 88.5675Z" fill="white"/>
<path d="M55.0073 85.3375C54.9273 85.3375 54.8473 85.3175 54.7773 85.2775C54.5573 85.1475 54.4873 84.8775 54.6073 84.6575L56.7573 80.9475L59.0273 58.8175L57.4972 49.6075L51.6373 39.7175L17.9773 16.5375L11.5373 14.7875C11.2973 14.7175 11.1473 14.4675 11.2173 14.2275C11.2873 13.9875 11.5373 13.8475 11.7773 13.9075L18.2873 15.6775C18.3373 15.6875 18.3872 15.7175 18.4272 15.7375L52.2273 39.0175C52.2773 39.0575 52.3273 39.1075 52.3573 39.1575L58.3072 49.2075C58.3372 49.2575 58.3572 49.3075 58.3672 49.3675L59.9173 58.7275C59.9273 58.7675 59.9273 58.8075 59.9173 58.8475L57.6273 81.1375C57.6173 81.1975 57.5973 81.2675 57.5673 81.3175L55.3672 85.1075C55.3172 85.2575 55.1673 85.3375 55.0073 85.3375Z" fill="white"/>
<path d="M39.9173 89.4775C39.7373 89.4775 39.5673 89.3675 39.4973 89.1975L38.0273 85.5775C38.0073 85.5275 37.9973 85.4675 37.9973 85.4175L37.6073 63.0875L39.4673 53.7175C39.4773 53.6675 39.4973 53.6275 39.5173 53.5875L43.4573 46.4275C43.4773 46.3875 43.5173 46.3375 43.5573 46.3075L51.6973 39.0675L75.3273 21.8975L80.2373 19.4175C80.4573 19.3075 80.7373 19.3975 80.8473 19.6175C80.9573 19.8375 80.8673 20.1175 80.6473 20.2275L75.7973 22.6775L52.2573 39.7875L44.2173 46.9475L40.3573 53.9775L38.5173 63.1775L38.9073 85.3275L40.3373 88.8675C40.4273 89.0975 40.3173 89.3675 40.0873 89.4575C40.0273 89.4675 39.9673 89.4775 39.9173 89.4775Z" fill="white"/>
<path d="M46.8573 89.4775C46.7873 89.4775 46.7173 89.4575 46.6473 89.4275C46.4273 89.3075 46.3373 89.0375 46.4473 88.8175L48.2973 85.2375L49.4073 63.0075L47.8873 54.3375L39.8973 54.2575C39.8373 54.2575 39.7773 54.2475 39.7273 54.2175L29.9373 50.0375L5.31729 32.7475C5.28729 32.7275 5.25732 32.6975 5.22732 32.6675L1.12729 27.7075C1.00729 27.5675 0.987299 27.3675 1.0773 27.1975L5.17727 19.5975C5.23727 19.4875 5.3373 19.4075 5.4573 19.3775C5.5773 19.3475 5.70729 19.3675 5.81729 19.4275L10.7273 22.4575L35.8073 39.0175L44.1273 46.2975C44.1673 46.3275 44.1873 46.3675 44.2173 46.4075L48.4373 53.3075L57.6773 49.0575L80.3173 31.1975L83.9273 25.7775C84.0673 25.5675 84.3473 25.5175 84.5573 25.6475C84.7673 25.7875 84.8273 26.0675 84.6873 26.2775L81.0373 31.7575C81.0073 31.7975 80.9773 31.8375 80.9373 31.8575L58.1973 49.7975C58.1673 49.8175 58.1373 49.8375 58.1073 49.8575L48.7673 54.1475L50.3073 62.8975C50.3173 62.9275 50.3173 62.9675 50.3173 62.9975L49.1973 85.3775C49.1973 85.4475 49.1773 85.5075 49.1473 85.5675L47.2473 89.2375C47.1773 89.3875 47.0173 89.4775 46.8573 89.4775ZM40.0073 53.3375L47.4573 53.4175L43.4973 46.9375L35.2773 39.7375L10.2573 23.2175L5.7673 20.4475L2.04733 27.3575L5.90732 32.0275L30.3873 49.2375L40.0073 53.3375Z" fill="white"/>
<path d="M38.0573 63.5175C37.9973 63.5175 37.9373 63.5075 37.8873 63.4875L27.8873 59.3475C27.8473 59.3375 27.8173 59.3175 27.7873 59.2875L3.76729 41.3075C3.72729 41.2775 3.68732 41.2375 3.66732 41.1975L0.0873016 35.9775C-0.0526984 35.7675 -0.00270331 35.4875 0.207297 35.3475C0.417297 35.2075 0.697302 35.2575 0.837302 35.4675L4.37728 40.6275L28.2873 58.5275L38.1573 62.6075L49.7873 62.5275L59.2573 58.4075L81.0873 40.1675L84.6373 34.7075C84.7773 34.4975 85.0573 34.4375 85.2673 34.5775C85.4773 34.7175 85.5373 34.9975 85.3973 35.2075L81.8073 40.7275C81.7773 40.7675 81.7473 40.7975 81.7173 40.8275L59.7873 59.1475C59.7573 59.1775 59.7173 59.1975 59.6773 59.2175L50.0573 63.3975C49.9973 63.4175 49.9373 63.4375 49.8773 63.4375L38.0573 63.5175C38.0673 63.5175 38.0673 63.5175 38.0573 63.5175Z" fill="white"/>
<path d="M31.6373 85.8475C31.4473 85.8475 31.2773 85.7275 31.2073 85.5475L29.9473 82.0375C29.9373 81.9975 29.9273 81.9675 29.9173 81.9275L27.6073 58.9575C27.6073 58.9075 27.6072 58.8575 27.6172 58.8175L29.6873 49.5075C29.6973 49.4675 29.7073 49.4275 29.7273 49.3875L35.1772 39.1675C35.2072 39.1175 35.2473 39.0675 35.2973 39.0275L42.8473 32.9275L67.5373 15.3375C67.5673 15.3175 67.5973 15.2975 67.6273 15.2875L72.8973 13.1775C73.1273 13.0875 73.3973 13.1975 73.4873 13.4275C73.5773 13.6575 73.4673 13.9275 73.2373 14.0175L68.0173 16.1075L43.3873 33.6475L35.9373 39.6775L30.5573 49.7575L28.5173 58.9375L30.8173 81.7775L32.0673 85.2275C32.1573 85.4675 32.0273 85.7275 31.7973 85.8075C31.7373 85.8375 31.6873 85.8475 31.6373 85.8475Z" fill="white"/>
<path d="M38.4473 85.8475C38.3873 85.8475 38.3273 85.8375 38.2673 85.8075L30.1872 82.2975C30.1472 82.2775 30.1173 82.2575 30.0773 82.2375L8.40728 64.6175C8.32728 64.5475 8.26725 64.4575 8.24725 64.3575L3.58727 41.0275C3.57727 40.9675 3.57727 40.9175 3.58727 40.8575L5.13726 32.2775C5.14726 32.2375 5.15724 32.1875 5.17724 32.1475L10.0873 22.6175C10.1173 22.5675 10.1472 22.5175 10.1872 22.4875L17.8573 15.7575L41.0973 2.9675L35.4573 1.9675C35.2073 1.9275 35.0473 1.6875 35.0873 1.4375C35.1273 1.1875 35.3672 1.02751 35.6172 1.06751L42.4372 2.27751L48.5873 0.857501C48.8473 0.797501 49.0773 0.957513 49.1373 1.19751C49.1973 1.44751 49.0373 1.68752 48.7973 1.74752L43.7773 2.9075L67.9873 15.3075C68.0173 15.3275 68.0473 15.3375 68.0673 15.3675L75.8573 21.8975C75.8973 21.9375 75.9373 21.9775 75.9673 22.0275L81.0572 31.2775C81.0872 31.3375 81.1073 31.3975 81.1073 31.4575L81.8573 40.4275C81.8573 40.4675 81.8573 40.5075 81.8573 40.5475L78.2173 61.4075C78.1973 61.4975 78.1573 61.5775 78.0973 61.6475L74.1473 65.7575L57.5073 81.4075C57.4773 81.4375 57.4373 81.4575 57.3973 81.4775L48.9473 85.7475C48.8873 85.7775 48.8172 85.7975 48.7472 85.7975L38.4473 85.8475ZM30.6073 81.4975L38.5373 84.9375L48.6373 84.8975L56.9372 80.7075L73.5173 65.1175L77.3573 61.1175L80.9673 40.4475L80.2373 31.6375L75.2373 22.5375L67.5473 16.0975L42.4873 3.2675L18.4073 16.4975L10.8773 23.1075L6.03728 32.4975L4.50726 40.9275L9.11724 64.0075L30.6073 81.4975Z" fill="white"/>
<path d="M38.4473 85.6275C38.4273 85.6275 38.4072 85.6275 38.3772 85.6175C38.2672 85.5775 38.1973 85.4675 38.2173 85.3475L43.1073 63.0175C43.1373 62.8975 43.2472 62.8275 43.3772 62.8475C43.4972 62.8775 43.5773 62.9975 43.5473 63.1175L39.2472 82.7675L47.1973 62.9175C47.2473 62.7975 47.3772 62.7475 47.4972 62.7875C47.6172 62.8375 47.6672 62.9675 47.6272 63.0875L38.6573 85.4875C38.6273 85.5675 38.5373 85.6275 38.4473 85.6275Z" fill="white"/>
<path d="M38.4473 85.6275C38.3973 85.6275 38.3473 85.6075 38.3073 85.5775C38.2173 85.5075 38.1873 85.3775 38.2473 85.2775L49.4773 66.7675C49.5373 66.6575 49.6773 66.6275 49.7873 66.6875C49.8973 66.7575 49.9273 66.8975 49.8673 66.9975L39.6873 83.7775L49.1473 74.0275C49.2373 73.9375 49.3773 73.9375 49.4673 74.0275C49.5573 74.1175 49.5573 74.2575 49.4673 74.3475L38.6073 85.5475C38.5673 85.5975 38.5073 85.6275 38.4473 85.6275Z" fill="white"/>
<path d="M38.4473 85.6275C38.3573 85.6275 38.2773 85.5775 38.2373 85.4975C38.1873 85.3975 38.2273 85.2675 38.3273 85.2075L48.9573 78.7075C49.0673 78.6475 49.2073 78.6775 49.2673 78.7875C49.3373 78.8975 49.2972 79.0375 49.1872 79.0975L40.1172 84.6375L48.8373 81.9275C48.9573 81.8875 49.0872 81.9575 49.1272 82.0775C49.1672 82.1975 49.0973 82.3275 48.9773 82.3675L38.5173 85.6175C38.4973 85.6175 38.4673 85.6275 38.4473 85.6275Z" fill="white"/>
</svg>
