<svg width="76" height="87" viewBox="0 0 76 87" fill="none" xmlns="http://www.w3.org/2000/svg">
<path d="M24.1938 86.5729C24.0938 86.5729 23.9838 86.5329 23.9038 86.4729L0.163764 67.0429C0.0437643 66.9429 -0.0162088 66.7829 0.0037912 66.6229L6.44379 19.9429C6.46379 19.7829 6.57376 19.6429 6.72376 19.5829L36.1538 7.45287L54.2638 0.0328749C54.3838 -0.0171251 54.5138 -0.00713062 54.6338 0.0428694C54.7538 0.0928694 54.8338 0.192868 54.8738 0.322868L75.7438 67.0129C75.8138 67.2429 75.6938 67.4929 75.4638 67.5729L24.3538 86.5429C24.3038 86.5629 24.2438 86.5729 24.1938 86.5729ZM0.933784 66.5029L24.2738 85.6029L74.7338 66.8729L54.1438 1.07287L36.4938 8.30288L7.30378 20.3329L0.933784 66.5029Z" fill="white"/>
<path d="M38.2237 40.0129C38.1437 40.0129 38.0537 39.9929 37.9837 39.9429L6.65372 20.3929C6.44372 20.2629 6.37377 19.9829 6.51377 19.7629C6.64377 19.5529 6.92377 19.4829 7.14377 19.6229L38.0238 38.8829L54.0337 0.282865C54.1337 0.0528646 54.3938 -0.0571354 54.6238 0.0328646C54.8538 0.132865 54.9638 0.392861 54.8738 0.622861L38.6438 39.7329C38.5938 39.8529 38.4937 39.9529 38.3637 39.9929C38.3137 40.0029 38.2637 40.0129 38.2237 40.0129Z" fill="white"/>
<path d="M24.1938 86.5729C24.1538 86.5729 24.1038 86.5629 24.0638 86.5529C23.8238 86.4829 23.6838 86.2229 23.7638 85.9829L37.7938 39.4129C37.8638 39.1729 38.1238 39.0329 38.3638 39.1129C38.6038 39.1829 38.7438 39.4429 38.6638 39.6829L24.6338 86.2529C24.5738 86.4529 24.3938 86.5729 24.1938 86.5729Z" fill="white"/>
<path d="M55.7237 74.6429C55.6637 74.6429 55.6037 74.6129 55.5537 74.5729C55.4737 74.4929 55.4737 74.3629 55.5437 74.2729L71.4938 55.4229C71.5738 55.3329 71.7238 55.3129 71.8138 55.3929C71.9138 55.4729 71.9237 55.6129 71.8437 55.7129L57.0238 73.2329L73.5337 61.7329C73.6337 61.6629 73.7737 61.6829 73.8537 61.7929C73.9237 61.8929 73.9037 62.0429 73.7937 62.1129L55.8537 74.6129C55.8137 74.6329 55.7737 74.6429 55.7237 74.6429Z" fill="white"/>
<path d="M55.7237 74.6429C55.6937 74.6429 55.6638 74.6329 55.6338 74.6229C55.5238 74.5729 55.4738 74.4529 55.5038 74.3429L66.4438 39.4829C66.4838 39.3629 66.6038 39.2929 66.7338 39.3329C66.8538 39.3729 66.9238 39.5029 66.8838 39.6229L56.6238 72.3329L69.4938 49.0929C69.5538 48.9829 69.6938 48.9429 69.8038 49.0029C69.9138 49.0629 69.9538 49.2029 69.8938 49.3129L55.9338 74.5229C55.8838 74.6029 55.8037 74.6429 55.7237 74.6429Z" fill="white"/>
<path d="M55.7237 74.6429C55.7137 74.6429 55.7038 74.6429 55.6938 74.6429C55.5738 74.6229 55.4838 74.5229 55.4938 74.4029L59.7938 18.3329C59.8038 18.2029 59.9138 18.1029 60.0338 18.1229C60.1638 18.1329 60.2538 18.2429 60.2438 18.3629L56.2638 70.2929L63.7038 30.7729C63.7238 30.6529 63.8538 30.5729 63.9738 30.5929C64.0938 30.6129 64.1838 30.7329 64.1538 30.8629L55.9538 74.4629C55.9338 74.5629 55.8337 74.6429 55.7237 74.6429Z" fill="white"/>
<path d="M56.7438 61.3229C56.6638 61.3229 56.5838 61.2829 56.5438 61.2029L40.8238 32.8829C40.7638 32.7829 40.7938 32.6529 40.8938 32.5829C40.9938 32.5229 41.1238 32.5329 41.1938 32.6329L57.5138 53.0229C57.5938 53.1229 57.5738 53.2629 57.4738 53.3429C57.3738 53.4229 57.2338 53.4029 57.1538 53.3029L42.5138 35.0229L56.9238 60.9829C56.9838 61.0929 56.9438 61.2329 56.8338 61.2929C56.8238 61.3129 56.7838 61.3229 56.7438 61.3229Z" fill="white"/>
<path d="M57.8338 47.1628C57.7838 47.1628 57.7338 47.1429 57.6838 47.1129L40.8838 32.9529C40.7938 32.8829 40.7738 32.7529 40.8438 32.6529C40.9038 32.5529 41.0338 32.5229 41.1338 32.5729L58.3638 41.1329C58.4738 41.1929 58.5238 41.3229 58.4638 41.4429C58.4038 41.5529 58.2738 41.6029 58.1538 41.5429L42.6238 33.8229L57.9738 46.7629C58.0738 46.8429 58.0838 46.9829 58.0038 47.0829C57.9638 47.1329 57.9038 47.1628 57.8338 47.1628Z" fill="white"/>
<path d="M58.6438 36.6529C58.6338 36.6529 58.6137 36.6529 58.5937 36.6529L40.9838 33.0029C40.8738 32.9829 40.7938 32.8829 40.8038 32.7629C40.8138 32.6529 40.9038 32.5629 41.0138 32.5529L59.0138 31.1229C59.1438 31.0929 59.2438 31.2029 59.2538 31.3329C59.2638 31.4629 59.1738 31.5629 59.0438 31.5729L42.6338 32.8729L58.6838 36.2029C58.8038 36.2329 58.8838 36.3529 58.8638 36.4729C58.8438 36.5829 58.7438 36.6529 58.6438 36.6529Z" fill="white"/>
<path d="M41.0337 33.0029C40.9437 33.0029 40.8638 32.9529 40.8238 32.8729C40.7738 32.7629 40.8137 32.6429 40.9137 32.5829L59.6338 21.6629C59.7438 21.5929 59.8838 21.6329 59.9438 21.7429C60.0038 21.8529 59.9738 21.9929 59.8638 22.0529L42.9538 31.9129L59.2937 26.6429C59.4137 26.6129 59.5438 26.6729 59.5838 26.7929C59.6238 26.9129 59.5538 27.0429 59.4338 27.0829L41.0937 32.9929C41.0837 33.0029 41.0537 33.0029 41.0337 33.0029Z" fill="white"/>
<path d="M41.0337 33.0029C40.9737 33.0029 40.9238 32.9829 40.8738 32.9429C40.7938 32.8629 40.7738 32.7329 40.8438 32.6429L57.5138 10.7729C57.5938 10.6729 57.7338 10.6529 57.8338 10.7329C57.9338 10.8129 57.9538 10.9529 57.8738 11.0529L42.6138 31.0729L59.2837 16.3229C59.3737 16.2329 59.5238 16.2429 59.6038 16.3429C59.6838 16.4329 59.6738 16.5829 59.5838 16.6629L41.1738 32.9529C41.1438 32.9829 41.0837 33.0029 41.0337 33.0029Z" fill="white"/>
<path d="M24.1938 86.3529C24.1138 86.3529 24.0337 86.3129 23.9937 86.2329C23.9337 86.1229 23.9738 85.9829 24.0838 85.9229L55.8338 69.0529L40.8138 32.8629C40.7838 32.8029 40.7938 32.7229 40.8238 32.6629L56.0138 6.08287C56.0738 5.97287 56.2138 5.93287 56.3238 6.00287C56.4338 6.06287 56.4737 6.20287 56.4037 6.31287L41.2638 32.7929L56.3138 69.0729C56.3538 69.1829 56.3137 69.3029 56.2137 69.3629L24.2738 86.3229C24.2638 86.3429 24.2338 86.3529 24.1938 86.3529Z" fill="white"/>
<path d="M24.1938 86.3529C24.1238 86.3529 24.0638 86.3229 24.0138 86.2629C23.9438 86.1729 23.9538 86.0329 24.0438 85.9529L52.4538 60.4829C52.5438 60.4029 52.6938 60.4029 52.7738 60.5029C52.8538 60.5929 52.8538 60.7429 52.7538 60.8229L27.1537 83.7829L54.2738 64.8129C54.3738 64.7429 54.5237 64.7629 54.5937 64.8729C54.6637 64.9729 54.6437 65.1229 54.5337 65.1929L24.3238 86.3229C24.2838 86.3329 24.2438 86.3529 24.1938 86.3529Z" fill="white"/>
<path d="M24.1938 86.3529C24.1438 86.3529 24.0938 86.3429 24.0538 86.3029C23.9538 86.2329 23.9338 86.0928 24.0038 85.9929L48.0338 49.9729C48.1038 49.8629 48.2438 49.8429 48.3538 49.9129C48.4538 49.9829 48.4838 50.1229 48.4138 50.2329L26.6038 82.9329L50.1738 55.0729C50.2538 54.9729 50.4038 54.9629 50.4938 55.0429C50.5938 55.1229 50.6038 55.2629 50.5238 55.3629L24.3738 86.2729C24.3238 86.3228 24.2538 86.3529 24.1938 86.3529Z" fill="white"/>
<path d="M24.1938 86.3529C24.1638 86.3529 24.1238 86.3429 24.0938 86.3329C23.9838 86.2829 23.9338 86.1529 23.9838 86.0429L43.4538 39.0329C43.5038 38.9129 43.6338 38.8629 43.7538 38.9129C43.8738 38.9629 43.9238 39.0929 43.8738 39.2129L26.1238 82.0629L46.0038 45.1329C46.0638 45.0229 46.2038 44.9829 46.3138 45.0429C46.4238 45.1029 46.4638 45.2429 46.4038 45.3529L24.3938 86.2329C24.3538 86.3029 24.2738 86.3529 24.1938 86.3529Z" fill="white"/>
</svg>
