<svg width="87" height="82" viewBox="0 0 87 82" fill="none" xmlns="http://www.w3.org/2000/svg">
<path d="M41.214 81.4573C41.184 81.4573 41.154 81.4573 41.134 81.4473L22.334 77.8873C22.274 77.8773 22.214 77.8573 22.174 77.8173L6.94399 67.8173C6.89399 67.7873 6.85399 67.7373 6.81399 67.6873L1.29403 59.5773C1.21403 59.4573 1.19403 59.3173 1.23403 59.1773L6.634 42.7373L8.09402 29.5173L0.0539794 14.6373C-0.00602056 14.5273 -0.0159888 14.3873 0.0240112 14.2673C0.0640112 14.1473 0.164021 14.0473 0.284021 13.9973L13.624 8.53725L26.074 0.0772618C26.194 -0.00273824 26.354 -0.0227413 26.484 0.0272587L38.844 4.56725C38.914 4.59725 38.984 4.63726 39.034 4.69726L43.264 9.75725L69.714 8.72726C69.774 8.72726 69.844 8.73725 69.894 8.75725L86.334 15.1973C86.454 15.2473 86.544 15.3373 86.594 15.4573C86.644 15.5773 86.634 15.7073 86.574 15.8273L78.414 32.0973L70.464 46.6773L69.894 61.5173C69.894 61.5973 69.864 61.6773 69.814 61.7473L64.814 69.2773C64.784 69.3273 64.744 69.3673 64.694 69.3973L53.944 76.9873C53.904 77.0073 53.874 77.0273 53.834 77.0473L41.364 81.4173C41.324 81.4473 41.264 81.4573 41.214 81.4573ZM22.594 77.0073L41.184 80.5373L53.484 76.2273L64.114 68.7273L68.994 61.3773L69.564 46.5573C69.564 46.4873 69.584 46.4173 69.624 46.3573L77.614 31.6973L85.544 15.8873L69.654 9.66726L43.074 10.6973C42.944 10.7073 42.794 10.6473 42.704 10.5373L38.414 5.39725L26.384 0.977256L14.044 9.35726L1.09402 14.6673L8.96401 29.2273C9.00401 29.3073 9.024 29.3973 9.014 29.4973L7.514 42.9473L2.16403 59.2673L7.50399 67.1173L22.594 77.0073Z" fill="white"/>
<path d="M41.214 81.4573C40.974 81.4573 40.774 81.2673 40.764 81.0273L40.144 69.7773C40.144 69.7373 40.144 69.7073 40.154 69.6673L44.024 48.8273L41.614 28.1172C41.594 27.9272 41.694 27.7373 41.864 27.6573L55.364 21.1073L71.874 15.0573C71.924 15.0373 71.984 15.0373 72.034 15.0273L86.174 15.1973C86.424 15.1973 86.624 15.4073 86.624 15.6573C86.624 15.9073 86.414 16.1073 86.164 16.1073C86.164 16.1073 86.164 16.1073 86.154 16.1073L72.094 15.9373L55.704 21.9473L42.544 28.3372L44.924 48.7973C44.924 48.8373 44.924 48.8873 44.924 48.9373L41.054 69.7973L41.674 80.9973C41.684 81.2473 41.494 81.4672 41.244 81.4772C41.234 81.4573 41.224 81.4573 41.214 81.4573Z" fill="white"/>
<path d="M42.0639 28.5072C42.0539 28.5072 42.044 28.5072 42.034 28.5072L26.2539 27.4272C26.1739 27.4172 26.084 27.3872 26.024 27.3472L14.274 18.9373L0.333964 14.8672C0.093964 14.7972 -0.0460335 14.5472 0.0239665 14.3072C0.0939665 14.0672 0.343964 13.9272 0.583964 13.9972L14.594 18.0972C14.644 18.1072 14.694 18.1372 14.734 18.1672L26.4439 26.5473L42.094 27.6172C42.344 27.6372 42.534 27.8472 42.514 28.1073C42.504 28.3273 42.3039 28.5072 42.0639 28.5072Z" fill="white"/>
<path d="M64.444 69.4973C64.224 69.4973 64.034 69.3372 63.994 69.1172L60.804 50.0773C60.794 50.0173 60.794 49.9473 60.814 49.8873L65.904 31.0473L71.424 15.8172L55.304 12.6873L35.734 11.0572C35.624 11.0472 35.514 10.9972 35.444 10.9172L26.004 0.787245C25.834 0.607245 25.844 0.317246 26.024 0.147246C26.204 -0.0227542 26.494 -0.0127499 26.664 0.16725L35.984 10.1672L55.424 11.7872L72.114 15.0273C72.244 15.0573 72.354 15.1373 72.424 15.2473C72.494 15.3673 72.504 15.4973 72.454 15.6273L66.764 31.3172L61.714 50.0273L64.884 68.9772C64.924 69.2272 64.754 69.4573 64.514 69.4973C64.494 69.4973 64.464 69.4973 64.444 69.4973Z" fill="white"/>
<path d="M53.694 77.0872C53.684 77.0872 53.684 77.0872 53.674 77.0872C53.424 77.0772 53.224 76.8673 53.244 76.6073L53.944 60.6673L54.594 40.9673L55.094 21.9673L40.884 22.6373C40.804 22.6373 40.724 22.6273 40.654 22.5873L26.874 15.5773L13.604 9.37726C13.374 9.26726 13.274 8.99725 13.384 8.77725C13.494 8.54725 13.764 8.44725 13.984 8.55725L27.264 14.7673L40.954 21.7373L55.534 21.0473C55.664 21.0573 55.784 21.0872 55.874 21.1772C55.964 21.2672 56.014 21.3873 56.014 21.5173L55.494 41.0072L54.844 60.7173L54.144 76.6573C54.134 76.8973 53.934 77.0872 53.694 77.0872Z" fill="white"/>
<path d="M22.424 77.8873C22.174 77.8873 21.974 77.6873 21.964 77.4473L21.694 67.0873C21.694 67.0273 21.704 66.9673 21.724 66.9173L29.054 47.8473L25.834 27.0473C25.804 26.8273 25.934 26.6173 26.144 26.5473L40.654 21.7873L55.134 11.8673C55.184 11.8373 55.234 11.8073 55.294 11.7973L69.634 8.76726C69.884 8.70726 70.124 8.87725 70.174 9.11725C70.224 9.36725 70.064 9.60726 69.824 9.65726L55.574 12.6673L41.114 22.5773C41.074 22.5973 41.044 22.6173 40.994 22.6373L26.784 27.2973L29.954 47.8273C29.964 47.9073 29.954 47.9873 29.924 48.0573L22.584 67.1573L22.854 77.4273C22.864 77.6773 22.664 77.8873 22.414 77.8973C22.424 77.8873 22.424 77.8873 22.424 77.8873Z" fill="white"/>
<path d="M7.18396 67.8873C7.11396 67.8873 7.044 67.8673 6.974 67.8373C6.754 67.7173 6.664 67.4473 6.784 67.2273L13.764 53.8472L21.094 39.3673L14.044 18.6673C14.004 18.5473 14.014 18.4173 14.074 18.2973C14.134 18.1873 14.244 18.1073 14.364 18.0773L27.464 15.0373L35.534 10.1973C35.744 10.0673 36.034 10.1373 36.164 10.3573C36.294 10.5773 36.224 10.8573 36.004 10.9873L27.874 15.8573C27.834 15.8773 27.794 15.8973 27.744 15.9073L15.064 18.8573L22.014 39.2473C22.054 39.3673 22.044 39.4872 21.994 39.5972L14.574 54.2573L7.58398 67.6473C7.50398 67.7973 7.34396 67.8873 7.18396 67.8873Z" fill="white"/>
<path d="M40.604 70.1973C40.584 70.1973 40.564 70.1973 40.534 70.1973L22.084 67.5273C21.954 67.5073 21.834 67.4273 21.764 67.3173L13.784 54.2973L6.68394 43.1373C6.55394 42.9273 6.61396 42.6473 6.82396 42.5073C7.03396 42.3673 7.31396 42.4373 7.45396 42.6473L14.5539 53.8173L22.424 66.6673L40.4939 69.2873L54.0639 60.3773L60.864 49.7673C60.914 49.6873 60.994 49.6273 61.084 49.5873L69.854 46.1573C70.084 46.0673 70.3539 46.1773 70.4439 46.4173C70.534 46.6473 70.4239 46.9173 70.1839 47.0073L61.5539 50.3873L54.774 60.9573C54.744 61.0073 54.694 61.0573 54.644 61.0873L40.844 70.1373C40.774 70.1773 40.684 70.1973 40.604 70.1973Z" fill="white"/>
<path d="M44.484 49.2872C44.474 49.2872 44.464 49.2872 44.454 49.2872L29.4939 48.3372C29.3739 48.3272 29.2639 48.2773 29.1839 48.1873L21.144 39.3773L8.29399 29.7872C8.09399 29.6372 8.05396 29.3472 8.20396 29.1472C8.35396 28.9472 8.63398 28.9072 8.84398 29.0572L21.754 38.6972L29.734 47.4272L44.344 48.3573L54.774 40.6073L66.044 30.7973C66.134 30.7173 66.254 30.6772 66.3739 30.6873L78.044 31.4373C78.294 31.4573 78.484 31.6672 78.464 31.9172C78.444 32.1672 78.224 32.3572 77.984 32.3372L66.504 31.5972L55.344 41.3072L44.754 49.1772C44.674 49.2572 44.574 49.2872 44.484 49.2872Z" fill="white"/>
<path d="M31.4439 79.3672C31.3739 79.3672 31.304 79.3372 31.264 79.2773L23.1339 68.7072L27.364 78.2272C27.414 78.3473 27.3639 78.4772 27.2439 78.5273C27.1339 78.5773 26.9939 78.5273 26.9439 78.4073L21.9439 67.1472C21.8939 67.0372 21.934 66.9173 22.034 66.8573C22.134 66.7973 22.264 66.8273 22.334 66.9173L31.6239 78.9873C31.7039 79.0873 31.684 79.2272 31.584 79.3073C31.534 79.3573 31.4939 79.3672 31.4439 79.3672Z" fill="white"/>
<path d="M39.074 80.8172C39.024 80.8172 38.974 80.7972 38.934 80.7673L25.284 69.8572L35.124 79.6472C35.214 79.7372 35.214 79.8772 35.124 79.9672C35.034 80.0573 34.8939 80.0573 34.8039 79.9672L21.9939 67.2272C21.9039 67.1472 21.904 67.0072 21.984 66.9172C22.064 66.8272 22.204 66.8172 22.294 66.8872L39.214 80.4072C39.314 80.4873 39.324 80.6272 39.254 80.7272C39.204 80.7872 39.134 80.8172 39.074 80.8172Z" fill="white"/>
<path d="M41.124 79.5072C41.084 79.5072 41.034 79.4972 41.004 79.4672L22.024 67.2572C21.924 67.1872 21.894 67.0572 21.944 66.9572C22.004 66.8472 22.134 66.8072 22.244 66.8672L41.044 75.8372C41.154 75.8872 41.204 76.0272 41.154 76.1372C41.104 76.2472 40.964 76.2972 40.854 76.2472L25.294 68.8272L41.254 79.0872C41.364 79.1572 41.394 79.2972 41.324 79.3972C41.274 79.4672 41.194 79.5072 41.124 79.5072Z" fill="white"/>
<path d="M40.764 72.9472C40.744 72.9472 40.724 72.9473 40.694 72.9372L22.074 67.2872C21.954 67.2472 21.884 67.1272 21.924 67.0072C21.964 66.8872 22.084 66.8172 22.204 66.8572L40.824 72.5072C40.944 72.5472 41.014 72.6672 40.974 72.7872C40.954 72.8772 40.864 72.9472 40.764 72.9472Z" fill="white"/>
<path d="M37.084 69.4673C37.054 69.4673 37.034 69.4672 37.004 69.4572C36.884 69.4172 36.824 69.2873 36.864 69.1673L43.064 52.0672L34.344 68.9272C34.284 69.0372 34.144 69.0872 34.034 69.0273C33.924 68.9673 33.874 68.8273 33.934 68.7173L44.264 48.7373C44.314 48.6273 44.444 48.5872 44.554 48.6372C44.664 48.6872 44.714 48.8072 44.674 48.9272L37.274 69.3273C37.264 69.4073 37.174 69.4673 37.084 69.4673Z" fill="white"/>
<path d="M31.154 68.6072C31.114 68.6072 31.064 68.5972 31.024 68.5672C30.924 68.4972 30.894 68.3572 30.964 68.2472L42.164 51.8172L27.964 68.0372C27.884 68.1372 27.734 68.1472 27.644 68.0572C27.554 67.9772 27.5439 67.8273 27.6239 67.7373L44.3039 48.6772C44.3839 48.5872 44.514 48.5772 44.614 48.6472C44.704 48.7172 44.734 48.8572 44.664 48.9572L31.334 68.4972C31.294 68.5672 31.224 68.6072 31.154 68.6072Z" fill="white"/>
<path d="M24.4339 67.6273C24.3739 67.6273 24.314 67.6073 24.264 67.5573C24.184 67.4673 24.184 67.3173 24.274 67.2373L41.284 51.4873L23.194 64.8873C23.094 64.9573 22.9439 64.9372 22.8739 64.8372C22.7939 64.7373 22.824 64.5973 22.924 64.5173L44.344 48.6573C44.444 48.5873 44.574 48.6072 44.654 48.6972C44.734 48.7872 44.724 48.9272 44.634 49.0072L24.584 67.5773C24.544 67.6073 24.4839 67.6273 24.4339 67.6273Z" fill="white"/>
<path d="M24.594 60.9172C24.514 60.9172 24.444 60.8772 24.394 60.8072C24.334 60.6972 24.364 60.5572 24.474 60.4972L41.724 50.2072L26.364 56.5173C26.244 56.5573 26.1139 56.5072 26.0639 56.3972C26.0139 56.2772 26.0739 56.1472 26.1839 56.0972L44.384 48.6172C44.494 48.5772 44.624 48.6172 44.674 48.7272C44.724 48.8372 44.694 48.9672 44.584 49.0272L24.704 60.8872C24.674 60.9072 24.634 60.9172 24.594 60.9172Z" fill="white"/>
<path d="M27.484 53.3973C27.384 53.3973 27.294 53.3273 27.264 53.2273C27.234 53.1073 27.304 52.9773 27.424 52.9473L41.574 49.3373L28.584 50.5773C28.464 50.6073 28.344 50.4973 28.334 50.3673C28.324 50.2373 28.414 50.1273 28.534 50.1173L44.444 48.5972C44.564 48.5872 44.674 48.6673 44.694 48.7873C44.714 48.9072 44.644 49.0173 44.524 49.0473L27.534 53.3873C27.524 53.3973 27.504 53.3973 27.484 53.3973Z" fill="white"/>
<path d="M61.254 50.2272C61.184 50.2272 61.114 50.1973 61.074 50.1373C61.004 50.0473 61.014 49.9073 61.104 49.8273L74.264 38.3372C74.354 38.2572 74.504 38.2673 74.584 38.3573C74.664 38.4473 74.654 38.5972 74.564 38.6772L64.034 47.8773L71.954 42.6073C72.054 42.5373 72.204 42.5673 72.274 42.6673C72.344 42.7673 72.314 42.9173 72.214 42.9873L61.394 50.1873C61.344 50.2073 61.294 50.2272 61.254 50.2272Z" fill="white"/>
<path d="M61.254 50.2272C61.204 50.2272 61.154 50.2073 61.114 50.1772C61.024 50.0973 61.004 49.9673 61.074 49.8673L73.984 31.5273C74.054 31.4173 74.194 31.3973 74.304 31.4673C74.404 31.5373 74.434 31.6772 74.364 31.7872L63.414 47.3472L77.864 31.7473C77.954 31.6573 78.094 31.6473 78.184 31.7373C78.274 31.8173 78.284 31.9673 78.194 32.0573L61.434 50.1473C61.374 50.1973 61.314 50.2272 61.254 50.2272Z" fill="white"/>
<path d="M61.254 50.2272C61.224 50.2272 61.184 50.2172 61.154 50.2072C61.044 50.1572 60.994 50.0173 61.044 49.9073L69.814 31.2973C69.864 31.1873 70.004 31.1373 70.114 31.1873C70.224 31.2373 70.274 31.3773 70.224 31.4873L61.454 50.0972C61.424 50.1772 61.334 50.2272 61.254 50.2272Z" fill="white"/>
</svg>
