<svg width="83" height="85" viewBox="0 0 83 85" fill="none" xmlns="http://www.w3.org/2000/svg">
<path d="M41.2772 84.7333C41.1572 84.7333 41.0372 84.6833 40.9472 84.5933L0.127256 42.6833C-0.0427441 42.5033 -0.0427441 42.2233 0.127256 42.0533L40.9472 0.14327C41.1172 -0.0367297 41.4273 -0.0367297 41.5973 0.14327L82.4173 42.0533C82.5872 42.2333 82.5872 42.5133 82.4173 42.6833L41.5973 84.5933C41.5173 84.6833 41.4072 84.7333 41.2772 84.7333ZM1.09726 42.3633L41.2772 83.6233L81.4573 42.3633L41.2772 1.10326L1.09726 42.3633Z" fill="white"/>
<path d="M46.7173 45.4933L0.437252 42.8233C0.187252 42.8133 -0.00275634 42.5933 0.00724366 42.3433C0.0172437 42.0933 0.227255 41.8933 0.487255 41.9133L46.7073 44.5833L82.0572 41.9133C82.3272 41.8833 82.5273 42.0833 82.5472 42.3333C82.5672 42.5833 82.3773 42.8033 82.1273 42.8233L46.7173 45.4933Z" fill="white"/>
<path d="M41.2772 84.7333C41.2572 84.7333 41.2372 84.7333 41.2172 84.7333C40.9672 84.7033 40.7972 84.4733 40.8272 84.2233L46.2272 45.0433L40.8272 0.513277C40.7972 0.263277 40.9772 0.0332668 41.2272 0.00326685C41.4772 -0.0267332 41.7073 0.153291 41.7373 0.403291L47.1372 44.9833C47.1372 45.0233 47.1372 45.0633 47.1372 45.1033L41.7373 84.3433C41.6973 84.5633 41.5072 84.7333 41.2772 84.7333Z" fill="white"/>
<path d="M41.2773 84.5033C41.1673 84.5033 41.0673 84.4233 41.0473 84.3033L35.0673 39.2033C35.0673 39.1833 35.0673 39.1633 35.0673 39.1333L41.0473 0.413282C41.0673 0.293282 41.1672 0.20328 41.2872 0.22328C41.4072 0.23328 41.4973 0.333291 41.4973 0.453291V84.2733C41.4973 84.3933 41.4072 84.4933 41.2872 84.5033C41.2872 84.5033 41.2873 84.5033 41.2773 84.5033ZM35.5273 39.1733L41.0473 80.8233V3.41328L35.5273 39.1733Z" fill="white"/>
<path d="M82.0973 42.5933H0.467255C0.347255 42.5933 0.247259 42.4933 0.237259 42.3733C0.237259 42.2533 0.32725 42.1433 0.44725 42.1333L35.2872 38.9433L82.1172 42.1333C82.2373 42.1433 82.3373 42.2433 82.3273 42.3633C82.3173 42.4933 82.2173 42.5933 82.0973 42.5933ZM5.43726 42.1333H75.4073L35.2773 39.3933L5.43726 42.1333Z" fill="white"/>
<path d="M46.6873 45.2633C46.6473 45.2633 46.6172 45.2533 46.5872 45.2333L35.2073 39.3733C35.0973 39.3133 35.0473 39.1833 35.1073 39.0633C35.1673 38.9533 35.3073 38.9033 35.4173 38.9633L46.7973 44.8233C46.9073 44.8833 46.9572 45.0133 46.8972 45.1333C46.8472 45.2233 46.7673 45.2633 46.6873 45.2633Z" fill="white"/>
</svg>
