<svg width="89" height="90" viewBox="0 0 89 90" fill="none" xmlns="http://www.w3.org/2000/svg">
<path d="M44.1468 89.8114C44.0268 89.8114 43.9068 89.7614 43.8268 89.6714L6.96679 52.1614C-0.0732117 45.0014 -0.0732249 45.0014 0.0467751 44.7214C0.0667751 44.6714 0.0967812 44.6214 0.146781 44.5814L43.8368 0.131376C44.0068 -0.0386243 44.3168 -0.0386243 44.4868 0.131376L88.1768 44.5814C88.3468 44.7614 88.3468 45.0414 88.1768 45.2214L44.4868 89.6714C44.3868 89.7614 44.2668 89.8114 44.1468 89.8114ZM1.09676 44.9014C4.80676 48.6714 40.3568 84.8414 44.1468 88.7014L87.1968 44.9014L44.1468 1.10135L1.09676 44.9014Z" fill="white"/>
<path d="M41.3868 62.9914C41.3268 62.9914 41.2668 62.9814 41.2068 62.9514L0.276806 45.3114C0.0468061 45.2114 -0.0632146 44.9414 0.0367854 44.7114C0.136785 44.4814 0.406791 44.3714 0.636791 44.4714L41.3968 62.0314L87.6768 44.4614C87.9068 44.3714 88.1768 44.4914 88.2668 44.7214C88.3568 44.9514 88.2368 45.2214 88.0068 45.3114L41.5568 62.9514C41.4968 62.9814 41.4468 62.9914 41.3868 62.9914Z" fill="white"/>
<path d="M44.1468 89.8114C43.9168 89.8114 43.7168 89.6414 43.6968 89.4014L40.9368 62.5914L43.6968 0.431373C43.7068 0.181373 43.9368 -0.0186199 44.1768 0.00138008C44.4268 0.0113801 44.6268 0.221361 44.6068 0.481361L41.8468 62.5714L44.6068 89.3214C44.6368 89.5714 44.4468 89.7914 44.1968 89.8214C44.1768 89.8114 44.1668 89.8114 44.1468 89.8114Z" fill="white"/>
<path d="M17.0468 62.0113C17.0268 62.0113 17.0068 62.0114 16.9868 62.0014C16.8868 61.9714 16.8168 61.8814 16.8168 61.7814L17.1168 27.7113C17.1168 27.6113 17.1768 27.5314 17.2768 27.5014L43.2568 18.7613C43.3468 18.7313 43.4468 18.7613 43.5068 18.8313C43.5668 18.9113 43.5768 19.0114 43.5268 19.0914L17.2468 61.8913C17.2068 61.9713 17.1268 62.0113 17.0468 62.0113ZM17.5768 27.8814L17.2868 60.9613L42.8068 19.3913L17.5768 27.8814Z" fill="white"/>
<path d="M71.6368 61.6214C71.5868 61.6214 71.5268 61.6014 71.4868 61.5614L63.2868 54.3414C63.2668 54.3214 63.2468 54.3014 63.2368 54.2814L43.1268 19.0914C43.0768 19.0114 43.0868 18.9113 43.1468 18.8313C43.2068 18.7613 43.2968 18.7313 43.3968 18.7613L71.7068 28.1914C71.7968 28.2214 71.8668 28.3114 71.8668 28.4114V61.3913C71.8668 61.4813 71.8168 61.5613 71.7368 61.6013C71.6968 61.6113 71.6668 61.6214 71.6368 61.6214ZM63.6068 54.0213L71.4068 60.8814V28.5713L43.8168 19.3814L63.6068 54.0213Z" fill="white"/>
<path d="M43.3268 81.5813C43.2968 81.5813 43.2568 81.5714 43.2268 81.5614C43.2168 81.5514 43.1968 81.5414 43.1868 81.5314L16.9168 61.9613C16.8168 61.8813 16.7968 61.7413 16.8668 61.6413C16.9468 61.5413 17.0868 61.5214 17.1868 61.5914L42.0768 80.1314L21.5968 54.2214C21.5768 54.1914 21.5568 54.1514 21.5468 54.1214L17.1168 27.7514C17.0968 27.6414 17.1568 27.5414 17.2568 27.5014L45.0068 16.1914C45.0668 16.1714 45.1268 16.1714 45.1868 16.1914L71.7268 28.2013C71.8368 28.2513 71.8868 28.3713 71.8468 28.4813L63.6468 54.2413C63.6368 54.2613 63.6268 54.2914 63.6168 54.3114L44.3468 80.3613L71.4968 61.2113C71.5968 61.1413 71.7368 61.1613 71.8168 61.2613C71.8868 61.3613 71.8668 61.5013 71.7668 61.5813L43.4668 81.5413C43.4468 81.5513 43.4368 81.5613 43.4168 81.5713C43.3868 81.5713 43.3268 81.6013 43.3268 81.5813ZM21.9868 53.9913L43.3168 80.9714L63.2268 54.0614L71.3568 28.5314L45.0968 16.6413L17.6068 27.8513L21.9868 53.9913Z" fill="white"/>
<path d="M63.4368 54.4014L21.7768 54.3214C21.6468 54.3214 21.5468 54.2214 21.5468 54.0914C21.5468 53.9614 21.6468 53.8614 21.7768 53.8614L63.4368 53.9414C63.5668 53.9414 63.6668 54.0414 63.6668 54.1714C63.6568 54.2914 63.5568 54.4014 63.4368 54.4014Z" fill="white"/>
<path d="M45.0968 16.6314C44.9768 16.6314 44.8768 16.5414 44.8668 16.4214L43.9168 0.471375C43.9068 0.341375 44.0068 0.241354 44.1268 0.231354C44.2768 0.231354 44.3568 0.321376 44.3668 0.441376L45.3168 16.3914C45.3268 16.5214 45.2268 16.6214 45.1068 16.6314H45.0968Z" fill="white"/>
<path d="M87.3468 45.1314C87.3268 45.1314 87.3168 45.1314 87.2968 45.1214L71.5768 41.6114C71.4568 41.5814 71.3768 41.4614 71.4068 41.3414C71.4368 41.2214 71.5568 41.1414 71.6768 41.1714L87.3968 44.6814C87.5168 44.7114 87.5968 44.8314 87.5668 44.9514C87.5468 45.0614 87.4568 45.1314 87.3468 45.1314Z" fill="white"/>
<path d="M0.456799 45.1314C0.346799 45.1314 0.256797 45.0614 0.236797 44.9514C0.206797 44.8314 0.28679 44.7114 0.41679 44.6814L17.1868 41.2614C17.3168 41.2314 17.4268 41.3114 17.4568 41.4414C17.4868 41.5614 17.4068 41.6814 17.2768 41.7114L0.506786 45.1314C0.486786 45.1314 0.476799 45.1314 0.456799 45.1314Z" fill="white"/>
</svg>
