<svg width="73" height="84" viewBox="0 0 73 84" fill="none" xmlns="http://www.w3.org/2000/svg">
<path d="M36.1097 83.5645C36.0297 83.5645 35.9597 83.5445 35.8897 83.5045L0.229767 63.2745C0.219767 63.2645 0.209768 63.2645 0.199768 63.2545C0.159768 63.2245 0.129762 63.1945 0.099762 63.1645C0.099762 63.1645 0.0997522 63.1545 0.0897522 63.1545C0.0297522 63.0745 -0.000244141 62.9845 -0.000244141 62.8845V20.7145C-0.000244141 20.6345 0.0197632 20.5445 0.0697632 20.4645C0.109763 20.3945 0.169746 20.3345 0.239746 20.3045L35.8997 0.074492C36.0897 -0.035508 36.3198 0.00449808 36.4698 0.174498C36.6098 0.334498 36.6197 0.574515 36.4897 0.754515L14.6898 29.1445L36.5197 66.9345C36.6097 67.0845 36.5998 67.2645 36.5098 67.4145C36.4098 67.5545 36.2397 67.6345 36.0797 67.6145L2.65976 63.6145L36.3597 82.7345C36.5797 82.8545 36.6498 83.1345 36.5298 83.3545C36.4198 83.4845 36.2697 83.5645 36.1097 83.5645ZM1.08975 62.4945L35.2598 66.5845L14.1998 30.1245L1.08975 62.4945ZM0.89975 21.5045V60.5345L13.5598 29.2745L0.89975 21.5045ZM1.33975 20.7145L14.0098 28.4845L34.3798 1.96451L1.33975 20.7145Z" fill="white"/>
<path d="M36.1097 83.5645C35.9497 83.5645 35.7997 83.4845 35.7097 83.3345C35.5897 83.1145 35.6598 82.8345 35.8798 82.7145L69.5797 63.5945L36.1598 67.5945C35.9898 67.6145 35.8198 67.5345 35.7298 67.3945C35.6398 67.2545 35.6298 67.0645 35.7198 66.9145L57.5498 29.1245L35.7498 0.73451C35.6198 0.56451 35.6297 0.324524 35.7697 0.154524C35.9097 -0.00547649 36.1498 -0.0454826 36.3398 0.0545174L71.9997 20.2845C72.0697 20.3245 72.1298 20.3745 72.1698 20.4445C72.2198 20.5245 72.2398 20.6045 72.2398 20.6945V62.8645C72.2398 62.9645 72.2097 63.0545 72.1497 63.1345C72.1497 63.1345 72.1497 63.1445 72.1397 63.1445C72.1097 63.1845 72.0798 63.2145 72.0398 63.2345C72.0298 63.2445 72.0197 63.2445 72.0097 63.2545L36.3498 83.4845C36.2698 83.5445 36.1897 83.5645 36.1097 83.5645ZM58.0298 30.1245L36.9698 66.5845L71.1397 62.4945L58.0298 30.1245ZM58.6598 29.2745L71.3197 60.5345V21.5045L58.6598 29.2745ZM37.8398 1.96452L58.2097 28.4845L70.8797 20.7145L37.8398 1.96452Z" fill="white"/>
<path d="M58.0998 29.5445H14.1298C13.8798 29.5445 13.6698 29.3445 13.6698 29.0845C13.6698 28.8245 13.8698 28.6245 14.1298 28.6245H58.0998C58.3498 28.6245 58.5598 28.8245 58.5598 29.0845C58.5598 29.3445 58.3498 29.5445 58.0998 29.5445Z" fill="white"/>
<path d="M71.7798 63.1045C71.7398 63.1045 71.6998 63.0945 71.6598 63.0745L58.0298 54.6345H14.1898L0.559759 63.0645C0.449759 63.1345 0.309762 63.0945 0.249762 62.9945C0.179762 62.8845 0.219769 62.7445 0.319769 62.6845L13.9998 54.2245C14.0398 54.2045 14.0798 54.1945 14.1198 54.1945H58.0898C58.1298 54.1945 58.1698 54.2045 58.2098 54.2245L71.8897 62.6845C71.9997 62.7545 72.0298 62.8945 71.9598 62.9945C71.9298 63.0645 71.8598 63.1045 71.7798 63.1045Z" fill="white"/>
<path d="M36.1098 83.3345C36.0898 83.3345 36.0598 83.3345 36.0398 83.3245C35.9498 83.2945 35.8898 83.2045 35.8898 83.1045V67.0345C35.8898 66.9045 35.9898 66.8045 36.1198 66.8045C36.2498 66.8045 36.3498 66.9045 36.3498 67.0345V82.4345L57.9098 54.2945L71.4698 20.8745L36.2498 16.3345L14.3398 54.5145C14.2998 54.5945 14.2298 54.6445 14.1298 54.6245C14.0398 54.6145 13.9698 54.5645 13.9298 54.4845L0.249769 20.7645C0.219769 20.6945 0.229779 20.6245 0.259779 20.5645C0.299779 20.5045 0.359762 20.4645 0.429762 20.4545L35.8998 15.8845V0.444519C35.8998 0.314519 35.9998 0.214508 36.1298 0.214508C36.2598 0.214508 36.3598 0.314519 36.3598 0.444519V15.8845L71.8298 20.4545C71.8998 20.4645 71.9597 20.5045 71.9997 20.5645C72.0397 20.6245 72.0397 20.6945 72.0098 20.7645L58.3298 54.4845C58.3198 54.5045 58.3098 54.5245 58.2998 54.5345L36.3198 83.2345C36.2498 83.3045 36.1798 83.3345 36.1098 83.3345ZM0.769758 20.8845L14.1598 53.8945L35.6798 16.3845L0.769758 20.8845Z" fill="white"/>
<path d="M58.0998 54.6345C58.0198 54.6345 57.9397 54.5945 57.8997 54.5245L35.9097 16.2045C35.8497 16.0945 35.8797 15.9545 35.9897 15.8945C36.0997 15.8345 36.2397 15.8745 36.2997 15.9745L58.2898 54.2945C58.3498 54.4045 58.3197 54.5445 58.2097 54.6045C58.1697 54.6245 58.1398 54.6345 58.0998 54.6345Z" fill="white"/>
<path d="M36.1098 83.3345C36.0398 83.3345 35.9698 83.3045 35.9298 83.2445L13.9398 54.5445C13.8598 54.4445 13.8798 54.3045 13.9798 54.2245C14.0798 54.1545 14.2198 54.1645 14.2998 54.2645L36.2898 82.9645C36.3698 83.0645 36.3498 83.2045 36.2498 83.2845C36.2098 83.3245 36.1598 83.3345 36.1098 83.3345Z" fill="white"/>
<path d="M14.2397 55.4945C15.6997 55.4945 15.7097 53.2145 14.2397 53.2145C12.7797 53.2145 12.7797 55.4945 14.2397 55.4945Z" fill="white"/>
<path d="M58.0998 55.4645C59.5598 55.4645 59.5698 53.1845 58.0998 53.1845C56.6398 53.1845 56.6298 55.4645 58.0998 55.4645Z" fill="white"/>
<path d="M36.1298 17.2845C37.5898 17.2845 37.5998 15.0045 36.1298 15.0045C34.6698 15.0045 34.6698 17.2845 36.1298 17.2845Z" fill="white"/>
</svg>
