<svg width="88" height="85" viewBox="0 0 88 85" fill="none" xmlns="http://www.w3.org/2000/svg">
<path d="M23.7161 75.8635C23.5361 75.8635 23.3762 75.7635 23.3062 75.6035L7.89619 42.6035C7.81619 42.4235 7.85616 42.2135 7.99616 42.0835L34.3262 16.7935C34.4762 16.6535 34.6862 16.6235 34.8662 16.7235L67.5162 35.0035C67.6862 35.1035 67.7762 35.2935 67.7362 35.4935L60.2662 71.9435C60.2262 72.1435 60.0662 72.2835 59.8662 72.3035L23.7662 75.8635C23.7462 75.8635 23.7361 75.8635 23.7161 75.8635ZM8.85615 42.5135L23.9862 74.9235L59.4362 71.4235L66.7761 35.6335L34.7062 17.6835L8.85615 42.5135Z" fill="white"/>
<path d="M50.2761 84.9435C50.2661 84.9435 50.2661 84.9435 50.2561 84.9435L22.3161 83.5635C22.1661 83.5535 22.0261 83.4735 21.9461 83.3435L8.49613 60.8035L0.0261006 36.6935C-0.0238994 36.5535 -0.0038921 36.3935 0.0961079 36.2735L17.1462 13.5135C17.1762 13.4735 17.2161 13.4335 17.2561 13.4035L37.5461 0.0734981C37.6561 0.00349808 37.7861 -0.0164995 37.9061 0.0135005L66.1361 7.36348C66.2161 7.38348 66.2861 7.4235 66.3461 7.4835L85.2062 26.8035C85.2862 26.8835 85.3261 26.9835 85.3361 27.0935L87.2861 53.4235C87.2961 53.5035 87.2761 53.5935 87.2361 53.6735L73.5561 79.6635C73.4961 79.7835 73.3861 79.8635 73.2561 79.8935L50.3761 84.9535C50.3461 84.9435 50.3061 84.9435 50.2761 84.9435ZM22.6061 82.6735L50.2461 84.0335L72.8561 79.0335L86.3761 53.3535L84.4461 27.3235L65.7961 8.21348L37.8861 0.943493L17.8261 14.1135L0.966103 36.6235L9.31614 60.4235L22.6061 82.6735Z" fill="white"/>
<path d="M34.6362 17.5735C34.6062 17.5735 34.5761 17.5735 34.5461 17.5635C34.2961 17.5135 34.1361 17.2735 34.1861 17.0335L37.3461 0.37346C37.3961 0.12346 37.6361 -0.0265251 37.8761 0.0134749C38.1261 0.0634749 38.2861 0.303474 38.2361 0.543474L35.0762 17.2035C35.0462 17.4235 34.8562 17.5735 34.6362 17.5735Z" fill="white"/>
<path d="M67.2961 35.8535C67.1261 35.8535 66.9661 35.7535 66.8861 35.5935C66.7761 35.3635 66.8761 35.0935 67.1061 34.9835L84.6961 26.7035C84.9261 26.5935 85.1961 26.6935 85.3061 26.9235C85.4161 27.1535 85.3161 27.4235 85.0861 27.5335L67.4961 35.8135C67.4261 35.8435 67.3561 35.8535 67.2961 35.8535Z" fill="white"/>
<path d="M73.1561 79.8935C73.0761 79.8935 73.0062 79.8735 72.9362 79.8335L59.5961 72.2435C59.3761 72.1235 59.3062 71.8435 59.4262 71.6235C59.5462 71.4035 59.8362 71.3335 60.0462 71.4535L73.3862 79.0435C73.6062 79.1635 73.6761 79.4435 73.5561 79.6635C73.4661 79.8035 73.3161 79.8935 73.1561 79.8935Z" fill="white"/>
<path d="M22.9261 83.5935C22.9061 83.5935 22.8962 83.5935 22.8762 83.5935C22.6262 83.5635 22.4461 83.3435 22.4661 83.0935L23.2662 75.3635C23.2962 75.1135 23.5062 74.9335 23.7662 74.9535C24.0162 74.9835 24.1961 75.2035 24.1761 75.4535L23.3862 83.1835C23.3462 83.4235 23.1561 83.5935 22.9261 83.5935Z" fill="white"/>
<path d="M8.30614 42.8635C8.21614 42.8635 8.11612 42.8335 8.03612 42.7735L0.186141 36.9135C-0.0138588 36.7635 -0.0538921 36.4735 0.0961079 36.2735C0.246108 36.0735 0.526129 36.0335 0.736129 36.1835L8.5861 42.0435C8.7861 42.1935 8.82613 42.4835 8.67613 42.6835C8.58613 42.8035 8.44614 42.8635 8.30614 42.8635Z" fill="white"/>
<path d="M33.3762 25.9635C33.3262 25.9635 33.2761 25.9435 33.2361 25.9135L17.3661 13.9635C17.2661 13.8835 17.2462 13.7435 17.3262 13.6435C17.4062 13.5435 17.5462 13.5235 17.6462 13.6035L33.4362 25.5035L59.6561 22.3135L65.8162 7.71346C65.8662 7.59346 65.9962 7.54347 66.1161 7.59347C66.2361 7.64347 66.2861 7.77345 66.2361 7.89345L60.0261 22.6135C59.9961 22.6935 59.9261 22.7435 59.8461 22.7535L33.4061 25.9735C33.3961 25.9635 33.3862 25.9635 33.3762 25.9635Z" fill="white"/>
<path d="M8.88619 60.8035C8.79619 60.8035 8.71617 60.7535 8.67617 60.6735C8.62617 60.5635 8.67615 60.4235 8.78615 60.3735L28.1062 51.5735L33.1462 25.7035C33.1762 25.5835 33.2762 25.4935 33.4162 25.5235C33.5362 25.5435 33.6162 25.6635 33.5962 25.7935L28.5362 51.7735C28.5262 51.8435 28.4761 51.9035 28.4061 51.9335L8.97616 60.7835C8.94616 60.8035 8.91619 60.8035 8.88619 60.8035Z" fill="white"/>
<path d="M50.2761 84.7235H50.2661C50.1361 84.7135 50.0461 84.6135 50.0461 84.4835L50.9562 64.8435L28.1961 51.9235C28.0861 51.8635 28.0461 51.7235 28.1061 51.6135C28.1661 51.5035 28.3061 51.4635 28.4161 51.5235L51.2961 64.5135C51.3661 64.5535 51.4161 64.6335 51.4161 64.7235L50.4961 84.5035C50.4961 84.6235 50.3961 84.7235 50.2761 84.7235Z" fill="white"/>
<path d="M51.1962 64.9435C51.1362 64.9435 51.0661 64.9135 51.0261 64.8635C50.9461 64.7735 50.9462 64.6235 51.0462 64.5435L71.0562 46.8335C71.1262 46.7735 71.2162 46.7635 71.2962 46.7935L86.9362 53.2335C87.0562 53.2835 87.1062 53.4135 87.0562 53.5335C87.0062 53.6535 86.8762 53.7035 86.7562 53.6535L71.2562 47.2735L51.3562 64.8835C51.3062 64.9235 51.2462 64.9435 51.1962 64.9435Z" fill="white"/>
<path d="M71.2062 47.2335C71.1162 47.2335 71.0362 47.1835 70.9962 47.1035L59.6162 22.6135C59.5662 22.5035 59.6162 22.3635 59.7262 22.3135C59.8362 22.2635 59.9761 22.3135 60.0261 22.4235L71.4062 46.9135C71.4562 47.0235 71.4062 47.1635 71.2962 47.2135C71.2662 47.2335 71.2362 47.2335 71.2062 47.2335Z" fill="white"/>
</svg>
