<svg width="86" height="82" viewBox="0 0 86 82" fill="none" xmlns="http://www.w3.org/2000/svg">
<path d="M42.7836 13.88C42.5336 13.88 42.3337 13.68 42.3337 13.42V0.459991C42.3337 0.209991 42.5336 0 42.7836 0C43.0336 0 43.2437 0.199991 43.2437 0.459991V13.42C43.2437 13.67 43.0336 13.88 42.7836 13.88Z" fill="white"/>
<path d="M42.7836 66.73C42.5336 66.73 42.3337 66.53 42.3337 66.27V56.94C42.3337 56.69 42.5336 56.48 42.7836 56.48C43.0336 56.48 43.2437 56.68 43.2437 56.94V66.27C43.2437 66.53 43.0336 66.73 42.7836 66.73Z" fill="white"/>
<path d="M16.6237 81.43C16.5337 81.43 16.4336 81.4 16.3536 81.34C16.1536 81.19 16.1037 80.91 16.2537 80.7L23.8737 70.22C24.0237 70.02 24.3037 69.97 24.5137 70.12C24.7137 70.27 24.7637 70.55 24.6137 70.76L16.9937 81.24C16.9037 81.36 16.7637 81.43 16.6237 81.43Z" fill="white"/>
<path d="M68.9437 81.43C68.8037 81.43 68.6637 81.36 68.5737 81.24L60.9537 70.76C60.8037 70.56 60.8537 70.27 61.0537 70.12C61.2537 69.97 61.5437 70.02 61.6937 70.22L69.3137 80.7C69.4637 80.9 69.4136 81.19 69.2136 81.34C69.1336 81.4 69.0337 81.43 68.9437 81.43Z" fill="white"/>
<path d="M72.7836 35.68C72.5936 35.68 72.4136 35.56 72.3536 35.37C72.2736 35.13 72.4037 34.87 72.6437 34.8L84.9736 30.79C85.2136 30.71 85.4736 30.84 85.5436 31.08C85.6236 31.32 85.4936 31.58 85.2536 31.65L72.9236 35.66C72.8736 35.67 72.8336 35.68 72.7836 35.68Z" fill="white"/>
<path d="M22.5236 52.01C22.3336 52.01 22.1536 51.89 22.0936 51.7C22.0136 51.46 22.1436 51.2 22.3836 51.13L31.2536 48.25C31.4936 48.17 31.7536 48.3 31.8236 48.54C31.9036 48.78 31.7736 49.04 31.5336 49.11L22.6636 51.99C22.6236 52 22.5736 52.01 22.5236 52.01Z" fill="white"/>
<path d="M35.7437 35.74C35.6037 35.74 35.4637 35.67 35.3737 35.55L29.8937 28C29.7437 27.8 29.7937 27.51 29.9937 27.36C30.1937 27.21 30.4837 27.26 30.6337 27.46L36.1137 35.01C36.2637 35.21 36.2137 35.5 36.0137 35.65C35.9337 35.71 35.8337 35.74 35.7437 35.74Z" fill="white"/>
<path d="M49.8237 35.74C49.7337 35.74 49.6337 35.71 49.5537 35.65C49.3537 35.5 49.3037 35.22 49.4537 35.01L54.9337 27.46C55.0837 27.26 55.3637 27.21 55.5737 27.36C55.7737 27.51 55.8237 27.79 55.6737 28L50.1937 35.55C50.1037 35.67 49.9637 35.74 49.8237 35.74Z" fill="white"/>
<path d="M63.0436 52.01C62.9936 52.01 62.9536 52 62.9036 51.99L54.0336 49.11C53.7936 49.03 53.6636 48.78 53.7436 48.54C53.8236 48.3 54.0836 48.17 54.3136 48.25L63.1836 51.13C63.4236 51.21 63.5536 51.46 63.4736 51.7C63.4136 51.89 63.2336 52.01 63.0436 52.01Z" fill="white"/>
<path d="M12.7836 35.68C12.7336 35.68 12.6937 35.67 12.6437 35.66L0.313635 31.65C0.073635 31.57 -0.0564041 31.32 0.0235959 31.08C0.103596 30.84 0.353603 30.71 0.593603 30.79L12.9236 34.8C13.1636 34.88 13.2936 35.13 13.2136 35.37C13.1536 35.56 12.9836 35.68 12.7836 35.68Z" fill="white"/>
<path d="M42.7836 57.4C42.6936 57.4 42.5937 57.37 42.5137 57.31L31.1236 49.04C30.9636 48.92 30.8937 48.72 30.9537 48.53L35.3036 35.14C35.3636 34.95 35.5436 34.83 35.7336 34.83H49.8137C50.0137 34.83 50.1836 34.96 50.2436 35.14L54.5936 48.53C54.6536 48.72 54.5836 48.92 54.4236 49.04L43.0336 57.31C42.9736 57.37 42.8836 57.4 42.7836 57.4ZM31.9236 48.5L42.7836 56.38L53.6437 48.5L49.4936 35.74H36.0737L31.9236 48.5Z" fill="white"/>
<path d="M68.9437 81.43H16.6237C16.4237 81.43 16.2536 81.3 16.1936 81.12L0.023602 31.37C-0.036398 31.18 0.0336459 30.98 0.193646 30.86L42.5137 0.109989C42.6737 -0.010011 42.8936 -0.010011 43.0536 0.109989L85.3837 30.86C85.5437 30.98 85.6136 31.18 85.5536 31.37L69.3837 81.12C69.3137 81.3 69.1437 81.43 68.9437 81.43ZM16.9636 80.52H68.6136L84.5737 31.39L42.7836 1.03L0.993634 31.39L16.9636 80.52Z" fill="white"/>
<path d="M61.3237 70.95C61.2937 70.95 61.2536 70.95 61.2236 70.94L42.7836 66.75L24.3436 70.94C24.2136 70.97 24.0836 70.94 23.9736 70.86C23.8636 70.78 23.8036 70.66 23.7836 70.53L22.0737 51.7L12.3937 35.46C12.3237 35.35 12.3136 35.21 12.3536 35.09C12.3936 34.96 12.4836 34.86 12.6036 34.81L29.9836 27.36L42.4337 13.13C42.6037 12.93 42.9437 12.93 43.1237 13.13L55.5737 27.36L72.9537 34.81C73.0737 34.86 73.1637 34.96 73.2037 35.09C73.2437 35.22 73.2336 35.35 73.1636 35.46L63.4837 51.7L61.7736 70.53C61.7636 70.66 61.6937 70.78 61.5837 70.86C61.5137 70.92 61.4237 70.95 61.3237 70.95ZM42.7836 65.82C42.8136 65.82 42.8537 65.82 42.8837 65.83L60.9136 69.93L62.5837 51.51C62.5937 51.44 62.6137 51.38 62.6437 51.32L72.1137 35.43L55.1137 28.15C55.0537 28.12 54.9937 28.08 54.9537 28.03L42.7736 14.11L30.5936 28.03C30.5536 28.08 30.4937 28.12 30.4337 28.15L13.4337 35.43L22.9036 51.32C22.9436 51.38 22.9636 51.44 22.9636 51.51L24.6337 69.93L42.6636 65.83C42.7136 65.82 42.7536 65.82 42.7836 65.82Z" fill="white"/>
<path d="M23.1036 72.28C23.0036 72.28 22.9136 72.21 22.8836 72.11L12.5636 35.28C12.5336 35.16 12.6036 35.03 12.7236 35C12.8436 34.96 12.9736 35.04 13.0036 35.16L23.3236 71.99C23.3536 72.11 23.2836 72.24 23.1636 72.27C23.1436 72.28 23.1236 72.28 23.1036 72.28Z" fill="white"/>
<path d="M20.6237 75.71C20.5137 75.71 20.4236 75.63 20.4036 75.53L12.5737 35.28C12.5537 35.16 12.6337 35.04 12.7537 35.01C12.8937 34.98 12.9936 35.07 13.0236 35.19L20.8536 75.44C20.8736 75.56 20.7937 75.68 20.6737 75.71C20.6437 75.71 20.6337 75.71 20.6237 75.71Z" fill="white"/>
<path d="M17.9437 79.38C17.8337 79.38 17.7336 79.3 17.7136 79.18L12.5536 35.25C12.5436 35.12 12.6236 35.01 12.7536 35C12.8736 34.97 12.9936 35.08 13.0036 35.2L18.1636 79.13C18.1736 79.26 18.0936 79.37 17.9636 79.38C17.9636 79.38 17.9537 79.38 17.9437 79.38Z" fill="white"/>
<path d="M13.9836 73.07C13.8636 73.07 13.7637 72.97 13.7537 72.85L12.5536 35.23C12.5536 35.1 12.6436 35 12.7736 35C12.7736 35 12.7736 35 12.7836 35C12.9036 35 13.0037 35.1 13.0137 35.22L14.2136 72.84C14.2236 72.97 14.1236 73.07 13.9836 73.07C13.9936 73.07 13.9936 73.07 13.9836 73.07Z" fill="white"/>
<path d="M10.6637 62.84C10.6537 62.84 10.6537 62.84 10.6437 62.84C10.5137 62.83 10.4237 62.72 10.4337 62.6L12.5637 35.22C12.5737 35.09 12.6837 34.99 12.8037 35.01C12.9337 35.02 13.0237 35.13 13.0137 35.25L10.8837 62.63C10.8837 62.75 10.7837 62.84 10.6637 62.84Z" fill="white"/>
<path d="M8.61366 56.53C8.60366 56.53 8.58368 56.53 8.57368 56.53C8.45368 56.51 8.37369 56.39 8.39369 56.26L11.9837 38.14L7.20368 51.38C7.16368 51.5 7.03365 51.56 6.91365 51.52C6.79365 51.48 6.73363 51.35 6.77363 51.23L12.5737 35.15C12.6137 35.04 12.7336 34.98 12.8436 35.01C12.9636 35.04 13.0337 35.16 13.0037 35.27L8.82368 56.35C8.81368 56.45 8.71366 56.53 8.61366 56.53Z" fill="white"/>
<path d="M5.60366 47.28C5.56366 47.28 5.52366 47.27 5.48366 47.25C5.37366 47.18 5.34365 47.05 5.40365 46.94L11.7736 36.45L4.42367 43.12C4.33367 43.2 4.18366 43.2 4.10366 43.1C4.02366 43.01 4.02368 42.86 4.12368 42.78L12.6337 35.05C12.7237 34.97 12.8437 34.97 12.9337 35.04C13.0237 35.11 13.0437 35.24 12.9837 35.33L5.80367 47.16C5.75367 47.24 5.68366 47.28 5.60366 47.28Z" fill="white"/>
<path d="M3.18365 39.82C3.09365 39.82 3.01363 39.77 2.97363 39.69C2.92363 39.57 2.97368 39.44 3.08368 39.39L11.6536 35.49L1.86365 35.78C1.86365 35.78 1.86364 35.78 1.85364 35.78C1.73364 35.78 1.63366 35.68 1.62366 35.56C1.62366 35.43 1.71363 35.33 1.84363 35.33L12.7637 35C12.8537 34.99 12.9637 35.07 12.9937 35.18C13.0137 35.29 12.9636 35.39 12.8636 35.44L3.26367 39.81C3.24367 39.82 3.21365 39.82 3.18365 39.82Z" fill="white"/>
<path d="M23.5837 63.39C23.4937 63.39 23.4036 63.33 23.3736 63.24L12.5837 35.31C12.5337 35.19 12.5936 35.06 12.7136 35.02C12.8336 34.97 12.9637 35.03 13.0037 35.15L23.7936 63.08C23.8436 63.2 23.7836 63.33 23.6636 63.37C23.6336 63.38 23.6037 63.39 23.5837 63.39Z" fill="white"/>
</svg>
