<svg width="88" height="83" viewBox="0 0 88 83" fill="none" xmlns="http://www.w3.org/2000/svg">
<path d="M54.5962 82.5519C54.5662 82.5519 54.5461 82.5519 54.5161 82.5419L29.6861 78.1719C29.5761 78.1519 29.4761 78.0919 29.4061 78.0019L15.9561 60.2919L0.0561435 31.6119C-0.00385651 31.5019 -0.0138651 31.3819 0.0161349 31.2619L5.30614 12.7519C5.33614 12.6419 5.40615 12.5519 5.49615 12.4919L24.8162 0.0718939C24.8962 0.0218939 24.9862 -0.00808292 25.0662 0.00191708L59.4461 0.69192C59.4861 0.69192 59.5262 0.701909 59.5662 0.711909L80.4961 7.03192C80.6461 7.07192 80.7561 7.19191 80.8061 7.34191L87.0161 29.1919C87.0461 29.3019 87.0361 29.4219 86.9861 29.5219L75.6061 51.8219L61.6761 74.9619L54.9561 82.3919C54.8461 82.5019 54.7262 82.5519 54.5962 82.5519ZM30.0161 77.3119L54.4261 81.6019L60.9261 74.4319L74.7862 51.3919L86.0761 29.2719L79.9861 7.84191L59.3561 1.6119L25.1761 0.9219L6.11614 13.1719L0.926139 31.3419L16.7061 59.8019L30.0161 77.3119Z" fill="white"/>
<path d="M23.2062 27.0219C23.1062 27.0219 23.0062 26.9919 22.9262 26.9219L5.44615 13.2419C5.24615 13.0819 5.21616 12.8019 5.36616 12.6019C5.52616 12.4019 5.80617 12.3719 6.00617 12.5219L23.3262 26.0819L53.3162 21.1019L58.9862 1.03193C59.0562 0.791932 59.3061 0.651934 59.5462 0.721934C59.7862 0.791934 59.9261 1.04193 59.8561 1.28193L54.1162 21.6319C54.0662 21.8019 53.9262 21.9319 53.7562 21.9619L23.2862 27.0219C23.2562 27.0219 23.2262 27.0219 23.2062 27.0219Z" fill="white"/>
<path d="M75.1762 52.0819C75.0362 52.0819 74.8962 52.0119 74.8062 51.8919L53.3062 21.7719C53.1562 21.5719 53.2061 21.2819 53.4161 21.1419C53.6161 20.9919 53.9062 21.0419 54.0462 21.2519L75.5462 51.3719C75.6962 51.5819 75.6462 51.8619 75.4362 52.0019C75.3562 52.0619 75.2662 52.0819 75.1762 52.0819Z" fill="white"/>
<path d="M61.2662 75.1919C61.1862 75.1919 61.1062 75.1719 61.0362 75.1319L37.0062 61.1019C36.9162 61.0519 36.8562 60.9719 36.8162 60.8819L22.7862 26.7319C22.6862 26.5019 22.8062 26.2319 23.0362 26.1419C23.2662 26.0419 23.5362 26.1619 23.6262 26.3919L37.5962 60.3919L61.4962 74.3419C61.7162 74.4719 61.7862 74.7519 61.6562 74.9619C61.5762 75.1119 61.4162 75.1919 61.2662 75.1919Z" fill="white"/>
<path d="M37.2361 61.1719H37.2261L16.2961 60.4819C16.0461 60.4719 15.8461 60.2619 15.8561 60.0119C15.8661 59.7619 16.0661 59.5719 16.3261 59.5719L37.2562 60.2619C37.5062 60.2719 37.7061 60.4819 37.6961 60.7319C37.6761 60.9719 37.4761 61.1719 37.2361 61.1719Z" fill="white"/>
<path d="M64.4261 19.0919H64.4161L30.5561 17.3719C30.4661 17.3719 30.3861 17.3019 30.3561 17.2119L24.8361 0.541914C24.7961 0.421914 24.8661 0.291936 24.9761 0.251936C25.0961 0.211936 25.2261 0.27192 25.2661 0.39192L30.7361 16.9119L64.3661 18.6219L80.2261 7.28193C80.3261 7.21193 80.4661 7.23192 80.5461 7.33192C80.6161 7.43192 80.5961 7.58193 80.4961 7.65193L64.5761 19.0319C64.5161 19.0719 64.4761 19.0919 64.4261 19.0919Z" fill="white"/>
<path d="M10.9062 42.2919C10.8462 42.2919 10.7861 42.2719 10.7462 42.2219L0.286158 31.5519C0.196158 31.4619 0.196158 31.3219 0.286158 31.2319C0.376158 31.1419 0.516135 31.1419 0.606135 31.2319L10.8861 41.7219L30.3861 16.9919C30.4661 16.8919 30.6061 16.8719 30.7061 16.9519C30.8061 17.0319 30.8261 17.1719 30.7461 17.2719L11.0861 42.2019C11.0461 42.2519 10.9861 42.2819 10.9161 42.2919C10.9061 42.2919 10.9062 42.2919 10.9062 42.2919Z" fill="white"/>
<path d="M29.7562 77.9519C29.6662 77.9519 29.5862 77.9019 29.5462 77.8119L23.5662 63.5519L10.7062 42.1819C10.6462 42.0719 10.6762 41.9319 10.7862 41.8719C10.8962 41.8119 11.0362 41.8419 11.0962 41.9519L23.9761 63.3519L29.9662 77.6419C30.0162 77.7619 29.9562 77.8919 29.8462 77.9419C29.8162 77.9519 29.7862 77.9519 29.7562 77.9519Z" fill="white"/>
<path d="M66.6661 56.9119C66.6361 56.9119 66.6161 56.9119 66.5861 56.8919L48.9961 50.1119C48.9361 50.0919 48.8861 50.0419 48.8661 49.9819C48.8461 49.9219 48.8461 49.8519 48.8761 49.8019L64.2261 18.7619C64.2861 18.6519 64.4161 18.6019 64.5261 18.6619C64.6361 18.7219 64.6861 18.8519 64.6262 18.9619L49.3861 49.7819L66.5861 56.4119L86.3762 29.1919C86.4462 29.0919 86.5961 29.0619 86.6961 29.1419C86.7961 29.2119 86.8161 29.3619 86.7461 29.4619L66.8561 56.8219C66.8061 56.8819 66.7361 56.9119 66.6661 56.9119Z" fill="white"/>
<path d="M54.5961 82.3219C54.5661 82.3219 54.5261 82.3119 54.4961 82.3019C54.3861 82.2519 54.3361 82.1119 54.3861 82.0019L66.4561 56.5919C66.5061 56.4819 66.6461 56.4319 66.7561 56.4819C66.8661 56.5319 66.9161 56.6719 66.8661 56.7819L54.7961 82.1919C54.7661 82.2819 54.6761 82.3219 54.5961 82.3219Z" fill="white"/>
<path d="M23.7762 63.7019C23.6962 63.7019 23.6161 63.6619 23.5761 63.5819C23.5161 63.4719 23.5561 63.3319 23.6661 63.2719L48.9562 49.7019C49.0662 49.6419 49.2062 49.6819 49.2662 49.7919C49.3261 49.9019 49.2862 50.0419 49.1762 50.1019L23.8861 63.6719C23.8561 63.6919 23.8162 63.7019 23.7762 63.7019Z" fill="white"/>
</svg>
