<svg width="88" height="79" viewBox="0 0 88 79" fill="none" xmlns="http://www.w3.org/2000/svg">
<path d="M51.8424 69.9282H51.8324C51.6824 69.9282 51.5424 69.8482 51.4624 69.7182L26.4524 31.7782C26.3424 31.6082 26.3524 31.3882 26.4824 31.2382L52.2624 0.168152C52.3524 0.0581519 52.4924 0.0181787 52.6324 0.00817871C52.7724 0.0181787 52.9024 0.0881604 52.9824 0.20816L77.0424 35.1582C77.1524 35.3182 77.1523 35.5282 77.0323 35.6882L52.2024 69.7482C52.1224 69.8582 51.9823 69.9282 51.8424 69.9282ZM27.3924 31.5582L51.8524 68.6682L76.1124 35.3982L52.5724 1.20816L27.3924 31.5582Z" fill="white"/>
<path d="M39.5923 78.1982C39.5523 78.1982 39.5224 78.1982 39.4823 78.1882L21.6323 73.7182C21.5223 73.6882 21.4224 73.6182 21.3624 73.5182L0.072344 40.0482C-0.037656 39.8782 -0.0176475 39.6582 0.112353 39.5082L24.4223 11.5682C24.4723 11.5182 24.5323 11.4682 24.5923 11.4482L52.4423 0.0381835C52.6223 -0.0418165 52.8223 0.00816882 52.9524 0.148169L66.4924 14.8382L87.8523 45.4982C87.9623 45.6582 87.9623 45.8582 87.8523 46.0182L67.3923 75.5982C67.3123 75.7082 67.1923 75.7782 67.0623 75.7882L39.6424 78.1982C39.6224 78.1982 39.6123 78.1982 39.5923 78.1982ZM22.0323 72.8782L39.6323 77.2782L66.7623 74.8982L86.9223 45.7582L65.7823 15.4082L52.4924 0.998175L25.0323 12.2482L1.02236 39.8482L22.0323 72.8782Z" fill="white"/>
<path d="M0.452349 40.2582C0.262349 40.2582 0.0823562 40.1382 0.0223562 39.9382C-0.0576438 39.6982 0.082344 39.4382 0.322344 39.3682L26.7023 31.0882C26.9523 31.0182 27.2024 31.1482 27.2724 31.3882C27.3524 31.6282 27.2123 31.8882 26.9723 31.9582L0.592333 40.2382C0.542333 40.2582 0.502349 40.2582 0.452349 40.2582Z" fill="white"/>
<path d="M67.0124 75.7882C66.9624 75.7882 66.9024 75.7782 66.8524 75.7582L51.7824 69.9382L21.8024 73.7282C21.5724 73.7682 21.3224 73.5882 21.2924 73.3382C21.2624 73.0882 21.4324 72.8582 21.6824 72.8282L51.7824 69.0282C51.8624 69.0182 51.9324 69.0282 52.0024 69.0582L67.1824 74.9182C67.4124 75.0081 67.5324 75.2682 67.4424 75.5082C67.3724 75.6782 67.2024 75.7882 67.0124 75.7882Z" fill="white"/>
<path d="M87.4724 46.2082C87.3624 46.2082 87.2424 46.1682 87.1624 46.0782L76.3624 35.7282C76.1824 35.5582 76.1724 35.2682 76.3524 35.0882C76.5224 34.9082 76.8124 34.8982 76.9924 35.0782L87.7924 45.4282C87.9724 45.5982 87.9824 45.8882 87.8024 46.0682C87.7124 46.1682 87.5924 46.2082 87.4724 46.2082Z" fill="white"/>
<path d="M41.6024 24.8582C41.5524 24.8582 41.5024 24.8382 41.4624 24.8082L24.6224 12.0482C24.5224 11.9682 24.5024 11.8282 24.5824 11.7282C24.6624 11.6282 24.8024 11.6082 24.9024 11.6882L41.6424 24.3782L66.0724 14.9382C66.1924 14.8882 66.3224 14.9482 66.3624 15.0682C66.4124 15.1882 66.3524 15.3182 66.2324 15.3582L41.6824 24.8482C41.6624 24.8482 41.6324 24.8582 41.6024 24.8582Z" fill="white"/>
<path d="M39.5923 77.9682C39.5123 77.9682 39.4424 77.9282 39.4024 77.8582L21.0623 48.7782C21.0123 48.6982 21.0124 48.5882 21.0824 48.5082L41.4324 24.4782C41.4824 24.4282 41.5624 24.3982 41.6224 24.3982C41.6924 24.3982 41.7624 24.4382 41.8024 24.4982L59.1623 51.0582C59.2123 51.1382 59.2124 51.2382 59.1524 51.3182L39.7823 77.8782C39.7323 77.9382 39.6623 77.9682 39.5923 77.9682ZM21.5323 48.6782L39.6124 77.3382L58.6923 51.1782L41.5824 25.0082L21.5323 48.6782Z" fill="white"/>
<path d="M58.9624 51.4082C58.8524 51.4082 58.7624 51.3282 58.7424 51.2282C58.7224 51.1082 58.8024 50.9881 58.9224 50.9581L87.4324 45.5282C87.5624 45.4982 87.6724 45.5881 87.7024 45.7081C87.7224 45.8281 87.6424 45.9482 87.5224 45.9782L59.0124 51.4082C58.9924 51.4082 58.9824 51.4082 58.9624 51.4082Z" fill="white"/>
<path d="M21.2523 48.8881C21.2223 48.8881 21.1923 48.8782 21.1623 48.8682L0.362357 40.0182C0.242357 39.9682 0.192362 39.8382 0.242362 39.7182C0.292362 39.5982 0.42235 39.5482 0.54235 39.5982L21.3423 48.4481C21.4623 48.4981 21.5124 48.6282 21.4624 48.7482C21.4324 48.8382 21.3423 48.8881 21.2523 48.8881Z" fill="white"/>
</svg>
