<svg width="75" height="89" viewBox="0 0 75 89" fill="none" xmlns="http://www.w3.org/2000/svg">
<path d="M37.4847 87.5C37.4347 87.5 37.3647 87.48 37.2247 87.39L37.2047 87.42L0.994751 63.16C0.974751 63.15 0.954763 63.13 0.944763 63.12C0.934763 63.11 0.914724 63.09 0.904724 63.08C0.834724 63 0.794739 62.9 0.794739 62.78V24.61C0.794739 24.55 0.804707 24.5 0.824707 24.45C0.834707 24.42 0.854756 24.39 0.874756 24.36C0.904756 24.32 0.944741 24.28 0.984741 24.25L37.2047 0.570011C37.3947 0.440011 37.6547 0.480007 37.8047 0.660007C37.9548 0.840007 37.9447 1.10001 37.7847 1.26001L16.3148 24.18H37.4547C37.7047 24.18 37.9147 24.38 37.9147 24.64C37.9147 24.89 37.7147 25.1 37.4547 25.1H16.0547L37.8447 62.59C37.9247 62.73 37.9247 62.9 37.8447 63.05C37.7647 63.19 37.6147 63.28 37.4547 63.28H15.9348C23.9048 72.16 35.3347 84.72 37.3647 86.48L37.7047 86.71C37.8647 86.81 37.9347 87 37.8947 87.18C37.8547 87.36 37.7047 87.5 37.5247 87.53C37.5147 87.5 37.5047 87.5 37.4847 87.5ZM2.73474 63.24L33.6348 83.94C30.5648 80.74 24.9747 74.68 14.7247 63.24H2.73474ZM15.2448 62.33H36.6647L15.0048 25.07H1.88477L15.2448 62.33ZM1.69476 62.33H14.2747L1.69476 27.23V62.33ZM2.76471 24.16H15.0648L34.5247 3.39002L2.76471 24.16Z" fill="white"/>
<path d="M37.4348 87.5C37.4148 87.5 37.4048 87.5 37.3848 87.5C37.2048 87.47 37.0547 87.33 37.0147 87.15C36.9747 86.97 37.0547 86.78 37.2047 86.68L37.5447 86.45C39.5747 84.7 51.0047 72.14 58.9747 63.25H37.4547C37.2947 63.25 37.1448 63.16 37.0648 63.02C36.9848 62.88 36.9848 62.71 37.0648 62.56L58.8547 25.07H37.4547C37.2047 25.07 36.9948 24.87 36.9948 24.61C36.9948 24.36 37.1947 24.15 37.4547 24.15H58.6047L37.1348 1.23002C36.9748 1.06002 36.9647 0.800015 37.1147 0.630015C37.2647 0.450015 37.5247 0.420019 37.7147 0.540019L73.9247 24.23C73.9447 24.25 73.9648 24.26 73.9948 24.28C74.0148 24.3 74.0247 24.32 74.0447 24.34C74.0547 24.36 74.0647 24.38 74.0747 24.41C74.0947 24.46 74.1047 24.52 74.1047 24.58V62.75C74.1047 62.87 74.0547 62.97 73.9847 63.05C73.9747 63.06 73.9747 63.06 73.9647 63.07C73.9447 63.09 73.9247 63.11 73.9047 63.12L37.6948 87.38L37.6747 87.35C37.5547 87.48 37.4848 87.5 37.4348 87.5ZM60.1948 63.24C49.9448 74.68 44.3547 80.74 41.2747 83.94L72.1747 63.24H60.1948ZM60.6447 62.33H73.2247V27.23L60.6447 62.33ZM38.2548 62.33H59.6747L73.0347 25.07H59.9147L38.2548 62.33ZM59.8447 24.16H72.1447L40.3848 3.39002L59.8447 24.16Z" fill="white"/>
<path d="M37.4547 87.28C37.3247 87.28 37.2247 87.18 37.2247 87.05V62.79C37.2247 62.66 37.3247 62.56 37.4547 62.56C37.5847 62.56 37.6848 62.66 37.6848 62.79V87.05C37.6848 87.17 37.5847 87.28 37.4547 87.28Z" fill="white"/>
<path d="M14.9247 63.02C14.8847 63.02 14.8447 63.01 14.8047 62.99C14.6947 62.93 14.6647 62.79 14.7247 62.68L37.2247 24.56V0.930023C37.2247 0.800023 37.3247 0.700012 37.4547 0.700012C37.5847 0.700012 37.6847 0.800023 37.6847 0.930023V24.61C37.6847 24.65 37.6747 24.69 37.6547 24.73L15.1147 62.9C15.0747 62.98 15.0047 63.02 14.9247 63.02Z" fill="white"/>
<path d="M59.9948 63.02C59.9147 63.02 59.8447 62.98 59.7947 62.91L37.2548 24.74C37.1948 24.63 37.2247 24.49 37.3347 24.43C37.4447 24.36 37.5847 24.4 37.6447 24.51L60.1848 62.68C60.2448 62.79 60.2147 62.93 60.1047 62.99C60.0747 63.01 60.0348 63.02 59.9948 63.02Z" fill="white"/>
<path d="M1.24476 63.02C1.21476 63.02 1.19474 63.02 1.16474 63.01C1.04474 62.97 0.984729 62.84 1.02473 62.72L15.0548 24.55C15.0948 24.43 15.2347 24.37 15.3447 24.41C15.4647 24.45 15.5248 24.58 15.4848 24.7L1.45472 62.87C1.42472 62.96 1.33476 63.02 1.24476 63.02Z" fill="white"/>
<path d="M73.6748 63.02C73.5848 63.02 73.4947 62.96 73.4647 62.87L59.4348 24.7C59.3948 24.58 59.4547 24.45 59.5747 24.41C59.6847 24.37 59.8248 24.43 59.8648 24.55L73.8947 62.72C73.9347 62.84 73.8748 62.97 73.7548 63.01C73.7248 63.01 73.7048 63.02 73.6748 63.02Z" fill="white"/>
<path d="M37.5147 25.7C38.9747 25.7 38.9847 23.42 37.5147 23.42C36.0547 23.42 36.0447 25.7 37.5147 25.7Z" fill="white"/>
<path d="M15.4948 25.78C16.9548 25.78 16.9648 23.5 15.4948 23.5C14.0348 23.51 14.0348 25.78 15.4948 25.78Z" fill="white"/>
<path d="M59.3947 25.85C60.8547 25.85 60.8647 23.57 59.3947 23.57C57.9247 23.58 57.9247 25.85 59.3947 25.85Z" fill="white"/>
<path d="M48.7148 44.74C50.1748 44.74 50.1848 42.46 48.7148 42.46C47.2548 42.46 47.2548 44.74 48.7148 44.74Z" fill="white"/>
<path d="M26.3447 44.72C27.8047 44.72 27.8147 42.44 26.3447 42.44C24.8748 42.44 24.8748 44.72 26.3447 44.72Z" fill="white"/>
<path d="M66.7548 45.09C68.2148 45.09 68.2248 42.81 66.7548 42.81C65.2948 42.82 65.2848 45.09 66.7548 45.09Z" fill="white"/>
<path d="M8.14474 45.07C9.60474 45.07 9.61474 42.79 8.14474 42.79C6.67474 42.79 6.67474 45.07 8.14474 45.07Z" fill="white"/>
<path d="M37.4047 63.94C38.8647 63.94 38.8747 61.66 37.4047 61.66C35.9347 61.66 35.9347 63.94 37.4047 63.94Z" fill="white"/>
<path d="M14.9848 64.04C16.4448 64.04 16.4548 61.76 14.9848 61.76C13.5148 61.77 13.5148 64.04 14.9848 64.04Z" fill="white"/>
<path d="M1.09476 63.98C2.55476 63.98 2.56476 61.7 1.09476 61.7C-0.365244 61.71 -0.365244 63.98 1.09476 63.98Z" fill="white"/>
<path d="M59.8848 64.03C61.3448 64.03 61.3548 61.75 59.8848 61.75C58.4248 61.76 58.4248 64.03 59.8848 64.03Z" fill="white"/>
<path d="M73.5948 63.9C75.0548 63.9 75.0648 61.62 73.5948 61.62C72.1348 61.63 72.1348 63.9 73.5948 63.9Z" fill="white"/>
<path d="M37.4547 88.07C38.9147 88.07 38.9247 85.79 37.4547 85.79C35.9947 85.8 35.9947 88.07 37.4547 88.07Z" fill="white"/>
<path d="M1.12475 26.03C2.58475 26.03 2.59475 23.75 1.12475 23.75C-0.335246 23.75 -0.345246 26.03 1.12475 26.03Z" fill="white"/>
<path d="M73.5947 25.96C75.0547 25.96 75.0648 23.68 73.5947 23.68C72.1247 23.68 72.1247 25.96 73.5947 25.96Z" fill="white"/>
<path d="M37.4748 2.28C38.9348 2.28 38.9448 0 37.4748 0C36.0148 0.01 36.0148 2.28 37.4748 2.28Z" fill="white"/>
</svg>
