<svg width="81" height="89" viewBox="0 0 81 89" fill="none" xmlns="http://www.w3.org/2000/svg">
<path d="M27.0661 77.1736C27.0361 77.1736 26.9961 77.1736 26.9661 77.1636C26.8161 77.1236 26.6861 77.0136 26.6361 76.8636L19.0061 54.5036L4.67607 34.0936C4.58607 33.9636 4.5661 33.7936 4.6361 33.6536C4.6961 33.5036 4.83607 33.4036 4.98607 33.3836L80.1861 22.9236C80.3861 22.8936 80.5661 22.9936 80.6561 23.1736C80.746 23.3436 80.7061 23.5636 80.5761 23.6936L27.3961 77.0436C27.3061 77.1336 27.1861 77.1736 27.0661 77.1736ZM5.84606 34.1836L19.7861 54.0436C19.8161 54.0836 19.8361 54.1136 19.8461 54.1636L27.2561 75.8936L78.9561 24.0236L5.84606 34.1836Z" fill="white"/>
<path d="M27.0661 77.1736C26.9661 77.1736 26.8761 77.1436 26.7961 77.0836C26.6661 76.9836 26.5961 76.8236 26.6161 76.6536L30.6361 48.0436L4.83608 34.2236C4.68608 34.1436 4.58609 33.9836 4.59609 33.8036C4.59609 33.6336 4.7061 33.4736 4.8561 33.4036L23.0761 25.0236L37.3961 0.223607C37.4061 0.203607 37.4161 0.193619 37.4261 0.173619C37.4461 0.143619 37.4661 0.123632 37.4961 0.0936325C37.5561 0.0436325 37.6161 0.0136056 37.6961 0.00360559C37.7061 0.00360559 37.7061 0.00360559 37.7161 0.00360559C37.8061 -0.00639441 37.8961 0.00361414 37.9761 0.0436141C38.0361 0.0736141 38.0761 0.123619 38.1161 0.173619L52.8461 21.2136L80.2261 22.8836C80.3861 22.8936 80.5261 22.9836 80.5961 23.1236C80.6661 23.2636 80.6661 23.4336 80.5861 23.5636L66.2761 48.0836L74.0361 70.3736C74.0961 70.5336 74.0561 70.7036 73.9461 70.8336C73.9361 70.8536 73.9161 70.8636 73.8961 70.8836C73.8461 70.9236 73.7861 70.9536 73.7261 70.9736C73.6961 70.9836 73.6661 70.9836 73.6361 70.9836C73.6161 70.9836 73.5961 70.9836 73.5761 70.9836L45.6061 68.9536L27.2061 77.0936C27.1961 77.1636 27.1261 77.1736 27.0661 77.1736ZM31.4961 48.5136L27.6361 75.9736L45.3961 68.1136C45.4661 68.0836 45.5261 68.0736 45.6161 68.0736L71.5661 69.9536L31.4961 48.5136ZM31.6261 47.5536L72.5861 69.4836L38.0361 1.95362L31.6261 47.5536ZM41.1961 6.12363L71.0661 64.4936L65.3961 48.2136C65.3561 48.0836 65.3661 47.9536 65.4361 47.8336L79.4761 23.7736L52.6161 22.1336C52.4761 22.1236 52.3461 22.0536 52.2661 21.9436L41.1961 6.12363ZM6.07613 33.8636L30.7761 47.0936L37.0161 2.72361L23.7961 25.6236C23.7461 25.7036 23.6761 25.7736 23.5961 25.8136L6.07613 33.8636Z" fill="white"/>
<path d="M42.6461 88.3536C42.4961 88.3536 42.3561 88.2836 42.2661 88.1536L32.8061 74.2636C32.6661 74.0536 32.7161 73.7736 32.9261 73.6336C33.1361 73.4936 33.4161 73.5436 33.5561 73.7536L42.3561 86.6836L53.5861 12.3536L47.8661 15.0136C47.6461 15.1136 47.3661 15.0236 47.2661 14.7936C47.1561 14.5636 47.2561 14.2936 47.4861 14.1936L53.9761 11.1836C54.1261 11.1136 54.3061 11.1336 54.4361 11.2336C54.5661 11.3336 54.6361 11.5036 54.6161 11.6636L43.0861 87.9836C43.0561 88.1636 42.9161 88.3136 42.7361 88.3636C42.7161 88.3536 42.6761 88.3536 42.6461 88.3536Z" fill="white"/>
<path d="M0.4561 65.6836C0.3361 65.6836 0.226093 65.6436 0.136093 65.5536C-0.0139071 65.4136 -0.0439144 65.1836 0.0660856 65.0036L11.9861 44.0336C12.1061 43.8136 12.3861 43.7436 12.6061 43.8636C12.8261 43.9836 12.906 44.2636 12.776 44.4836L1.68608 63.9936L19.2061 53.9036C28.3061 48.6136 30.4361 47.5236 31.0661 47.3736V47.3536C31.8261 47.1136 42.1261 41.1936 49.3461 37.0036L33.4961 30.2636L7.52605 18.9636L11.586 30.8836C11.666 31.1236 11.5361 31.3836 11.3061 31.4636C11.0761 31.5436 10.8061 31.4136 10.7261 31.1836L6.33604 18.2936C6.27604 18.1236 6.3261 17.9336 6.4561 17.8136C6.5861 17.6936 6.77609 17.6636 6.94609 17.7336L33.8561 29.4436L50.5361 36.5336C50.6961 36.6036 50.8061 36.7536 50.8161 36.9236C50.8261 37.0936 50.736 37.2636 50.586 37.3436C34.966 46.4236 31.9461 48.0236 31.2061 48.2136V48.2436C30.5661 48.4236 23.7861 52.2936 19.6561 54.6936L0.686081 65.6136C0.606081 65.6636 0.5261 65.6836 0.4561 65.6836Z" fill="white"/>
<path d="M23.7361 67.4036C23.7261 67.4036 23.7161 67.4036 23.7061 67.4036L0.426067 65.6836C0.176067 65.6636 -0.013916 65.4436 0.00608398 65.1936C0.026084 64.9436 0.236074 64.7636 0.496074 64.7736L23.776 66.4936C24.026 66.5136 24.2161 66.7336 24.1961 66.9836C24.1761 67.2236 23.9761 67.4036 23.7361 67.4036Z" fill="white"/>
<path d="M26.9161 19.7536C26.9061 19.7536 26.8961 19.7536 26.8861 19.7536L6.71608 18.5936C6.46608 18.5836 6.27608 18.3636 6.28608 18.1136C6.29608 17.8636 6.50612 17.6636 6.76612 17.6836L26.9361 18.8436C27.1861 18.8536 27.3761 19.0736 27.3661 19.3236C27.3561 19.5736 27.1561 19.7536 26.9161 19.7536Z" fill="white"/>
<path d="M57.2861 22.4236C57.0861 22.4236 56.9061 22.2936 56.8461 22.1036L53.7361 11.7236C53.6661 11.4836 53.7961 11.2236 54.0361 11.1536C54.2761 11.0736 54.5261 11.2136 54.6061 11.4536L57.7161 21.8336C57.7861 22.0736 57.6561 22.3336 57.4161 22.4036C57.3661 22.4236 57.3261 22.4236 57.2861 22.4236Z" fill="white"/>
<path d="M69.2061 58.2236C69.0361 58.2236 68.8761 58.1236 68.7961 57.9636C68.6861 57.7336 68.7861 57.4636 69.0161 57.3536L74.4161 54.7936L50.0861 37.3136C49.8861 37.1636 49.8361 36.8836 49.9861 36.6836C50.1361 36.4736 50.4161 36.4336 50.6161 36.5836L75.5761 54.5136C75.7061 54.6036 75.7761 54.7636 75.7661 54.9236C75.7561 55.0836 75.6561 55.2236 75.5061 55.2936L69.4161 58.1836C69.3361 58.2136 69.2761 58.2236 69.2061 58.2236Z" fill="white"/>
<path d="M75.2961 55.3336C75.1461 55.3336 75.0061 55.2636 74.9161 55.1336L67.7161 44.4436C67.5761 44.2336 67.6261 43.9536 67.8361 43.8136C68.0361 43.6736 68.3261 43.7236 68.4661 43.9336L75.6661 54.6236C75.8061 54.8336 75.7561 55.1136 75.5461 55.2536C75.4761 55.3036 75.3861 55.3336 75.2961 55.3336Z" fill="white"/>
<path d="M42.6461 88.3536C42.5661 88.3536 42.4861 88.3336 42.4161 88.2936C42.1961 88.1636 42.1261 87.8936 42.2461 87.6736L53.0561 68.8736C53.1861 68.6536 53.4561 68.5836 53.6761 68.7036C53.8961 68.8336 53.9661 69.1036 53.8461 69.3236L43.0361 88.1236C42.9561 88.2736 42.8061 88.3536 42.6461 88.3536Z" fill="white"/>
<path d="M17.336 28.4036C17.276 28.4036 17.2261 28.3836 17.1761 28.3436L6.58605 18.3036C6.49605 18.2136 6.4861 18.0736 6.5761 17.9836C6.6661 17.8936 6.80611 17.8836 6.89611 17.9736L17.4861 28.0136C17.5761 28.1036 17.5861 28.2436 17.4961 28.3336C17.4561 28.3836 17.396 28.4036 17.336 28.4036Z" fill="white"/>
<path d="M27.6161 30.9236C27.5461 30.9236 27.4861 30.8936 27.4361 30.8336L23.216 25.5336C23.136 25.4336 23.1561 25.2936 23.2561 25.2136C23.3561 25.1336 23.4961 25.1536 23.5761 25.2536L27.7961 30.5536C27.8761 30.6536 27.8561 30.7936 27.7561 30.8736C27.7161 30.9036 27.6661 30.9236 27.6161 30.9236Z" fill="white"/>
<path d="M37.0961 40.5836C36.9961 40.5836 36.9161 40.5236 36.8761 40.4236L33.4361 29.9236C33.3961 29.8036 33.4661 29.6736 33.5761 29.6336C33.6961 29.5936 33.8261 29.6536 33.8661 29.7736L37.2461 40.0736L50.2861 36.7136C50.4061 36.6736 50.5361 36.7536 50.5661 36.8736C50.5961 36.9936 50.5261 37.1236 50.4061 37.1536L37.1661 40.5636C37.1361 40.5836 37.1161 40.5836 37.0961 40.5836Z" fill="white"/>
<path d="M43.6861 34.3436C43.6161 34.3436 43.5561 34.3136 43.5161 34.2636C43.4361 34.1636 43.4461 34.0236 43.5461 33.9436L51.6561 27.1536C51.7561 27.0736 51.8961 27.0836 51.9761 27.1836C52.0561 27.2836 52.0461 27.4236 51.9461 27.5036L43.8361 34.2936C43.7861 34.3236 43.7361 34.3436 43.6861 34.3436Z" fill="white"/>
<path d="M50.0061 24.5636C49.9461 24.5636 49.8961 24.5436 49.8461 24.5036C49.7561 24.4136 49.7561 24.2736 49.8361 24.1836L52.4961 21.3936C52.5861 21.3036 52.7261 21.3036 52.8161 21.3836C52.9061 21.4736 52.9061 21.6136 52.8261 21.7036L50.1561 24.4936C50.1261 24.5436 50.0661 24.5636 50.0061 24.5636Z" fill="white"/>
<path d="M50.0061 18.1436C49.9661 18.1436 49.9161 18.1336 49.8761 18.1036C49.7661 18.0336 49.7461 17.8936 49.8061 17.7836L53.976 11.4636C54.046 11.3536 54.1861 11.3336 54.2961 11.3936C54.4061 11.4636 54.4261 11.6036 54.3661 11.7136L50.1961 18.0336C50.1561 18.1036 50.0761 18.1436 50.0061 18.1436Z" fill="white"/>
<path d="M40.9561 48.0236H31.1361C31.0461 48.0236 30.9661 47.9736 30.9261 47.8936C30.8861 47.8136 30.8961 47.7236 30.9561 47.6536L36.9161 40.2136C36.9961 40.1136 37.1361 40.1036 37.2361 40.1736C37.3361 40.2536 37.3461 40.3936 37.2761 40.4936L31.6061 47.5636H40.8461L50.1661 36.9236C50.2461 36.8336 50.3961 36.8236 50.4861 36.9036C50.5761 36.9836 50.5861 37.1336 50.5061 37.2236L41.1161 47.9436C41.0761 48.0036 41.0161 48.0236 40.9561 48.0236Z" fill="white"/>
<path d="M47.4161 56.5336C47.3461 56.5336 47.2761 56.5036 47.2361 56.4436L40.7661 47.9436C40.6861 47.8436 40.7061 47.7036 40.8061 47.6236C40.9061 47.5436 41.0461 47.5636 41.1261 47.6636L47.5961 56.1636C47.6761 56.2636 47.6561 56.4036 47.5561 56.4836C47.5161 56.5136 47.4661 56.5336 47.4161 56.5336Z" fill="white"/>
<path d="M48.8861 46.8436C48.7861 46.8436 48.6861 46.7736 48.6661 46.6736C48.6361 46.5536 48.7061 46.4236 48.8361 46.4036L59.9661 43.6836C60.0861 43.6436 60.2061 43.7236 60.2361 43.8536C60.2661 43.9736 60.1961 44.1036 60.0661 44.1236L48.9361 46.8436C48.9161 46.8436 48.9061 46.8436 48.8861 46.8436Z" fill="white"/>
<path d="M65.8361 48.3036H62.1561C62.0261 48.3036 61.9261 48.2036 61.9261 48.0736C61.9261 47.9436 62.0261 47.8436 62.1561 47.8436H65.8361C65.9661 47.8436 66.0661 47.9436 66.0661 48.0736C66.0561 48.2036 65.9561 48.3036 65.8361 48.3036Z" fill="white"/>
<path d="M75.2961 55.1036C75.2861 55.1036 75.2761 55.1036 75.2661 55.1036L67.7961 54.0336C67.6761 54.0136 67.5861 53.9036 67.6061 53.7736C67.6261 53.6536 67.7361 53.5636 67.8661 53.5836L75.336 54.6536C75.456 54.6736 75.546 54.7836 75.526 54.9136C75.5061 55.0236 75.4161 55.1036 75.2961 55.1036Z" fill="white"/>
<path d="M19.4261 54.5336C19.3461 54.5336 19.2661 54.4836 19.2261 54.4136C19.1761 54.3236 19.196 54.2036 19.276 54.1336L28.4561 46.2736C28.5561 46.1936 28.696 46.2036 28.776 46.2936C28.856 46.3936 28.8461 46.5336 28.7561 46.6136L20.3261 53.8336L30.5761 51.1536C30.6961 51.1136 30.8261 51.1936 30.8561 51.3136C30.8861 51.4336 30.8161 51.5636 30.6961 51.5936L19.4861 54.5236C19.4561 54.5236 19.4461 54.5336 19.4261 54.5336Z" fill="white"/>
<path d="M0.456092 65.4536C0.376092 65.4536 0.296079 65.4136 0.256079 65.3336C0.206079 65.2336 0.236087 65.1136 0.326087 65.0436L17.8661 52.0936C17.9661 52.0236 18.1061 52.0436 18.1861 52.1436C18.2561 52.2436 18.2361 52.3836 18.1361 52.4636L1.83604 64.4836L20.586 57.7336C20.706 57.6836 20.8361 57.7536 20.8761 57.8736C20.9161 57.9936 20.8561 58.1236 20.7361 58.1636L0.526038 65.4436C0.506038 65.4436 0.476092 65.4536 0.456092 65.4536Z" fill="white"/>
<path d="M45.5761 68.7536C45.4761 68.7536 45.3861 68.6836 45.3561 68.5836L43.1261 60.4536C43.0961 60.3336 43.166 60.2036 43.286 60.1736C43.416 60.1436 43.5361 60.2136 43.5661 60.3336L45.7961 68.4636C45.8261 68.5836 45.7561 68.7136 45.6361 68.7436C45.6161 68.7536 45.5961 68.7536 45.5761 68.7536Z" fill="white"/>
<path d="M42.6461 88.1336C42.5361 88.1336 42.4361 88.0536 42.4161 87.9436L39.9261 70.9736C39.9061 70.8536 39.9961 70.7336 40.1161 70.7136C40.2461 70.7036 40.3561 70.7836 40.3761 70.9036L42.8661 87.8736C42.8861 87.9936 42.7961 88.1136 42.6761 88.1336C42.6661 88.1336 42.6561 88.1336 42.6461 88.1336Z" fill="white"/>
</svg>
